<svg width="16" height="17" viewBox="0 0 16 17" fill="none" xmlns="http://www.w3.org/2000/svg">
<g clip-path="url(#clip0_2183_178)">
<path d="M11.4861 9.22276C13.5008 7.18891 13.5008 3.87958 11.4861 1.84572C9.47136 -0.188158 6.19323 -0.188158 4.1785 1.84572C2.16381 3.87958 2.16381 7.18891 4.1785 9.22276C5.0313 10.0837 6.11047 10.58 7.22434 10.7121V12.4585H6.00855C5.6728 12.4585 5.40065 12.7333 5.40065 13.0722C5.40065 13.4111 5.6728 13.6859 6.00855 13.6859H7.22434V15.4146C7.22437 15.7536 7.49652 16.0283 7.8323 16.0283C8.16804 16.0283 8.4402 15.7536 8.4402 15.4146V13.6859H9.65602C9.99176 13.6859 10.2639 13.4111 10.2639 13.0722C10.2639 12.7333 9.99176 12.4585 9.65602 12.4585H8.4402V10.7122C9.55409 10.58 10.6333 10.0837 11.4861 9.22276ZM5.03823 8.35486C3.49757 6.79955 3.49757 4.2689 5.03823 2.71359C6.57886 1.15835 9.08564 1.15825 10.6264 2.71359C12.167 4.2689 12.167 6.79955 10.6264 8.35486C9.0857 9.91014 6.57889 9.91014 5.03823 8.35486Z" fill="#EB3D00"/>
</g>
<defs>
<clipPath id="clip0_2183_178">
<rect width="15.5552" height="15.708" fill="white" transform="translate(0.0546875 0.320312)"/>
</clipPath>
</defs>
</svg>
