<svg width="33" height="33" viewBox="0 0 33 33" fill="none" xmlns="http://www.w3.org/2000/svg">
<path d="M5.15202 16.0857L10.3792 10.2058C10.5669 9.95914 10.8969 9.93039 11.1162 10.1417C11.3355 10.3529 11.361 10.7241 11.1732 10.9707C11.1557 10.9937 11.1366 11.0152 11.1162 11.0348L6.78288 15.9152H27.4773C27.766 15.9152 28 16.1785 28 16.5032C28 16.828 27.766 17.0912 27.4773 17.0912H6.78288L11.1162 21.9656C11.3355 22.1769 11.361 22.5481 11.1732 22.7947C10.9854 23.0413 10.6554 23.0701 10.4362 22.8588C10.4157 22.8391 10.3966 22.8177 10.3792 22.7947L5.15198 16.9147C4.94934 16.6855 4.94934 16.3151 5.15202 16.0857Z" fill="white"/>
</svg>
