<svg width="18" height="20" viewBox="0 0 18 20" fill="none" xmlns="http://www.w3.org/2000/svg">
<path d="M17.2815 14.5787L16.121 12.8875C15.9626 12.6576 15.8773 12.3841 15.8767 12.1037V7.25C15.8767 5.42664 15.1616 3.67795 13.8888 2.38864C12.616 1.09933 10.8898 0.375 9.0898 0.375C7.28981 0.375 5.56354 1.09933 4.29076 2.38864C3.01798 3.67795 2.30294 5.42664 2.30294 7.25V12.1037C2.30228 12.3841 2.21703 12.6576 2.05861 12.8875L0.898056 14.5787C0.72233 14.776 0.606776 15.0206 0.565366 15.2829C0.523956 15.5453 0.558464 15.8141 0.664718 16.057C0.770972 16.2999 0.94442 16.5065 1.16409 16.6516C1.38376 16.7968 1.64024 16.8744 1.90251 16.875H5.76423C5.92 17.6521 6.33618 18.3507 6.94226 18.8525C7.54833 19.3543 8.30703 19.6284 9.0898 19.6284C9.87256 19.6284 10.6313 19.3543 11.2373 18.8525C11.8434 18.3507 12.2596 17.6521 12.4154 16.875H16.2771C16.5394 16.8744 16.7958 16.7968 17.0155 16.6516C17.2352 16.5065 17.4086 16.2999 17.5149 16.057C17.6211 15.8141 17.6556 15.5453 17.6142 15.2829C17.5728 15.0206 17.4573 14.776 17.2815 14.5787ZM9.0898 18.25C8.66973 18.2488 8.2603 18.116 7.91766 17.8699C7.57502 17.6237 7.31592 17.2762 7.1759 16.875H11.0037C10.8637 17.2762 10.6046 17.6237 10.2619 17.8699C9.91928 18.116 9.50986 18.2488 9.0898 18.25ZM1.90251 15.5C1.93319 15.4712 1.96051 15.4389 1.98395 15.4038L3.17165 13.6713C3.48849 13.2114 3.659 12.6645 3.66031 12.1037V7.25C3.66031 5.79131 4.23234 4.39236 5.25057 3.36091C6.26879 2.32946 7.64981 1.75 9.0898 1.75C10.5298 1.75 11.9108 2.32946 12.929 3.36091C13.9472 4.39236 14.5193 5.79131 14.5193 7.25V12.1037C14.5206 12.6645 14.6911 13.2114 15.0079 13.6713L16.1956 15.4038C16.2191 15.4389 16.2464 15.4712 16.2771 15.5H1.90251Z" />
</svg>
