<svg width="25" height="25" viewBox="0 0 25 25" fill="none" xmlns="http://www.w3.org/2000/svg">
<path fill-rule="evenodd" clip-rule="evenodd" d="M4.00617 23.4705H0.807936C0.591368 23.4705 0.415779 23.295 0.415779 23.0784V15.5252C0.415779 15.3086 0.591368 15.133 0.807936 15.133H4.03112C4.66274 14.6688 5.36465 14.2309 5.91754 13.6924C6.43911 13.1843 6.82254 12.5821 6.82254 11.7477V9.45483C6.82254 9.23826 6.99813 9.06267 7.2147 9.06267C8.94264 9.06267 10.3571 10.4771 10.3571 12.205V13.9835C10.3571 14.0014 10.3558 14.0193 10.3534 14.0371C10.3179 14.2939 10.21 14.6218 10.0176 14.9583C10.2378 14.8287 10.494 14.7541 10.7668 14.7541H13.4892C14.3059 14.7541 14.9739 15.4221 14.9739 16.2389C14.9739 16.5724 14.8625 16.8811 14.675 17.1297C15.1273 17.3848 15.4345 17.8702 15.4345 18.424C15.4345 19.0686 15.0182 19.6206 14.4412 19.8246C14.5841 20.0526 14.6669 20.3216 14.6669 20.6091C14.6669 21.2203 14.2946 21.7472 13.7662 21.9751C13.9234 22.2106 14.0153 22.493 14.0153 22.7959C14.0153 23.6126 13.3472 24.2806 12.5305 24.2806H10.7668C10.6449 24.2806 10.5264 24.2657 10.4128 24.2377C7.44441 24.7496 5.74348 25.0515 4.00617 23.4705ZM3.76862 15.9173H1.20009V22.6862H3.76862V15.9173ZM8.88519 18.8534C8.5771 19.1167 8.27034 19.3147 8.05181 19.4402C7.86416 19.5479 7.62426 19.4831 7.51647 19.2954C7.40867 19.1077 7.47357 18.8678 7.66122 18.76C8.29132 18.3982 10.0202 17.2717 8.87877 15.6064C8.77201 15.4507 8.79142 15.241 8.92495 15.1074C9.31024 14.7221 9.52142 14.2731 9.57274 13.9545V12.205C9.57274 11.0419 8.71867 10.0681 7.60686 9.87983V11.7477C7.60686 12.8192 7.13455 13.6019 6.46475 14.2542C5.90338 14.801 5.19725 15.2518 4.55313 15.7226C4.5571 19.8771 4.55764 22.2729 4.5548 22.909C5.44362 23.7065 6.32676 23.916 7.43269 23.8651C8.05127 23.8366 8.73475 23.7307 9.51808 23.5966C9.36882 23.3652 9.28205 23.0902 9.28205 22.7959C9.28205 22.3645 9.46833 21.9747 9.76446 21.7029C9.46838 21.4305 9.28205 21.0403 9.28205 20.6091C9.28205 20.2756 9.39348 19.9668 9.58093 19.7183C9.25044 19.5318 8.9975 19.2225 8.88519 18.8534ZM10.5607 23.4652C10.6259 23.4854 10.6951 23.4963 10.7668 23.4963H12.5305C12.9158 23.4963 13.231 23.1811 13.231 22.7959C13.231 22.4106 12.9158 22.0955 12.5305 22.0955H12.5301L10.7685 22.0954C10.7679 22.0955 10.7673 22.0955 10.7668 22.0955C10.3815 22.0955 10.0664 22.4106 10.0664 22.7959C10.0664 23.1041 10.2681 23.3675 10.5461 23.4604C10.551 23.462 10.5559 23.4636 10.5607 23.4652ZM10.7668 21.3112H13.1822C13.5676 21.3112 13.8826 20.9956 13.8826 20.6091C13.8826 20.2238 13.5674 19.9087 13.1822 19.9087H10.7668C10.3815 19.9087 10.0664 20.2238 10.0664 20.6091C10.0664 20.9939 10.3804 21.3102 10.765 21.3112H10.7668ZM10.3062 19.1244H13.9497C14.335 19.1244 14.6501 18.8092 14.6501 18.424C14.6501 18.0387 14.335 17.7236 13.9497 17.7236H10.3062C9.92098 17.7236 9.60583 18.0387 9.60583 18.424C9.60583 18.8092 9.92098 19.1244 10.3062 19.1244ZM13.4892 16.9392C13.8745 16.9392 14.1896 16.6241 14.1896 16.2389C14.1896 15.8536 13.8745 15.5385 13.4892 15.5385H10.7668C10.3815 15.5385 10.0664 15.8536 10.0664 16.2389C10.0664 16.6241 10.3815 16.9392 10.7668 16.9392H13.4892ZM24.5841 9.00233C24.5841 9.97606 23.7899 10.7682 22.8162 10.7682H16.7683L14.1928 13.4492C14.082 13.5646 13.9121 13.6011 13.7636 13.5413C13.6151 13.4815 13.5179 13.3376 13.5179 13.1775V10.7682H12.7466C11.7728 10.7682 10.9786 9.97606 10.9786 9.00233V2.11096C10.9786 1.13738 11.773 0.343018 12.7466 0.343018H22.8162C23.7897 0.343018 24.5841 1.13738 24.5841 2.11096V9.00233ZM23.7998 9.00233V2.11096C23.7998 1.56929 23.3578 1.12733 22.8162 1.12733H12.7466C12.2049 1.12733 11.7629 1.56929 11.7629 2.11096V9.00233C11.7629 9.5438 12.205 9.98385 12.7466 9.98385H13.91C14.1266 9.98385 14.3022 10.1594 14.3022 10.376V12.2032L16.3184 10.1043C16.3923 10.0274 16.4945 9.98385 16.6012 9.98385H22.8162C23.3576 9.98385 23.7998 9.5438 23.7998 9.00233ZM14.0516 5.97272C13.8351 5.97272 13.6594 5.79699 13.6594 5.58057C13.6594 5.36415 13.8351 5.18841 14.0516 5.18841H21.3904C21.6069 5.18841 21.7826 5.36415 21.7826 5.58057C21.7826 5.79699 21.6069 5.97272 21.3904 5.97272H14.0516ZM14.0516 3.78939C13.8351 3.78939 13.6594 3.61365 13.6594 3.39723C13.6594 3.18081 13.8351 3.00508 14.0516 3.00508H21.3904C21.6069 3.00508 21.7826 3.18081 21.7826 3.39723C21.7826 3.61365 21.6069 3.78939 21.3904 3.78939H14.0516ZM14.0516 8.154C13.8351 8.154 13.6594 7.97826 13.6594 7.76184C13.6594 7.54537 13.8351 7.36968 14.0516 7.36968H21.3904C21.6069 7.36968 21.7826 7.54537 21.7826 7.76184C21.7826 7.97826 21.6069 8.154 21.3904 8.154H14.0516ZM7.31696 3.35522C7.40259 3.09174 7.64808 2.91336 7.92514 2.91336C8.20215 2.91336 8.44769 3.09174 8.53328 3.35522L8.85965 4.35968H9.91583C10.1928 4.35968 10.4384 4.53807 10.524 4.8015C10.6096 5.06498 10.5158 5.35361 10.2917 5.51645L9.4372 6.13723L9.76357 7.14169C9.84921 7.40517 9.75544 7.6938 9.53132 7.85665C9.30715 8.01944 9.00367 8.01944 8.77955 7.85665L7.92514 7.23586L7.07068 7.85665C6.84656 8.01944 6.54308 8.01944 6.31897 7.85665C6.09485 7.6938 6.00107 7.40517 6.08666 7.14169L6.41303 6.13723L5.55857 5.51645C5.33446 5.35361 5.24068 5.06498 5.32627 4.8015C5.41191 4.53807 5.65745 4.35968 5.93446 4.35968H6.99058L7.31696 3.35522ZM6.38029 5.144L7.10455 5.67017C7.24201 5.77003 7.29951 5.94704 7.247 6.10861L6.97034 6.96003L7.6946 6.43385C7.83205 6.334 8.01818 6.334 8.15563 6.43385L8.8799 6.96003L8.60323 6.10861C8.55073 5.94704 8.60828 5.77003 8.74573 5.67017L9.47 5.144H8.57475C8.40485 5.144 8.25426 5.03459 8.20176 4.87302L7.92514 4.0216L7.64848 4.87302C7.59598 5.03459 7.44544 5.144 7.27553 5.144H6.38029ZM2.43779 7.00606C2.52338 6.74258 2.76892 6.56419 3.04593 6.56419C3.32299 6.56419 3.56852 6.74258 3.65411 7.00606L3.98049 8.01052H5.03661C5.31367 8.01052 5.55916 8.1889 5.6448 8.45233C5.73039 8.71581 5.63661 9.00444 5.4125 9.16728L4.55803 9.78807L4.88441 10.7925C4.97004 11.056 4.87622 11.3446 4.6521 11.5075C4.42799 11.6703 4.1245 11.6703 3.90039 11.5075L3.04593 10.8867L2.19151 11.5075C1.9674 11.6703 1.66392 11.6703 1.4398 11.5075C1.21568 11.3446 1.12186 11.056 1.2075 10.7925L1.53387 9.78807L0.679407 9.16728C0.455289 9.00444 0.361515 8.71581 0.447103 8.45233C0.53274 8.1889 0.77823 8.01052 1.05529 8.01052H2.11142L2.43779 7.00606ZM1.50112 8.79483L2.22539 9.32101C2.36284 9.42086 2.42034 9.59787 2.36784 9.75949L2.09117 10.6109L2.81544 10.0847C2.95289 9.98483 3.13901 9.98483 3.27647 10.0847L4.00073 10.6109L3.72406 9.75949C3.67156 9.59787 3.72906 9.42086 3.86651 9.32101L4.59078 8.79483H3.69553C3.52568 8.79483 3.37509 8.68542 3.32259 8.52385L3.04593 7.67243L2.76931 8.52385C2.71681 8.68542 2.56622 8.79483 2.39637 8.79483H1.50112Z" fill="#EB3D00"/>
</svg>
