<svg width="32" height="32" viewBox="0 0 32 32" fill="none" xmlns="http://www.w3.org/2000/svg">
<path d="M16.29 30.5H15.21C14.7565 30.5 14.3215 30.3198 14.0008 29.9992C13.6802 29.6785 13.5 29.2435 13.5 28.79V28.71C13.5 28.2565 13.6802 27.8215 14.0008 27.5008C14.3215 27.1802 14.7565 27 15.21 27H16.29C16.7435 27 17.1785 27.1802 17.4992 27.5008C17.8198 27.8215 18 28.2565 18 28.71V28.79C18 29.2435 17.8198 29.6785 17.4992 29.9992C17.1785 30.3198 16.7435 30.5 16.29 30.5ZM15.21 28C15.1166 27.9993 15.024 28.0172 14.9375 28.0527C14.8511 28.0881 14.7725 28.1404 14.7065 28.2065C14.6404 28.2725 14.5881 28.3511 14.5527 28.4375C14.5172 28.524 14.4993 28.6166 14.5 28.71V28.79C14.4993 28.8834 14.5172 28.976 14.5527 29.0625C14.5881 29.1489 14.6404 29.2275 14.7065 29.2935C14.7725 29.3596 14.8511 29.4119 14.9375 29.4473C15.024 29.4828 15.1166 29.5007 15.21 29.5H16.29C16.3834 29.5007 16.476 29.4828 16.5625 29.4473C16.6489 29.4119 16.7275 29.3596 16.7935 29.2935C16.8596 29.2275 16.9119 29.1489 16.9473 29.0625C16.9828 28.976 17.0007 28.8834 17 28.79V28.71C17.0007 28.6166 16.9828 28.524 16.9473 28.4375C16.9119 28.3511 16.8596 28.2725 16.7935 28.2065C16.7275 28.1404 16.6489 28.0881 16.5625 28.0527C16.476 28.0172 16.3834 27.9993 16.29 28H15.21Z" fill="#EB3D00"/>
<path d="M11.36 31.46C9.72832 31.4308 8.12069 31.0612 6.64001 30.375L7.08001 29.5C7.12501 29.5 11.58 31.67 14.82 29.5L15.375 30.335C14.1779 31.1 12.7803 31.4916 11.36 31.46Z" fill="#EB3D00"/>
<path d="M7 31H3.5C3.36739 31 3.24021 30.9473 3.14645 30.8536C3.05268 30.7598 3 30.6326 3 30.5V20C3 19.8674 3.05268 19.7402 3.14645 19.6464C3.24021 19.5527 3.36739 19.5 3.5 19.5H7C7.13261 19.5 7.25979 19.5527 7.35355 19.6464C7.44732 19.7402 7.5 19.8674 7.5 20V30.5C7.5 30.6326 7.44732 30.7598 7.35355 30.8536C7.25979 30.9473 7.13261 31 7 31ZM4 30H6.5V20.5H4V30Z" fill="#EB3D00"/>
<path d="M7.5 20H6.5V29.5H7.5V20Z" fill="#EB3D00"/>
<path d="M19.285 23H15.215C14.7606 22.9987 14.3251 22.8176 14.0038 22.4962C13.6824 22.1749 13.5013 21.7394 13.5 21.285V21.215C13.5013 20.7606 13.6824 20.3251 14.0038 20.0038C14.3251 19.6824 14.7606 19.5013 15.215 19.5H19.285C19.7394 19.5013 20.1749 19.6824 20.4962 20.0038C20.8176 20.3251 20.9987 20.7606 21 21.215V21.285C20.9987 21.7394 20.8176 22.1749 20.4962 22.4962C20.1749 22.8176 19.7394 22.9987 19.285 23ZM15.215 20.5C15.0254 20.5 14.8435 20.5753 14.7094 20.7094C14.5753 20.8435 14.5 21.0254 14.5 21.215V21.285C14.5 21.4746 14.5753 21.6565 14.7094 21.7906C14.8435 21.9247 15.0254 22 15.215 22H19.285C19.4746 22 19.6565 21.9247 19.7906 21.7906C19.9247 21.6565 20 21.4746 20 21.285V21.215C20 21.0254 19.9247 20.8435 19.7906 20.7094C19.6565 20.5753 19.4746 20.5 19.285 20.5H15.215Z" fill="#EB3D00"/>
<path d="M18.83 25.5H15.17C14.7275 25.4987 14.3035 25.3223 13.9906 25.0094C13.6777 24.6965 13.5013 24.2725 13.5 23.83V23.67C13.5013 23.2275 13.6777 22.8035 13.9906 22.4906C14.3035 22.1777 14.7275 22.0013 15.17 22H18.83C19.2725 22.0013 19.6965 22.1777 20.0094 22.4906C20.3223 22.8035 20.4987 23.2275 20.5 23.67V23.83C20.4987 24.2725 20.3223 24.6965 20.0094 25.0094C19.6965 25.3223 19.2725 25.4987 18.83 25.5ZM15.17 23C14.9923 23 14.8219 23.0706 14.6962 23.1962C14.5706 23.3219 14.5 23.4923 14.5 23.67V23.83C14.5 24.0077 14.5706 24.1781 14.6962 24.3038C14.8219 24.4294 14.9923 24.5 15.17 24.5H18.83C18.918 24.5 19.0051 24.4827 19.0864 24.449C19.1677 24.4153 19.2415 24.366 19.3038 24.3038C19.366 24.2415 19.4153 24.1677 19.449 24.0864C19.4827 24.0051 19.5 23.918 19.5 23.83V23.67C19.5 23.4923 19.4294 23.3219 19.3038 23.1962C19.1781 23.0706 19.0077 23 18.83 23H15.17Z" fill="#EB3D00"/>
<path d="M17.5 28H15C14.6022 28 14.2206 27.842 13.9393 27.5607C13.658 27.2794 13.5 26.8978 13.5 26.5V26C13.5 25.6022 13.658 25.2206 13.9393 24.9393C14.2206 24.658 14.6022 24.5 15 24.5H17.5C17.8978 24.5 18.2794 24.658 18.5607 24.9393C18.842 25.2206 19 25.6022 19 26V26.5C19 26.8978 18.842 27.2794 18.5607 27.5607C18.2794 27.842 17.8978 28 17.5 28ZM15 25.5C14.8674 25.5 14.7402 25.5527 14.6464 25.6464C14.5527 25.7402 14.5 25.8674 14.5 26V26.5C14.5 26.6326 14.5527 26.7598 14.6464 26.8536C14.7402 26.9473 14.8674 27 15 27H17.5C17.6326 27 17.7598 26.9473 17.8536 26.8536C17.9473 26.7598 18 26.6326 18 26.5V26C18 25.8674 17.9473 25.7402 17.8536 25.6464C17.7598 25.5527 17.6326 25.5 17.5 25.5H15Z" fill="#EB3D00"/>
<path d="M9.82503 24.6099C9.69242 24.6099 9.56525 24.5572 9.47148 24.4634C9.37771 24.3697 9.32503 24.2425 9.32503 24.1099C9.32503 23.9773 9.37771 23.8501 9.47148 23.7563C9.56525 23.6626 9.69242 23.6099 9.82503 23.6099C10.2376 23.5962 10.6407 23.483 11 23.2799C11.5259 22.998 11.982 22.602 12.335 22.121C12.688 21.64 12.9289 21.0861 13.04 20.4999L13.105 20.2299C13.1546 20.0057 13.1897 19.7786 13.21 19.5499C13.28 18.6349 13.445 16.4099 13.445 16.4099C13.6228 15.3861 13.5174 14.3331 13.14 13.3649C13.062 13.1898 12.9236 13.0485 12.7502 12.9669C12.5767 12.8852 12.3797 12.8685 12.195 12.9199C11.9949 12.9609 11.8156 13.0711 11.6885 13.2311C11.5614 13.391 11.4947 13.5906 11.5 13.7949V14.6949C11.5 16.6349 7.64503 19.9949 7.20503 20.3699C7.10425 20.4561 6.97335 20.4987 6.84114 20.4884C6.70893 20.4781 6.58623 20.4157 6.50003 20.3149C6.41384 20.2141 6.37121 20.0832 6.38152 19.951C6.39184 19.8188 6.45425 19.6961 6.55503 19.6099C8.08003 18.3049 10.5 15.8099 10.5 14.6949V13.7949C10.4963 13.3665 10.6405 12.95 10.9083 12.6157C11.1761 12.2813 11.5512 12.0497 11.97 11.9599C12.3775 11.862 12.8062 11.9081 13.1835 12.0904C13.5608 12.2727 13.8635 12.5799 14.04 12.9599C14.5018 14.0915 14.6403 15.3292 14.44 16.5349C14.44 16.5349 14.275 18.7499 14.205 19.6599C14.1837 19.9429 14.1403 20.2237 14.075 20.4999L14.015 20.7549C13.87 21.4809 13.5656 22.1656 13.1238 22.7597C12.6819 23.3537 12.1137 23.8422 11.46 24.1899C10.956 24.4575 10.3956 24.6015 9.82503 24.6099Z" fill="#EB3D00"/>
<path d="M18.96 20.38C16.215 18.025 14.625 18.38 14.165 18.88L13.4 18.245C13.8087 17.8084 14.3725 17.5498 14.97 17.525C16.29 17.405 17.855 18.115 19.61 19.62L18.96 20.38Z" fill="#EB3D00"/>
<path d="M18.13 16.1549C18.0241 16.1553 17.9208 16.122 17.835 16.0599C17.7496 15.9975 17.6863 15.9098 17.6539 15.8092C17.6216 15.7085 17.622 15.6003 17.655 15.4999L19.08 11.1099L15.35 8.40489C15.2643 8.34283 15.2005 8.25519 15.1677 8.15457C15.135 8.05394 15.135 7.94553 15.1678 7.84492C15.2006 7.74432 15.2645 7.65671 15.3502 7.59471C15.436 7.53271 15.5392 7.49951 15.645 7.49989H20.255L21.68 3.11488C21.7139 3.01046 21.7812 2.9201 21.8716 2.85775C21.9619 2.7954 22.0703 2.76452 22.18 2.76988C22.2854 2.76996 22.3881 2.80337 22.4734 2.86533C22.5588 2.9273 22.6223 3.01464 22.655 3.11488L24.055 7.49989H28.67C28.7754 7.49996 28.8781 7.53337 28.9634 7.59533C29.0488 7.6573 29.1123 7.74464 29.145 7.84489C29.178 7.94527 29.1784 8.05354 29.146 8.15415C29.1137 8.25477 29.0503 8.34254 28.965 8.40489L25.23 11.1149L26.66 15.4999C26.6951 15.5982 26.6986 15.7051 26.6699 15.8056C26.6412 15.906 26.5818 15.995 26.5 16.0599C26.4148 16.1213 26.3125 16.1544 26.2075 16.1544C26.1025 16.1544 26.0001 16.1213 25.915 16.0599L22.155 13.3499L18.425 16.0599C18.3392 16.122 18.2359 16.1553 18.13 16.1549ZM22.155 12.2299C22.2615 12.231 22.3648 12.266 22.45 12.3299L25.23 14.3299L24.17 11.0599C24.137 10.9595 24.1366 10.8512 24.1689 10.7506C24.2013 10.65 24.2646 10.5622 24.35 10.4999L27.13 8.49989H23.695C23.5853 8.50525 23.4769 8.47438 23.3866 8.41202C23.2962 8.34967 23.2289 8.25931 23.195 8.15489L22.155 4.88489L21.095 8.15489C21.0623 8.25513 20.9988 8.34248 20.9134 8.40444C20.8281 8.4664 20.7254 8.49981 20.62 8.49989H17.18L19.96 10.4999C20.0462 10.5616 20.1106 10.649 20.1438 10.7497C20.1771 10.8504 20.1775 10.959 20.145 11.0599L19.08 14.3499L21.86 12.3499C21.9426 12.2788 22.0462 12.2367 22.155 12.2299Z" fill="#EB3D00"/>
<path d="M13.5 9.79989C13.3941 9.80027 13.2908 9.767 13.205 9.70489L11 8.08489L8.74998 9.70489C8.66435 9.76746 8.56104 9.80119 8.45498 9.80119C8.34892 9.80119 8.24561 9.76746 8.15998 9.70489C8.07917 9.6403 8.02039 9.55223 7.99173 9.45283C7.96307 9.35343 7.96596 9.24759 7.99998 9.14989L8.84998 6.52489L6.59998 4.90489C6.51427 4.84284 6.45045 4.75519 6.41772 4.65457C6.38498 4.55395 6.38501 4.44553 6.41781 4.34493C6.4506 4.24432 6.51447 4.15672 6.60021 4.09471C6.68596 4.03271 6.78916 3.99951 6.89498 3.99989H9.64998L10.5 1.37489C10.5316 1.27299 10.595 1.18389 10.681 1.12061C10.7669 1.05733 10.8708 1.02319 10.9775 1.02319C11.0842 1.02319 11.1881 1.05733 11.274 1.12061C11.3599 1.18389 11.4233 1.27299 11.455 1.37489L12.305 3.99989H15.065C15.1704 4.00057 15.2728 4.03452 15.3578 4.09691C15.4427 4.15931 15.5058 4.24694 15.5379 4.3473C15.5701 4.44766 15.5697 4.55562 15.5369 4.65576C15.504 4.7559 15.4403 4.84309 15.355 4.90489L13.125 6.52489L14 9.14989C14.0313 9.25011 14.0303 9.35765 13.9971 9.45727C13.9639 9.55689 13.9002 9.64352 13.815 9.70489C13.7237 9.77119 13.6127 9.80467 13.5 9.79989ZM11 6.96989C11.1042 6.97056 11.2056 7.00378 11.29 7.06489L12.55 7.99989L12.05 6.49989C12.0169 6.3995 12.0166 6.29123 12.0489 6.19062C12.0813 6.09001 12.1446 6.00223 12.23 5.93989L13.525 4.99989H11.94C11.8345 4.99981 11.7318 4.96641 11.6465 4.90444C11.5612 4.84248 11.4977 4.75513 11.465 4.65489L10.965 3.15489L10.465 4.65489C10.4328 4.75353 10.3708 4.83973 10.2875 4.90155C10.2042 4.96336 10.1037 4.99773 9.99998 4.99989H8.42998L9.70998 5.92989C9.79825 5.99216 9.86398 6.08135 9.89733 6.1841C9.93068 6.28686 9.92986 6.39765 9.89498 6.49989L9.39498 7.99989L10.675 7.06989C10.7683 6.99961 10.8833 6.96423 11 6.96989Z" fill="#EB3D00"/>
</svg>
