<svg width="23" height="22" viewBox="0 0 23 22" fill="none" xmlns="http://www.w3.org/2000/svg">
<path d="M21.9842 21.2667H19.8124V9.16667C19.8124 8.96418 19.6503 8.8 19.4504 8.8H14.3829V0.366667C14.3829 0.164175 14.2208 0 14.0209 0H4.6098C4.4099 0 4.24783 0.164175 4.24783 0.366667V21.2667H0.99014C0.790244 21.2667 0.628174 21.4308 0.628174 21.6333C0.628174 21.8358 0.790244 22 0.99014 22H21.9842C22.1841 22 22.3461 21.8358 22.3461 21.6333C22.3461 21.4308 22.1841 21.2667 21.9842 21.2667ZM8.22946 21.2667H6.78159V17.9667C6.78159 17.7642 6.94366 17.6 7.14356 17.6H7.86749C8.06739 17.6 8.22946 17.7642 8.22946 17.9667V21.2667ZM9.67732 9.16667V21.2667H8.95339V17.9667C8.95339 17.3591 8.46722 16.8667 7.86749 16.8667H7.14356C6.54383 16.8667 6.05766 17.3591 6.05766 17.9667V21.2667H4.97176V0.733333H13.6589V8.8H10.0393C9.83939 8.8 9.67732 8.96418 9.67732 9.16667ZM19.0884 21.2667H10.4013V9.53333H19.0884V21.2667Z" fill="#EB3D00"/>
<path d="M12.2111 5.13333H10.0393C9.83938 5.13333 9.67731 5.29751 9.67731 5.5V7.7C9.67731 7.90249 9.83938 8.06666 10.0393 8.06666H12.2111C12.411 8.06666 12.573 7.90249 12.573 7.7V5.5C12.573 5.29751 12.411 5.13333 12.2111 5.13333ZM11.8491 7.33333H10.4012V5.86666H11.8491V7.33333Z" fill="#EB3D00"/>
<path d="M12.2111 1.46667H10.0393C9.83938 1.46667 9.67731 1.63085 9.67731 1.83334V4.03334C9.67731 4.23583 9.83938 4.40001 10.0393 4.40001H12.2111C12.411 4.40001 12.573 4.23583 12.573 4.03334V1.83334C12.573 1.63085 12.411 1.46667 12.2111 1.46667ZM11.8491 3.66667H10.4012V2.20001H11.8491V3.66667Z" fill="#EB3D00"/>
<path d="M8.59144 5.13333H6.41964C6.21975 5.13333 6.05768 5.29751 6.05768 5.5V7.7C6.05768 7.90249 6.21975 8.06666 6.41964 8.06666H8.59144C8.79133 8.06666 8.9534 7.90249 8.9534 7.7V5.5C8.9534 5.29751 8.79133 5.13333 8.59144 5.13333ZM8.22947 7.33333H6.78161V5.86666H8.22947V7.33333Z" fill="#EB3D00"/>
<path d="M8.59144 1.46667H6.41964C6.21975 1.46667 6.05768 1.63085 6.05768 1.83334V4.03334C6.05768 4.23583 6.21975 4.40001 6.41964 4.40001H8.59144C8.79133 4.40001 8.9534 4.23583 8.9534 4.03334V1.83334C8.9534 1.63085 8.79133 1.46667 8.59144 1.46667ZM8.22947 3.66667H6.78161V2.20001H8.22947V3.66667Z" fill="#EB3D00"/>
<path d="M8.59144 8.79999H6.41964C6.21975 8.79999 6.05768 8.96416 6.05768 9.16665V11.3667C6.05768 11.5691 6.21975 11.7333 6.41964 11.7333H8.59144C8.79133 11.7333 8.9534 11.5691 8.9534 11.3667V9.16665C8.9534 8.96416 8.79133 8.79999 8.59144 8.79999ZM8.22947 11H6.78161V9.53332H8.22947V11Z" fill="#EB3D00"/>
<path d="M8.59144 12.4667H6.41964C6.21975 12.4667 6.05768 12.6308 6.05768 12.8333V15.0333C6.05768 15.2358 6.21975 15.4 6.41964 15.4H8.59144C8.79133 15.4 8.9534 15.2358 8.9534 15.0333V12.8333C8.9534 12.6308 8.79133 12.4667 8.59144 12.4667ZM8.22947 14.6667H6.78161V13.2H8.22947V14.6667Z" fill="#EB3D00"/>
<path d="M15.4688 16.8667H17.6406C17.8405 16.8667 18.0025 16.7025 18.0025 16.5V14.3C18.0025 14.0975 17.8405 13.9333 17.6406 13.9333H15.4688C15.2689 13.9333 15.1068 14.0975 15.1068 14.3V16.5C15.1068 16.7025 15.2689 16.8667 15.4688 16.8667ZM15.8307 14.6667H17.2786V16.1333H15.8307V14.6667Z" fill="#EB3D00"/>
<path d="M15.4688 13.2H17.6406C17.8405 13.2 18.0025 13.0358 18.0025 12.8333V10.6333C18.0025 10.4308 17.8405 10.2667 17.6406 10.2667H15.4688C15.2689 10.2667 15.1068 10.4308 15.1068 10.6333V12.8333C15.1068 13.0358 15.2689 13.2 15.4688 13.2ZM15.8307 11H17.2786V12.4667H15.8307V11Z" fill="#EB3D00"/>
<path d="M15.4688 20.5333H17.6406C17.8405 20.5333 18.0025 20.3692 18.0025 20.1667V17.9667C18.0025 17.7642 17.8405 17.6 17.6406 17.6H15.4688C15.2689 17.6 15.1068 17.7642 15.1068 17.9667V20.1667C15.1068 20.3692 15.2689 20.5333 15.4688 20.5333ZM15.8307 18.3333H17.2786V19.8H15.8307V18.3333Z" fill="#EB3D00"/>
<path d="M11.8491 16.8667H14.0209C14.2208 16.8667 14.3828 16.7025 14.3828 16.5V14.3C14.3828 14.0975 14.2208 13.9333 14.0209 13.9333H11.8491C11.6492 13.9333 11.4871 14.0975 11.4871 14.3V16.5C11.4871 16.7025 11.6492 16.8667 11.8491 16.8667ZM12.2111 14.6667H13.6589V16.1333H12.2111V14.6667Z" fill="#EB3D00"/>
<path d="M11.8491 13.2H14.0209C14.2208 13.2 14.3828 13.0358 14.3828 12.8333V10.6333C14.3828 10.4308 14.2208 10.2667 14.0209 10.2667H11.8491C11.6492 10.2667 11.4871 10.4308 11.4871 10.6333V12.8333C11.4871 13.0358 11.6492 13.2 11.8491 13.2ZM12.2111 11H13.6589V12.4667H12.2111V11Z" fill="#EB3D00"/>
<path d="M11.8491 20.5333H14.0209C14.2208 20.5333 14.3828 20.3692 14.3828 20.1667V17.9667C14.3828 17.7642 14.2208 17.6 14.0209 17.6H11.8491C11.6492 17.6 11.4871 17.7642 11.4871 17.9667V20.1667C11.4871 20.3692 11.6492 20.5333 11.8491 20.5333ZM12.2111 18.3333H13.6589V19.8H12.2111V18.3333Z" fill="#EB3D00"/>
</svg>
