<svg width="16" height="17" viewBox="0 0 16 17" fill="none" xmlns="http://www.w3.org/2000/svg">
<path d="M3.65398 0C3.14758 0 2.7508 0.294984 2.7508 0.671566V1.41011H1.09565C0.805164 1.41045 0.526671 1.526 0.321269 1.73141C0.115867 1.93681 0.00032845 2.21531 0 2.5058V15.6591C0.000465497 15.9495 0.11608 16.2278 0.321481 16.433C0.526882 16.6382 0.805297 16.7536 1.09565 16.7538H14.8617C15.1519 16.7535 15.4302 16.638 15.6354 16.4328C15.8406 16.2276 15.956 15.9493 15.9564 15.6591V2.5058C15.9562 2.21544 15.8408 1.93701 15.6356 1.73161C15.4304 1.5262 15.1521 1.41058 14.8617 1.41011H13.2055V0.671566C13.2055 0.294984 12.8091 0 12.3033 0C11.7969 0 11.4001 0.294984 11.4001 0.671566V1.41011H8.88138V0.671566C8.88138 0.294984 8.48463 0 7.97819 0C7.47175 0 7.075 0.294984 7.075 0.671566V1.41011H4.5571V0.671566C4.55714 0.294984 4.16042 0 3.65398 0ZM3.30236 0.675668C3.31905 0.63954 3.4458 0.551566 3.65398 0.551566C3.86216 0.551566 3.98889 0.63954 4.00561 0.675668V1.41011H3.30236V0.675668ZM0.551428 4.85722H15.4048V13.0635H13.3491C13.2759 13.0635 13.2058 13.0925 13.154 13.1443C13.1023 13.196 13.0733 13.2661 13.0733 13.3393V15.3951H1.09565C0.951374 15.395 0.813053 15.3376 0.711047 15.2355C0.609041 15.1335 0.551684 14.9952 0.551566 14.8509L0.551428 4.85722ZM15.0147 13.6151L13.6248 15.005V13.615L15.0147 13.6151ZM14.8617 16.2022H1.09565C0.978613 16.2022 0.864711 16.1644 0.7708 16.0946C0.676889 16.0247 0.60796 15.9265 0.574214 15.8144C0.734238 15.9014 0.913518 15.9468 1.09565 15.9466H13.3491C13.4222 15.9466 13.4924 15.9176 13.5441 15.8659L15.4049 14.005V15.6591C15.4048 15.8031 15.3475 15.9412 15.2456 16.043C15.1438 16.1448 15.0057 16.2021 14.8617 16.2022ZM11.9517 0.675668C11.9682 0.639644 12.0948 0.551738 12.3034 0.551738C12.5114 0.551738 12.6377 0.639644 12.654 0.675633V1.41011H11.9518L11.9517 0.675668ZM7.62657 0.675668C7.64329 0.639575 7.77001 0.551566 7.97819 0.551566C8.18637 0.551566 8.31306 0.63954 8.32981 0.675668V1.41011H7.62657V0.675668ZM7.97819 3.13048C8.05133 3.13048 8.12148 3.10142 8.1732 3.0497C8.22492 2.99799 8.25397 2.92784 8.25397 2.8547C8.25397 2.78155 8.22492 2.71141 8.1732 2.65969C8.12148 2.60797 8.05133 2.57891 7.97819 2.57891C7.7708 2.57891 7.6438 2.4908 7.62657 2.45447V1.96168H11.4002V2.45888C11.4002 2.83546 11.7969 3.13045 12.3034 3.13045C12.3765 3.13045 12.4466 3.10139 12.4984 3.04967C12.5501 2.99795 12.5791 2.9278 12.5791 2.85466C12.5791 2.78152 12.5501 2.71137 12.4984 2.65965C12.4466 2.60793 12.3765 2.57888 12.3034 2.57888C12.0955 2.57888 11.9687 2.49084 11.9517 2.4546V1.96164H14.8617C15.0058 1.96194 15.1439 2.01939 15.2458 2.1214C15.3476 2.2234 15.4048 2.36163 15.4048 2.50576V4.30566H0.551566V2.5058C0.551712 2.36154 0.60908 2.22323 0.711084 2.12122C0.813087 2.01921 0.951392 1.96183 1.09565 1.96168H2.75086V2.45888C2.75086 2.83546 3.14758 3.13045 3.65405 3.13045C3.72719 3.13045 3.79734 3.10139 3.84906 3.04967C3.90078 2.99795 3.92984 2.9278 3.92984 2.85466C3.92984 2.78152 3.90078 2.71137 3.84906 2.65965C3.79734 2.60793 3.72719 2.57888 3.65405 2.57888C3.44666 2.57888 3.31967 2.49077 3.30243 2.45443V1.96168H7.075V2.45888C7.075 2.83546 7.47175 3.13048 7.97819 3.13048ZM5.68271 8.1377H7.086C7.15914 8.1377 7.22929 8.10864 7.281 8.05692C7.33272 8.0052 7.36178 7.93505 7.36178 7.86191V6.62379C7.36178 6.55064 7.33272 6.4805 7.281 6.42878C7.22929 6.37706 7.15914 6.348 7.086 6.348H5.68271C5.60957 6.348 5.53942 6.37706 5.4877 6.42878C5.43598 6.4805 5.40693 6.55064 5.40693 6.62379V7.86191C5.40693 7.93505 5.43598 8.0052 5.4877 8.05692C5.53942 8.10864 5.60957 8.1377 5.68271 8.1377ZM5.95849 6.89957H6.81021V7.58613H5.95849V6.89957ZM8.87038 8.1377H10.2736C10.3468 8.1377 10.4169 8.10864 10.4686 8.05692C10.5204 8.0052 10.5494 7.93505 10.5494 7.86191V6.62379C10.5494 6.55064 10.5204 6.4805 10.4686 6.42878C10.4169 6.37706 10.3468 6.348 10.2736 6.348H8.87038C8.79724 6.348 8.72709 6.37706 8.67537 6.42878C8.62365 6.4805 8.5946 6.55064 8.5946 6.62379V7.86191C8.5946 7.93505 8.62365 8.0052 8.67537 8.05692C8.72709 8.10864 8.79724 8.1377 8.87038 8.1377ZM9.14616 6.89957H9.99785V7.58613H9.14616V6.89957ZM2.49504 11.1671H3.89926C3.9724 11.1671 4.04255 11.138 4.09427 11.0863C4.14598 11.0346 4.17504 10.9644 4.17504 10.8913V9.65412C4.17504 9.58098 4.14598 9.51083 4.09427 9.45911C4.04255 9.40739 3.9724 9.37834 3.89926 9.37834H2.49504C2.4219 9.37834 2.35175 9.40739 2.30003 9.45911C2.24831 9.51083 2.21926 9.58098 2.21926 9.65412V10.8913C2.21926 10.9644 2.24831 11.0346 2.30003 11.0863C2.35175 11.138 2.4219 11.1671 2.49504 11.1671ZM2.77082 9.9299H3.62348V10.6155H2.77082V9.9299ZM5.68271 11.1671H7.086C7.15914 11.1671 7.22929 11.138 7.281 11.0863C7.33272 11.0346 7.36178 10.9644 7.36178 10.8913V9.65412C7.36178 9.58098 7.33272 9.51083 7.281 9.45911C7.22929 9.40739 7.15914 9.37834 7.086 9.37834H5.68271C5.60957 9.37834 5.53942 9.40739 5.4877 9.45911C5.43598 9.51083 5.40693 9.58098 5.40693 9.65412V10.8913C5.40693 10.9644 5.43598 11.0346 5.4877 11.0863C5.53942 11.138 5.60957 11.1671 5.68271 11.1671ZM5.95849 9.9299H6.81021V10.6155H5.95849V9.9299ZM8.87038 11.1671H10.2736C10.3468 11.1671 10.4169 11.138 10.4686 11.0863C10.5204 11.0346 10.5494 10.9644 10.5494 10.8913V9.65412C10.5494 9.58098 10.5204 9.51083 10.4686 9.45911C10.4169 9.40739 10.3468 9.37834 10.2736 9.37834H8.87038C8.79724 9.37834 8.72709 9.40739 8.67537 9.45911C8.62365 9.51083 8.5946 9.58098 8.5946 9.65412V10.8913C8.5946 10.9644 8.62365 11.0346 8.67537 11.0863C8.72709 11.138 8.79724 11.1671 8.87038 11.1671ZM9.14616 9.9299H9.99785V10.6155H9.14616V9.9299ZM2.49504 14.1964H3.89926C3.9724 14.1964 4.04255 14.1674 4.09427 14.1157C4.14598 14.0639 4.17504 13.9938 4.17504 13.9207V12.6835C4.17504 12.6103 4.14598 12.5402 4.09427 12.4885C4.04255 12.4368 3.9724 12.4077 3.89926 12.4077H2.49504C2.4219 12.4077 2.35175 12.4368 2.30003 12.4885C2.24831 12.5402 2.21926 12.6103 2.21926 12.6835V13.9207C2.21926 13.9938 2.24831 14.0639 2.30003 14.1157C2.35175 14.1674 2.4219 14.1964 2.49504 14.1964ZM2.77082 12.9593H3.62348V13.6449H2.77082V12.9593ZM5.68271 14.1964H7.086C7.15914 14.1964 7.22929 14.1674 7.281 14.1157C7.33272 14.0639 7.36178 13.9938 7.36178 13.9207V12.6835C7.36178 12.6103 7.33272 12.5402 7.281 12.4885C7.22929 12.4368 7.15914 12.4077 7.086 12.4077H5.68271C5.60957 12.4077 5.53942 12.4368 5.4877 12.4885C5.43598 12.5402 5.40693 12.6103 5.40693 12.6835V13.9207C5.40693 13.9938 5.43598 14.0639 5.4877 14.1157C5.53942 14.1674 5.60957 14.1964 5.68271 14.1964ZM5.95849 12.9593H6.81021V13.6449H5.95849V12.9593ZM2.49504 8.1377H3.89926C3.9724 8.1377 4.04255 8.10864 4.09427 8.05692C4.14598 8.0052 4.17504 7.93505 4.17504 7.86191V6.62379C4.17504 6.55064 4.14598 6.4805 4.09427 6.42878C4.04255 6.37706 3.9724 6.348 3.89926 6.348H2.49504C2.4219 6.348 2.35175 6.37706 2.30003 6.42878C2.24831 6.4805 2.21926 6.55064 2.21926 6.62379V7.86191C2.21926 7.93505 2.24831 8.0052 2.30003 8.05692C2.35175 8.10864 2.4219 8.1377 2.49504 8.1377ZM2.77082 6.89957H3.62348V7.58613H2.77082V6.89957ZM13.4613 9.37834H12.058C11.9849 9.37834 11.9148 9.40739 11.863 9.45911C11.8113 9.51083 11.7823 9.58098 11.7823 9.65412V10.8913C11.7823 10.9644 11.8113 11.0346 11.863 11.0863C11.9148 11.138 11.9849 11.1671 12.058 11.1671H13.4613C13.5345 11.1671 13.6046 11.138 13.6563 11.0863C13.7081 11.0346 13.7371 10.9644 13.7371 10.8913V9.65412C13.7371 9.58098 13.7081 9.51083 13.6563 9.45911C13.6046 9.40739 13.5345 9.37834 13.4613 9.37834ZM13.1856 10.6155H12.3338V9.9299H13.1856V10.6155ZM8.87038 14.1964H10.2736C10.3468 14.1964 10.4169 14.1674 10.4686 14.1157C10.5204 14.0639 10.5494 13.9938 10.5494 13.9207V12.6835C10.5494 12.6103 10.5204 12.5402 10.4686 12.4885C10.4169 12.4368 10.3468 12.4077 10.2736 12.4077H8.87038C8.79724 12.4077 8.72709 12.4368 8.67537 12.4885C8.62365 12.5402 8.5946 12.6103 8.5946 12.6835V13.9207C8.5946 13.9938 8.62365 14.0639 8.67537 14.1157C8.72709 14.1674 8.79724 14.1964 8.87038 14.1964ZM9.14616 12.9593H9.99785V13.6449H9.14616V12.9593ZM11.8247 7.41652C11.7988 7.39105 11.7782 7.36071 11.764 7.32724C11.7499 7.29377 11.7425 7.25784 11.7423 7.22151C11.7421 7.18518 11.749 7.14916 11.7628 7.11553C11.7765 7.0819 11.7968 7.05131 11.8224 7.02554C11.848 6.99976 11.8784 6.97929 11.912 6.96531C11.9455 6.95134 11.9815 6.94413 12.0178 6.9441C12.0541 6.94406 12.0901 6.95121 12.1237 6.96513C12.1573 6.97904 12.1877 6.99945 12.2134 7.02519L12.5682 7.3776L13.29 6.52478C13.3372 6.46894 13.4047 6.43417 13.4776 6.4281C13.5505 6.42203 13.6228 6.44516 13.6787 6.49241C13.7345 6.53966 13.7693 6.60715 13.7753 6.68005C13.7814 6.75294 13.7583 6.82526 13.711 6.88109L12.7964 7.96188C12.7717 7.99097 12.7414 8.01464 12.7072 8.0314C12.6729 8.04816 12.6356 8.05765 12.5975 8.05927C12.5936 8.05927 12.5896 8.05951 12.5857 8.05951C12.5128 8.05951 12.443 8.03071 12.3913 7.9794L11.8247 7.41652Z" fill="#EB3D00"/>
</svg>
