<svg width="26" height="26" viewBox="0 0 26 26" fill="none" xmlns="http://www.w3.org/2000/svg">
<path d="M22.7827 3.19805H20.7842V2.39863C20.7842 1.9746 20.6157 1.56793 20.3159 1.26809C20.016 0.968252 19.6094 0.799805 19.1853 0.799805C18.7613 0.799805 18.3546 0.968252 18.0548 1.26809C17.755 1.56793 17.5865 1.9746 17.5865 2.39863V3.19805H14.3889V2.39863C14.3889 1.9746 14.2204 1.56793 13.9206 1.26809C13.6207 0.968252 13.2141 0.799805 12.79 0.799805C12.366 0.799805 11.9593 0.968252 11.6595 1.26809C11.3597 1.56793 11.1912 1.9746 11.1912 2.39863V3.19805H7.99355V2.39863C7.99355 1.9746 7.8251 1.56793 7.52527 1.26809C7.22543 0.968252 6.81876 0.799805 6.39472 0.799805C5.97069 0.799805 5.56402 0.968252 5.26418 1.26809C4.96434 1.56793 4.7959 1.9746 4.7959 2.39863V3.19805H2.79736C2.26732 3.19805 1.75898 3.40861 1.38419 3.7834C1.00939 4.1582 0.798828 4.66654 0.798828 5.19658V21.1849C0.798828 21.7149 1.00939 22.2232 1.38419 22.598C1.75898 22.9728 2.26732 23.1834 2.79736 23.1834H13.9892C14.0952 23.1834 14.1968 23.1413 14.2718 23.0663C14.3468 22.9914 14.3889 22.8897 14.3889 22.7837C14.3889 22.6777 14.3468 22.576 14.2718 22.501C14.1968 22.4261 14.0952 22.384 13.9892 22.384H2.79736C2.47963 22.383 2.17518 22.2564 1.9505 22.0317C1.72583 21.807 1.59919 21.5026 1.59824 21.1849V8.79394H23.9818V15.589C23.9818 15.695 24.0239 15.7966 24.0989 15.8716C24.1739 15.9466 24.2755 15.9887 24.3815 15.9887C24.4875 15.9887 24.5892 15.9466 24.6642 15.8716C24.7391 15.7966 24.7812 15.695 24.7812 15.589V5.19658C24.7812 4.66654 24.5707 4.1582 24.1959 3.7834C23.8211 3.40861 23.3127 3.19805 22.7827 3.19805ZM18.3859 2.39863C18.3859 2.18661 18.4702 1.98328 18.6201 1.83336C18.77 1.68344 18.9733 1.59922 19.1853 1.59922C19.3974 1.59922 19.6007 1.68344 19.7506 1.83336C19.9005 1.98328 19.9848 2.18661 19.9848 2.39863V4.79687C19.9848 5.00889 19.9005 5.21222 19.7506 5.36214C19.6007 5.51206 19.3974 5.59629 19.1853 5.59629C18.9733 5.59629 18.77 5.51206 18.6201 5.36214C18.4702 5.21222 18.3859 5.00889 18.3859 4.79687V2.39863ZM11.9906 2.39863C11.9906 2.18661 12.0748 1.98328 12.2248 1.83336C12.3747 1.68344 12.578 1.59922 12.79 1.59922C13.0021 1.59922 13.2054 1.68344 13.3553 1.83336C13.5052 1.98328 13.5894 2.18661 13.5894 2.39863V4.79687C13.5894 5.00889 13.5052 5.21222 13.3553 5.36214C13.2054 5.51206 13.0021 5.59629 12.79 5.59629C12.578 5.59629 12.3747 5.51206 12.2248 5.36214C12.0748 5.21222 11.9906 5.00889 11.9906 4.79687V2.39863ZM5.59531 2.39863C5.59531 2.18661 5.67953 1.98328 5.82945 1.83336C5.97937 1.68344 6.18271 1.59922 6.39472 1.59922C6.60674 1.59922 6.81008 1.68344 6.96 1.83336C7.10991 1.98328 7.19414 2.18661 7.19414 2.39863V4.79687C7.19414 5.00889 7.10991 5.21222 6.96 5.36214C6.81008 5.51206 6.60674 5.59629 6.39472 5.59629C6.18271 5.59629 5.97937 5.51206 5.82945 5.36214C5.67953 5.21222 5.59531 5.00889 5.59531 4.79687V2.39863ZM23.9818 7.99453H1.59824V5.19658C1.59919 4.87885 1.72583 4.5744 1.9505 4.34972C2.17518 4.12505 2.47963 3.99841 2.79736 3.99746H4.7959V4.79687C4.7959 5.22091 4.96434 5.62758 5.26418 5.92742C5.56402 6.22725 5.97069 6.3957 6.39472 6.3957C6.81876 6.3957 7.22543 6.22725 7.52527 5.92742C7.8251 5.62758 7.99355 5.22091 7.99355 4.79687V3.99746H11.1912V4.79687C11.1912 5.22091 11.3597 5.62758 11.6595 5.92742C11.9593 6.22725 12.366 6.3957 12.79 6.3957C13.2141 6.3957 13.6207 6.22725 13.9206 5.92742C14.2204 5.62758 14.3889 5.22091 14.3889 4.79687V3.99746H17.5865V4.79687C17.5865 5.22091 17.755 5.62758 18.0548 5.92742C18.3546 6.22725 18.7613 6.3957 19.1853 6.3957C19.6094 6.3957 20.016 6.22725 20.3159 5.92742C20.6157 5.62758 20.7842 5.22091 20.7842 4.79687V3.99746H22.7827C23.1004 3.99841 23.4049 4.12505 23.6296 4.34972C23.8542 4.5744 23.9809 4.87885 23.9818 5.19658V7.99453Z" fill="#EB3D00"/>
<path d="M11.9906 11.5914C11.9906 11.3794 11.9064 11.1761 11.7565 11.0261C11.6066 10.8762 11.4032 10.792 11.1912 10.792H9.59238C9.38036 10.792 9.17703 10.8762 9.02711 11.0261C8.87719 11.1761 8.79297 11.3794 8.79297 11.5914V12.7905C8.79297 13.0025 8.87719 13.2059 9.02711 13.3558C9.17703 13.5057 9.38036 13.5899 9.59238 13.5899H11.1912C11.4032 13.5899 11.6066 13.5057 11.7565 13.3558C11.9064 13.2059 11.9906 13.0025 11.9906 12.7905V11.5914ZM9.59238 12.7905V11.5914H11.1912V12.7905H9.59238Z" fill="#EB3D00"/>
<path d="M7.19375 11.5914C7.19375 11.3794 7.10952 11.1761 6.95961 11.0261C6.80969 10.8762 6.60635 10.792 6.39434 10.792H4.79551C4.58349 10.792 4.38016 10.8762 4.23024 11.0261C4.08032 11.1761 3.99609 11.3794 3.99609 11.5914V12.7905C3.99609 13.0025 4.08032 13.2059 4.23024 13.3558C4.38016 13.5057 4.58349 13.5899 4.79551 13.5899H6.39434C6.60635 13.5899 6.80969 13.5057 6.95961 13.3558C7.10952 13.2059 7.19375 13.0025 7.19375 12.7905V11.5914ZM4.79551 12.7905V11.5914H6.39434V12.7905H4.79551Z" fill="#EB3D00"/>
<path d="M20.785 13.5899C20.997 13.5899 21.2003 13.5057 21.3502 13.3558C21.5002 13.2059 21.5844 13.0025 21.5844 12.7905V11.5914C21.5844 11.3794 21.5002 11.1761 21.3502 11.0261C21.2003 10.8762 20.997 10.792 20.785 10.792H19.1861C18.9741 10.792 18.7708 10.8762 18.6209 11.0261C18.4709 11.1761 18.3867 11.3794 18.3867 11.5914V12.7905C18.3867 13.0025 18.4709 13.2059 18.6209 13.3558C18.7708 13.5057 18.9741 13.5899 19.1861 13.5899H20.785ZM19.1861 11.5914H20.785V12.7905H19.1861V11.5914Z" fill="#EB3D00"/>
<path d="M11.9906 15.1891C11.9906 14.977 11.9064 14.7737 11.7565 14.6238C11.6066 14.4739 11.4032 14.3896 11.1912 14.3896H9.59238C9.38036 14.3896 9.17703 14.4739 9.02711 14.6238C8.87719 14.7737 8.79297 14.977 8.79297 15.1891V16.3882C8.79297 16.6002 8.87719 16.8035 9.02711 16.9535C9.17703 17.1034 9.38036 17.1876 9.59238 17.1876H11.1912C11.4032 17.1876 11.6066 17.1034 11.7565 16.9535C11.9064 16.8035 11.9906 16.6002 11.9906 16.3882V15.1891ZM9.59238 16.3882V15.1891H11.1912V16.3882H9.59238Z" fill="#EB3D00"/>
<path d="M7.19375 15.1891C7.19375 14.977 7.10952 14.7737 6.95961 14.6238C6.80969 14.4739 6.60635 14.3896 6.39434 14.3896H4.79551C4.58349 14.3896 4.38016 14.4739 4.23024 14.6238C4.08032 14.7737 3.99609 14.977 3.99609 15.1891V16.3882C3.99609 16.6002 4.08032 16.8035 4.23024 16.9535C4.38016 17.1034 4.58349 17.1876 4.79551 17.1876H6.39434C6.60635 17.1876 6.80969 17.1034 6.95961 16.9535C7.10952 16.8035 7.19375 16.6002 7.19375 16.3882V15.1891ZM4.79551 16.3882V15.1891H6.39434V16.3882H4.79551Z" fill="#EB3D00"/>
<path d="M11.1912 17.9873H9.59238C9.38036 17.9873 9.17703 18.0715 9.02711 18.2214C8.87719 18.3714 8.79297 18.5747 8.79297 18.7867V19.9858C8.79297 20.1979 8.87719 20.4012 9.02711 20.5511C9.17703 20.701 9.38036 20.7853 9.59238 20.7853H11.1912C11.4032 20.7853 11.6066 20.701 11.7565 20.5511C11.9064 20.4012 11.9906 20.1979 11.9906 19.9858V18.7867C11.9906 18.5747 11.9064 18.3714 11.7565 18.2214C11.6066 18.0715 11.4032 17.9873 11.1912 17.9873ZM9.59238 19.9858V18.7867H11.1912V19.9858H9.59238Z" fill="#EB3D00"/>
<path d="M14.3893 13.5899H15.9881C16.2001 13.5899 16.4034 13.5057 16.5534 13.3558C16.7033 13.2059 16.7875 13.0025 16.7875 12.7905V11.5914C16.7875 11.3794 16.7033 11.1761 16.5534 11.0261C16.4034 10.8762 16.2001 10.792 15.9881 10.792H14.3893C14.1772 10.792 13.9739 10.8762 13.824 11.0261C13.6741 11.1761 13.5898 11.3794 13.5898 11.5914V12.7905C13.5898 13.0025 13.6741 13.2059 13.824 13.3558C13.9739 13.5057 14.1772 13.5899 14.3893 13.5899ZM14.3893 11.5914H15.9881V12.7905H14.3893V11.5914Z" fill="#EB3D00"/>
<path d="M13.5898 16.3882C13.5898 16.6002 13.6741 16.8035 13.824 16.9535C13.9739 17.1034 14.1772 17.1876 14.3893 17.1876C14.4953 17.1876 14.5969 17.1455 14.6719 17.0705C14.7469 16.9956 14.789 16.8939 14.789 16.7879C14.789 16.6819 14.7469 16.5802 14.6719 16.5053C14.5969 16.4303 14.4953 16.3882 14.3893 16.3882V15.1891H15.9881C16.0941 15.1891 16.1958 15.147 16.2707 15.072C16.3457 14.997 16.3878 14.8954 16.3878 14.7894C16.3878 14.6833 16.3457 14.5817 16.2707 14.5067C16.1958 14.4318 16.0941 14.3896 15.9881 14.3896H14.3893C14.1772 14.3896 13.9739 14.4739 13.824 14.6238C13.6741 14.7737 13.5898 14.977 13.5898 15.1891V16.3882Z" fill="#EB3D00"/>
<path d="M6.39434 17.9873H4.79551C4.58349 17.9873 4.38016 18.0715 4.23024 18.2214C4.08032 18.3714 3.99609 18.5747 3.99609 18.7867V19.9858C3.99609 20.1979 4.08032 20.4012 4.23024 20.5511C4.38016 20.701 4.58349 20.7853 4.79551 20.7853H6.39434C6.60635 20.7853 6.80969 20.701 6.95961 20.5511C7.10952 20.4012 7.19375 20.1979 7.19375 19.9858V18.7867C7.19375 18.5747 7.10952 18.3714 6.95961 18.2214C6.80969 18.0715 6.60635 17.9873 6.39434 17.9873ZM4.79551 19.9858V18.7867H6.39434V19.9858H4.79551Z" fill="#EB3D00"/>
<path d="M19.5849 14.3896C18.5572 14.3896 17.5525 14.6944 16.698 15.2654C15.8435 15.8363 15.1775 16.6479 14.7842 17.5973C14.3909 18.5468 14.288 19.5916 14.4885 20.5996C14.689 21.6075 15.1839 22.5334 15.9106 23.2601C16.6373 23.9868 17.5632 24.4817 18.5711 24.6822C19.5791 24.8827 20.6239 24.7798 21.5734 24.3865C22.5228 23.9932 23.3344 23.3272 23.9053 22.4727C24.4763 21.6182 24.7811 20.6135 24.7811 19.5858C24.7795 18.2082 24.2315 16.8875 23.2574 15.9133C22.2832 14.9392 20.9625 14.3912 19.5849 14.3896ZM19.5849 23.9826C18.7153 23.9826 17.8652 23.7247 17.1421 23.2416C16.4191 22.7585 15.8556 22.0718 15.5228 21.2684C15.19 20.465 15.1029 19.581 15.2726 18.7281C15.4422 17.8752 15.861 17.0917 16.4759 16.4768C17.0908 15.8619 17.8742 15.4432 18.7271 15.2735C19.58 15.1039 20.464 15.191 21.2674 15.5237C22.0708 15.8565 22.7575 16.4201 23.2406 17.1431C23.7238 17.8662 23.9816 18.7162 23.9816 19.5858C23.9803 20.7515 23.5166 21.8691 22.6923 22.6933C21.8681 23.5176 20.7505 23.9812 19.5849 23.9826Z" fill="#EB3D00"/>
<path d="M21.8946 17.9101L18.7857 21.019L17.3727 19.6056C17.2973 19.5328 17.1963 19.4925 17.0915 19.4934C16.9867 19.4943 16.8865 19.5364 16.8124 19.6105C16.7383 19.6846 16.6962 19.7848 16.6953 19.8896C16.6944 19.9944 16.7347 20.0954 16.8075 20.1708L18.5031 21.8668C18.578 21.9417 18.6797 21.9838 18.7857 21.9838C18.8917 21.9838 18.9933 21.9417 19.0683 21.8668L22.4598 18.4752C22.5326 18.3999 22.5729 18.2989 22.572 18.1941C22.571 18.0893 22.529 17.989 22.4549 17.9149C22.3808 17.8408 22.2805 17.7988 22.1757 17.7979C22.0709 17.797 21.97 17.8372 21.8946 17.9101Z" fill="#EB3D00"/>
</svg>
