<svg width="24" height="26" viewBox="0 0 24 26" fill="none" xmlns="http://www.w3.org/2000/svg">
<path d="M5.49596 0C4.73427 0 4.13747 0.443686 4.13747 1.0101V2.12095H1.64797C1.21105 2.12146 0.792167 2.29525 0.483221 2.60421C0.174276 2.91316 0.000494023 3.33205 0 3.76897V23.5529C0.000700155 23.9896 0.174596 24.4082 0.48354 24.7169C0.792484 25.0256 1.21125 25.1991 1.64797 25.1994H22.3535C22.79 25.1989 23.2085 25.0253 23.5172 24.7166C23.8259 24.4079 23.9995 23.9894 24 23.5529V3.76897C23.9997 3.33224 23.8262 2.91346 23.5175 2.60451C23.2088 2.29555 22.7902 2.12165 22.3535 2.12095H19.8624V1.0101C19.8624 0.443686 19.2661 0 18.5054 0C17.7437 0 17.147 0.443686 17.147 1.0101V2.12095H13.3585V1.0101C13.3585 0.443686 12.7617 0 12 0C11.2383 0 10.6415 0.443686 10.6415 1.0101V2.12095H6.85434V1.0101C6.8544 0.443686 6.2577 0 5.49596 0ZM4.96708 1.01627C4.99218 0.961933 5.18283 0.82961 5.49596 0.82961C5.80909 0.82961 5.99969 0.961933 6.02484 1.01627V2.12095H4.96708V1.01627ZM0.829403 7.30575H23.1704V19.6488H20.0783C19.9683 19.6488 19.8628 19.6925 19.785 19.7703C19.7072 19.8481 19.6635 19.9536 19.6635 20.0636V23.1558H1.64797C1.43096 23.1556 1.22291 23.0693 1.06949 22.9158C0.916059 22.7623 0.829789 22.5543 0.82961 22.3373L0.829403 7.30575ZM22.5836 20.4784L20.4931 22.5691V20.4783L22.5836 20.4784ZM22.3535 24.3698H1.64797C1.47193 24.3697 1.30061 24.3129 1.15936 24.2078C1.01811 24.1028 0.914433 23.955 0.863676 23.7865C1.10437 23.9173 1.37402 23.9857 1.64797 23.9853H20.0783C20.1884 23.9853 20.2939 23.9416 20.3717 23.8638L23.1705 21.0649V23.5529C23.1703 23.7695 23.0841 23.9772 22.931 24.1303C22.7778 24.2835 22.5701 24.3696 22.3535 24.3698ZM17.9766 1.01627C18.0013 0.962089 18.1917 0.829869 18.5055 0.829869C18.8184 0.829869 19.0084 0.962089 19.0329 1.01622V2.12095H17.9767L17.9766 1.01627ZM11.4711 1.01627C11.4963 0.961985 11.6869 0.82961 12 0.82961C12.3131 0.82961 12.5037 0.961933 12.5289 1.01627V2.12095H11.4711V1.01627ZM12 4.70856C12.11 4.70856 12.2155 4.66485 12.2933 4.58706C12.3711 4.50927 12.4148 4.40376 12.4148 4.29375C12.4148 4.18374 12.3711 4.07823 12.2933 4.00044C12.2155 3.92265 12.11 3.87895 12 3.87895C11.6881 3.87895 11.4971 3.74642 11.4711 3.69177V2.95056H17.147V3.6984C17.147 4.26482 17.7437 4.7085 18.5055 4.7085C18.6155 4.7085 18.721 4.6648 18.7988 4.58701C18.8766 4.50922 18.9203 4.40371 18.9203 4.2937C18.9203 4.18369 18.8766 4.07818 18.7988 4.00039C18.721 3.9226 18.6155 3.87889 18.5055 3.87889C18.1929 3.87889 18.0021 3.74647 17.9766 3.69197V2.95051H22.3535C22.5703 2.95095 22.778 3.03736 22.9312 3.19079C23.0843 3.34422 23.1703 3.55214 23.1704 3.76892V6.47614H0.82961V3.76897C0.82983 3.55199 0.916118 3.34396 1.06954 3.19053C1.22296 3.0371 1.43099 2.95079 1.64797 2.95056H4.13758V3.6984C4.13758 4.26482 4.73427 4.7085 5.49606 4.7085C5.60608 4.7085 5.71158 4.6648 5.78938 4.58701C5.86717 4.50922 5.91087 4.40371 5.91087 4.2937C5.91087 4.18369 5.86717 4.07818 5.78938 4.00039C5.71158 3.9226 5.60608 3.87889 5.49606 3.87889C5.18413 3.87889 4.99311 3.74636 4.96719 3.69171V2.95056H10.6415V3.6984C10.6415 4.26482 11.2383 4.70856 12 4.70856ZM8.54737 12.2399H10.6581C10.7681 12.2399 10.8736 12.1962 10.9514 12.1184C11.0292 12.0406 11.0729 11.9351 11.0729 11.8251V9.96284C11.0729 9.85283 11.0292 9.74732 10.9514 9.66953C10.8736 9.59174 10.7681 9.54804 10.6581 9.54804H8.54737C8.43736 9.54804 8.33185 9.59174 8.25406 9.66953C8.17627 9.74732 8.13257 9.85283 8.13257 9.96284V11.8251C8.13257 11.9351 8.17627 12.0406 8.25406 12.1184C8.33185 12.1962 8.43736 12.2399 8.54737 12.2399ZM8.96218 10.3776H10.2432V11.4103H8.96218V10.3776ZM13.3419 12.2399H15.4526C15.5626 12.2399 15.6681 12.1962 15.7459 12.1184C15.8237 12.0406 15.8674 11.9351 15.8674 11.8251V9.96284C15.8674 9.85283 15.8237 9.74732 15.7459 9.66953C15.6681 9.59174 15.5626 9.54804 15.4526 9.54804H13.3419C13.2319 9.54804 13.1264 9.59174 13.0486 9.66953C12.9708 9.74732 12.9271 9.85283 12.9271 9.96284V11.8251C12.9271 11.9351 12.9708 12.0406 13.0486 12.1184C13.1264 12.1962 13.2319 12.2399 13.3419 12.2399ZM13.7568 10.3776H15.0378V11.4103H13.7568V10.3776ZM3.75279 16.7964H5.86488C5.97489 16.7964 6.0804 16.7527 6.15819 16.6749C6.23598 16.5971 6.27968 16.4916 6.27968 16.3816V14.5208C6.27968 14.4108 6.23598 14.3053 6.15819 14.2275C6.0804 14.1497 5.97489 14.106 5.86488 14.106H3.75279C3.64278 14.106 3.53727 14.1497 3.45948 14.2275C3.38169 14.3053 3.33799 14.4108 3.33799 14.5208V16.3816C3.33799 16.4916 3.38169 16.5971 3.45948 16.6749C3.53727 16.7527 3.64278 16.7964 3.75279 16.7964ZM4.1676 14.9356H5.45007V15.9668H4.1676V14.9356ZM8.54737 16.7964H10.6581C10.7681 16.7964 10.8736 16.7527 10.9514 16.6749C11.0292 16.5971 11.0729 16.4916 11.0729 16.3816V14.5208C11.0729 14.4108 11.0292 14.3053 10.9514 14.2275C10.8736 14.1497 10.7681 14.106 10.6581 14.106H8.54737C8.43736 14.106 8.33185 14.1497 8.25406 14.2275C8.17627 14.3053 8.13257 14.4108 8.13257 14.5208V16.3816C8.13257 16.4916 8.17627 16.5971 8.25406 16.6749C8.33185 16.7527 8.43736 16.7964 8.54737 16.7964ZM8.96218 14.9356H10.2432V15.9668H8.96218V14.9356ZM13.3419 16.7964H15.4526C15.5626 16.7964 15.6681 16.7527 15.7459 16.6749C15.8237 16.5971 15.8674 16.4916 15.8674 16.3816V14.5208C15.8674 14.4108 15.8237 14.3053 15.7459 14.2275C15.6681 14.1497 15.5626 14.106 15.4526 14.106H13.3419C13.2319 14.106 13.1264 14.1497 13.0486 14.2275C12.9708 14.3053 12.9271 14.4108 12.9271 14.5208V16.3816C12.9271 16.4916 12.9708 16.5971 13.0486 16.6749C13.1264 16.7527 13.2319 16.7964 13.3419 16.7964ZM13.7568 14.9356H15.0378V15.9668H13.7568V14.9356ZM3.75279 21.3529H5.86488C5.97489 21.3529 6.0804 21.3092 6.15819 21.2314C6.23598 21.1536 6.27968 21.0481 6.27968 20.9381V19.0772C6.27968 18.9672 6.23598 18.8617 6.15819 18.7839C6.0804 18.7061 5.97489 18.6624 5.86488 18.6624H3.75279C3.64278 18.6624 3.53727 18.7061 3.45948 18.7839C3.38169 18.8617 3.33799 18.9672 3.33799 19.0772V20.9381C3.33799 21.0481 3.38169 21.1536 3.45948 21.2314C3.53727 21.3092 3.64278 21.3529 3.75279 21.3529ZM4.1676 19.4921H5.45007V20.5233H4.1676V19.4921ZM8.54737 21.3529H10.6581C10.7681 21.3529 10.8736 21.3092 10.9514 21.2314C11.0292 21.1536 11.0729 21.0481 11.0729 20.9381V19.0772C11.0729 18.9672 11.0292 18.8617 10.9514 18.7839C10.8736 18.7061 10.7681 18.6624 10.6581 18.6624H8.54737C8.43736 18.6624 8.33185 18.7061 8.25406 18.7839C8.17627 18.8617 8.13257 18.9672 8.13257 19.0772V20.9381C8.13257 21.0481 8.17627 21.1536 8.25406 21.2314C8.33185 21.3092 8.43736 21.3529 8.54737 21.3529ZM8.96218 19.4921H10.2432V20.5233H8.96218V19.4921ZM3.75279 12.2399H5.86488C5.97489 12.2399 6.0804 12.1962 6.15819 12.1184C6.23598 12.0406 6.27968 11.9351 6.27968 11.8251V9.96284C6.27968 9.85283 6.23598 9.74732 6.15819 9.66953C6.0804 9.59174 5.97489 9.54804 5.86488 9.54804H3.75279C3.64278 9.54804 3.53727 9.59174 3.45948 9.66953C3.38169 9.74732 3.33799 9.85283 3.33799 9.96284V11.8251C3.33799 11.9351 3.38169 12.0406 3.45948 12.1184C3.53727 12.1962 3.64278 12.2399 3.75279 12.2399ZM4.1676 10.3776H5.45007V11.4103H4.1676V10.3776ZM20.2472 14.106H18.1365C18.0265 14.106 17.921 14.1497 17.8432 14.2275C17.7654 14.3053 17.7217 14.4108 17.7217 14.5208V16.3816C17.7217 16.4916 17.7654 16.5971 17.8432 16.6749C17.921 16.7527 18.0265 16.7964 18.1365 16.7964H20.2472C20.3572 16.7964 20.4627 16.7527 20.5405 16.6749C20.6183 16.5971 20.662 16.4916 20.662 16.3816V14.5208C20.662 14.4108 20.6183 14.3053 20.5405 14.2275C20.4627 14.1497 20.3572 14.106 20.2472 14.106ZM19.8324 15.9668H18.5513V14.9356H19.8324V15.9668ZM13.3419 21.3529H15.4526C15.5626 21.3529 15.6681 21.3092 15.7459 21.2314C15.8237 21.1536 15.8674 21.0481 15.8674 20.9381V19.0772C15.8674 18.9672 15.8237 18.8617 15.7459 18.7839C15.6681 18.7061 15.5626 18.6624 15.4526 18.6624H13.3419C13.2319 18.6624 13.1264 18.7061 13.0486 18.7839C12.9708 18.8617 12.9271 18.9672 12.9271 19.0772V20.9381C12.9271 21.0481 12.9708 21.1536 13.0486 21.2314C13.1264 21.3092 13.2319 21.3529 13.3419 21.3529ZM13.7568 19.4921H15.0378V20.5233H13.7568V19.4921ZM17.7855 11.1552C17.7466 11.1169 17.7156 11.0712 17.6943 11.0209C17.673 10.9706 17.6619 10.9165 17.6616 10.8619C17.6613 10.8072 17.6717 10.7531 17.6924 10.7025C17.7131 10.6519 17.7436 10.6059 17.7821 10.5671C17.8206 10.5283 17.8664 10.4976 17.9168 10.4765C17.9673 10.4555 18.0214 10.4447 18.076 10.4446C18.1307 10.4446 18.1848 10.4553 18.2353 10.4763C18.2857 10.4972 18.3316 10.5279 18.3702 10.5666L18.9039 11.0967L19.9895 9.81393C20.0605 9.72994 20.162 9.67764 20.2717 9.6685C20.3813 9.65937 20.4901 9.69417 20.5741 9.76524C20.6581 9.83631 20.7104 9.93783 20.7195 10.0475C20.7286 10.1571 20.6938 10.2659 20.6228 10.3499L19.247 11.9755C19.21 12.0192 19.1643 12.0548 19.1128 12.08C19.0614 12.1052 19.0052 12.1195 18.948 12.122C18.942 12.122 18.936 12.1223 18.9301 12.1223C18.8206 12.1223 18.7155 12.079 18.6378 12.0018L17.7855 11.1552Z" fill="#EB3D00"/>
</svg>
