<svg id="layer_1" enable-background="new 0 0 32 32" height="512" viewBox="0 0 32 32" width="512" xmlns="http://www.w3.org/2000/svg"><path d="m28.7939453 10.4736328c-.5439453.0917969-.9121094.6074219-.8203125 1.1518555.0214844.125.0263672.2495117.0263672.3745117v12c0 1.6542969-1.3457031 3-3 3h-18c-1.6542969 0-3-1.3457031-3-3v-12c0-1.6542969 1.3457031-3 3-3h3c.5527344 0 1-.4477539 1-1 0-1.6542969 1.3457031-3 3-3h4c.4033203 0 .8105469.0854492 1.1796875.246582.5078049.2216797 1.0966797-.0102539 1.3164062-.5161133.2216797-.5058594-.0097656-1.0957031-.515625-1.3168945-.6191406-.2705078-1.3046875-.4135742-1.9804687-.4135742h-4c-2.4150391 0-4.4345703 1.7207031-4.8994141 4h-2.1005859c-2.7568359 0-5 2.2431641-5 5v12c0 2.7568359 2.2431641 5 5 5h18c2.7568359 0 5-2.2431641 5-5v-12c0-.2353516-.0146484-.4702148-.0537109-.7055664-.0917969-.5444336-.6015625-.9130859-1.1523438-.8208008z"/><path d="m16 11c-3.859375 0-7 3.1401367-7 7s3.140625 7 7 7 7-3.1401367 7-7-3.140625-7-7-7zm0 12c-2.7568359 0-5-2.2431641-5-5s2.2431641-5 5-5 5 2.2431641 5 5-2.2431641 5-5 5z"/><path d="m26 2.206543c-.5527344 0-1 .4477539-1 1v1.793457h-1.7929688c-.5527344 0-1 .4477539-1 1s.4472656 1 1 1h1.7929688v1.793457c0 .5522461.4472656 1 1 1s1-.4477539 1-1v-1.793457h1.7929688c.5527344 0 1-.4477539 1-1s-.4472656-1-1-1h-1.7929688v-1.793457c0-.5522461-.4472656-1-1-1z"/></svg>