<svg width="17" height="17" viewBox="0 0 17 17" fill="none" xmlns="http://www.w3.org/2000/svg">
<g clip-path="url(#clip0_2249_420)">
<path d="M8.5001 16.1501C12.7251 16.1501 16.1501 12.7251 16.1501 8.5001C16.1501 4.27512 12.7251 0.850098 8.5001 0.850098C4.27512 0.850098 0.850098 4.27512 0.850098 8.5001C0.850098 12.7251 4.27512 16.1501 8.5001 16.1501Z" fill="#EE685C"/>
<path d="M11.1898 10.2281L9.46182 8.50015L11.1898 6.77216C11.253 6.70902 11.303 6.63406 11.3372 6.55155C11.3714 6.46905 11.389 6.38063 11.389 6.29133C11.389 6.20203 11.3714 6.11361 11.3372 6.0311C11.303 5.9486 11.253 5.87364 11.1898 5.8105C11.1267 5.74735 11.0517 5.69726 10.9692 5.66309C10.8867 5.62892 10.7983 5.61133 10.709 5.61133C10.6197 5.61133 10.5313 5.62892 10.4488 5.66309C10.3663 5.69726 10.2913 5.74735 10.2281 5.8105L8.50015 7.53849L6.77216 5.8105C6.70902 5.74735 6.63406 5.69726 6.55155 5.66309C6.46905 5.62892 6.38063 5.61133 6.29133 5.61133C6.20203 5.61133 6.11361 5.62892 6.0311 5.66309C5.9486 5.69726 5.87364 5.74735 5.8105 5.8105C5.74735 5.87364 5.69726 5.9486 5.66309 6.0311C5.62892 6.11361 5.61133 6.20203 5.61133 6.29133C5.61133 6.38063 5.62892 6.46905 5.66309 6.55155C5.69726 6.63406 5.74735 6.70902 5.8105 6.77216L7.53849 8.50015L5.8105 10.2281C5.74735 10.2913 5.69726 10.3663 5.66309 10.4488C5.62892 10.5313 5.61133 10.6197 5.61133 10.709C5.61133 10.7983 5.62892 10.8867 5.66309 10.9692C5.69726 11.0517 5.74735 11.1267 5.8105 11.1898C5.87364 11.253 5.9486 11.303 6.0311 11.3372C6.11361 11.3714 6.20203 11.389 6.29133 11.389C6.38063 11.389 6.46905 11.3714 6.55155 11.3372C6.63406 11.303 6.70902 11.253 6.77216 11.1898L8.50015 9.46182L10.2281 11.1898C10.2913 11.253 10.3663 11.303 10.4488 11.3372C10.5313 11.3714 10.6197 11.389 10.709 11.389C10.7983 11.389 10.8867 11.3714 10.9692 11.3372C11.0517 11.303 11.1267 11.253 11.1898 11.1898C11.253 11.1267 11.303 11.0517 11.3372 10.9692C11.3714 10.8867 11.389 10.7983 11.389 10.709C11.389 10.6197 11.3714 10.5313 11.3372 10.4488C11.303 10.3663 11.253 10.2913 11.1898 10.2281Z" fill="white"/>
</g>
<defs>
<clipPath id="clip0_2249_420">
<rect width="17" height="17" fill="white"/>
</clipPath>
</defs>
</svg>
