<svg width="18" height="18" viewBox="0 0 18 18" fill="none" xmlns="http://www.w3.org/2000/svg">
<path fill-rule="evenodd" clip-rule="evenodd" d="M9.00005 1.12988C13.3486 1.12988 16.8751 4.65643 16.8751 9.00493C16.8751 13.3534 13.3486 16.88 9.00005 16.88C4.65154 16.88 1.125 13.3534 1.125 9.00493C1.125 4.65643 4.65154 1.12988 9.00005 1.12988ZM7.3647 11.5628L5.43669 9.63321C5.10823 9.30454 5.10816 8.76859 5.43669 8.44C5.76529 8.11147 6.30363 8.11352 6.62984 8.44L7.98907 9.8003L11.3704 6.41899C11.699 6.09038 12.235 6.09038 12.5635 6.41899C12.8921 6.74752 12.8917 7.28399 12.5635 7.61213L8.58468 11.591C8.25655 11.9191 7.72007 11.9196 7.39153 11.591C7.3823 11.5817 7.3734 11.5724 7.3647 11.5628Z" fill="#00BA00"/>
</svg>
