<svg width="24" height="24" viewBox="0 0 24 24" fill="none" xmlns="http://www.w3.org/2000/svg">
<path d="M22.6277 0.365234H13.8689C13.667 0.365234 13.5039 0.528732 13.5039 0.730184V12.4086C13.5039 12.61 13.667 12.7735 13.8689 12.7735H22.6277C22.8295 12.7735 22.9926 12.61 22.9926 12.4086V0.730184C22.9926 0.528732 22.8295 0.365234 22.6277 0.365234ZM22.2627 12.0436H14.2338V1.09513H22.2627V12.0436Z" fill="#EB3D00"/>
<path d="M21.898 13.8682H12.4093C11.8057 13.8682 11.3145 14.3594 11.3145 14.963V21.8971C11.3145 22.5007 11.8057 22.9919 12.4093 22.9919H21.898C22.5016 22.9919 22.9928 22.5007 22.9928 21.8971V14.963C22.9928 14.3594 22.5016 13.8682 21.898 13.8682ZM22.2629 21.8971C22.2629 22.0981 22.0994 22.262 21.898 22.262H12.4093C12.2079 22.262 12.0444 22.0981 12.0444 21.8971V14.963C12.0444 14.7619 12.2079 14.5981 12.4093 14.5981H21.898C22.0994 14.5981 22.2629 14.7619 22.2629 14.963V21.8971Z" fill="#EB3D00"/>
<path d="M20.8019 20.4372H20.072C20.072 20.2358 19.9088 20.0723 19.707 20.0723C19.5052 20.0723 19.3421 20.2358 19.3421 20.4372H13.5029C13.0197 20.4372 13.0201 21.1671 13.5029 21.1671H19.3421C19.3421 21.3686 19.5052 21.5321 19.707 21.5321C19.9088 21.5321 20.072 21.3686 20.072 21.1671H20.8019C21.2851 21.1671 21.2847 20.4372 20.8019 20.4372Z" fill="#EB3D00"/>
<path d="M12.0436 11.3136V2.55481C12.0436 1.95118 11.5524 1.45996 10.9488 1.45996H1.46008C0.856457 1.45996 0.365234 1.95118 0.365234 2.55481V11.3136C0.365234 11.9172 0.856457 12.4085 1.46008 12.4085H10.9488C11.5524 12.4085 12.0436 11.9172 12.0436 11.3136ZM11.3137 11.3136C11.3137 11.5147 11.1502 11.6786 10.9488 11.6786H1.46008C1.25863 11.6786 1.09513 11.5147 1.09513 11.3136V2.55481C1.09513 2.35372 1.25863 2.18986 1.46008 2.18986H10.9488C11.1502 2.18986 11.3137 2.35372 11.3137 2.55481V11.3136Z" fill="#EB3D00"/>
<path d="M7.66488 6.20475C8.46996 6.20475 9.12468 5.55003 9.12468 4.74496C9.12468 3.93988 8.46996 3.28516 7.66488 3.28516C6.8598 3.28516 6.20508 3.93988 6.20508 4.74496C6.20508 5.55003 6.8598 6.20475 7.66488 6.20475ZM7.66488 4.01506C8.06742 4.01506 8.39478 4.34242 8.39478 4.74496C8.39478 5.14749 8.06742 5.47485 7.66488 5.47485C7.26234 5.47485 6.93498 5.14749 6.93498 4.74496C6.93498 4.34242 7.26234 4.01506 7.66488 4.01506Z" fill="#EB3D00"/>
<path d="M9.01756 7.40597C8.87486 7.26328 8.64421 7.26328 8.50152 7.40597L7.29974 8.60775L5.00311 6.31112C4.86041 6.16843 4.62977 6.16843 4.48707 6.31112L1.93242 8.86577C1.59083 9.20736 2.10723 9.72304 2.44846 9.38181L4.74509 7.08518L7.04172 9.38181C7.18441 9.52451 7.41506 9.52451 7.55776 9.38181L8.75954 8.18003L9.96132 9.38181C10.2978 9.71829 10.8233 9.21138 10.4774 8.86577L9.01756 7.40597Z" fill="#EB3D00"/>
<path d="M15.6923 2.92033H19.3418C19.825 2.92033 19.8247 2.19043 19.3418 2.19043H15.6923C15.2091 2.19043 15.2095 2.92033 15.6923 2.92033Z" fill="#EB3D00"/>
<path d="M15.6923 6.20451H20.8016C21.2848 6.20451 21.2845 5.47461 20.8016 5.47461H15.6923C15.2091 5.47461 15.2095 6.20451 15.6923 6.20451Z" fill="#EB3D00"/>
<path d="M15.6923 9.48869H20.8016C21.2848 9.48869 21.2845 8.75879 20.8016 8.75879H15.6923C15.2091 8.75879 15.2095 9.48869 15.6923 9.48869Z" fill="#EB3D00"/>
<path d="M15.6923 10.9486H17.5171C18.0003 10.9486 17.9999 10.2188 17.5171 10.2188H15.6923C15.2091 10.2188 15.2095 10.9486 15.6923 10.9486Z" fill="#EB3D00"/>
<path d="M15.6923 4.74455H16.4222C16.9054 4.74455 16.9051 4.01465 16.4222 4.01465H15.6923C15.2091 4.01465 15.2095 4.74455 15.6923 4.74455Z" fill="#EB3D00"/>
<path d="M18.247 4.74455H20.8017C21.2849 4.74455 21.2845 4.01465 20.8017 4.01465H18.247C17.7638 4.01465 17.7642 4.74455 18.247 4.74455Z" fill="#EB3D00"/>
<path d="M15.6923 8.02873H18.247C18.7302 8.02873 18.7298 7.29883 18.247 7.29883H15.6923C15.2091 7.29883 15.2095 8.02873 15.6923 8.02873Z" fill="#EB3D00"/>
<path d="M20.8011 7.29883H20.0712C19.588 7.29883 19.5884 8.02873 20.0712 8.02873H20.8011C21.2843 8.02873 21.284 7.29883 20.8011 7.29883Z" fill="#EB3D00"/>
<path d="M5.47453 13.5039C2.65712 13.5039 0.365234 15.3049 0.365234 17.5184C0.365234 18.4194 0.752811 19.2971 1.46008 20.0051V22.6277C1.46008 22.9546 1.85532 23.1134 2.08305 22.8857L3.68847 21.2803C4.25195 21.4481 4.85193 21.5328 5.47453 21.5328C8.29194 21.5328 10.5838 19.7318 10.5838 17.5184C10.5838 15.3049 8.29194 13.5039 5.47453 13.5039ZM5.47453 20.8029C4.85083 20.8029 4.25596 20.7076 3.70562 20.5197C3.5746 20.4744 3.42789 20.508 3.32972 20.6069L2.18998 21.7467V19.8504C2.18998 19.7489 2.14801 19.6522 2.07393 19.5832C1.43344 18.9876 1.09513 18.2734 1.09513 17.5184C1.09513 15.7075 3.05966 14.2338 5.47453 14.2338C7.8894 14.2338 9.85393 15.7075 9.85393 17.5184C9.85393 19.3292 7.8894 20.8029 5.47453 20.8029Z" fill="#EB3D00"/>
<path d="M5.47516 18.0656C5.77749 18.0656 6.02258 17.8205 6.02258 17.5181C6.02258 17.2158 5.77749 16.9707 5.47516 16.9707C5.17282 16.9707 4.92773 17.2158 4.92773 17.5181C4.92773 17.8205 5.17282 18.0656 5.47516 18.0656Z" fill="#EB3D00"/>
<path d="M8.02985 18.0656C8.33218 18.0656 8.57727 17.8205 8.57727 17.5181C8.57727 17.2158 8.33218 16.9707 8.02985 16.9707C7.72751 16.9707 7.48242 17.2158 7.48242 17.5181C7.48242 17.8205 7.72751 18.0656 8.02985 18.0656Z" fill="#EB3D00"/>
<path d="M2.92047 18.0656C3.22281 18.0656 3.4679 17.8205 3.4679 17.5181C3.4679 17.2158 3.22281 16.9707 2.92047 16.9707C2.61814 16.9707 2.37305 17.2158 2.37305 17.5181C2.37305 17.8205 2.61814 18.0656 2.92047 18.0656Z" fill="#EB3D00"/>
<path d="M16.5186 19.6028L18.9444 18.205C19.4729 17.901 19.4729 17.1357 18.9444 16.8314L16.519 15.4343C15.992 15.1292 15.3281 15.5121 15.3281 16.1208V18.9156C15.3281 19.5324 15.9978 19.9017 16.5186 19.6028ZM16.058 16.1208C16.058 16.0737 16.1113 16.0416 16.1544 16.0668L18.5802 17.4642C18.6218 17.4883 18.6218 17.5485 18.5802 17.5726L16.1547 18.97C16.1117 18.9941 16.058 18.9645 16.058 18.916V16.1208Z" fill="#EB3D00"/>
</svg>
