<svg width="16" height="16" viewBox="0 0 16 16" fill="none" xmlns="http://www.w3.org/2000/svg">
<path d="M0.781505 16.0023C0.626945 16.0024 0.475849 15.9565 0.347329 15.8707C0.218808 15.7848 0.118637 15.6628 0.0594859 15.52C0.000334708 15.3772 -0.015139 15.2201 0.0150219 15.0685C0.0451829 14.9169 0.119623 14.7777 0.228928 14.6684L14.6684 0.228885C14.815 0.0823323 15.0138 0 15.221 0C15.4283 0 15.627 0.0823323 15.7736 0.228885C15.9201 0.375437 16.0025 0.574205 16.0025 0.781462C16.0025 0.988718 15.9201 1.18749 15.7736 1.33404L1.33408 15.7735C1.26158 15.8462 1.17545 15.9038 1.08062 15.9431C0.98579 15.9823 0.884139 16.0025 0.781505 16.0023Z" />
<path d="M15.221 16.0023C15.1183 16.0025 15.0167 15.9823 14.9219 15.9431C14.827 15.9038 14.7409 15.8462 14.6684 15.7735L0.228885 1.33404C0.0823323 1.18749 0 0.988718 0 0.781462C0 0.574205 0.0823323 0.375437 0.228885 0.228885C0.375437 0.0823323 0.574205 0 0.781462 0C0.988718 0 1.18749 0.0823323 1.33404 0.228885L15.7735 14.6684C15.8828 14.7777 15.9573 14.9169 15.9875 15.0685C16.0176 15.2201 16.0021 15.3772 15.943 15.52C15.8838 15.6628 15.7837 15.7848 15.6551 15.8707C15.5266 15.9565 15.3755 16.0024 15.221 16.0023Z" />
</svg>
