<svg width="17" height="17" viewBox="0 0 17 17" fill="none" xmlns="http://www.w3.org/2000/svg">
<g clip-path="url(#clip0_2183_248)">
<path d="M7.70861 2.973C7.91606 3.18045 7.91606 3.51683 7.70861 3.72429C7.50115 3.93174 7.16477 3.93174 6.95732 3.72429L5.04681 1.81378V16.4688C5.04681 16.7622 4.80898 17 4.51556 17C4.22214 17 3.98431 16.7622 3.98431 16.4688V1.81385L2.07384 3.72429C1.97011 3.82801 1.83411 3.87988 1.69821 3.87991C1.56221 3.87991 1.42631 3.82805 1.32258 3.72429C1.11513 3.51683 1.11513 3.18045 1.32258 2.973L4.14 0.155615C4.34749 -0.0518716 4.68387 -0.0518716 4.89129 0.155615L7.70861 2.973ZM15.6774 13.2757C15.4699 13.0683 15.1336 13.0683 14.9261 13.2757L13.0156 15.1862V0.531275C13.0156 0.237859 12.7778 2.49085e-05 12.4844 2.49085e-05C12.191 2.49085e-05 11.9531 0.237859 11.9531 0.531275V15.1863L10.0427 13.2757C9.83527 13.0683 9.49888 13.0682 9.29136 13.2757C9.08391 13.4832 9.08388 13.8196 9.29136 14.027L12.1087 16.8444C12.2083 16.9441 12.3435 17.0001 12.4843 17.0001C12.6252 17.0001 12.7604 16.944 12.86 16.8444L15.6774 14.027C15.8848 13.8196 15.8848 13.4832 15.6774 13.2757Z" fill="#EB3D00"/>
</g>
<defs>
<clipPath id="clip0_2183_248">
<rect width="17" height="17" fill="white"/>
</clipPath>
</defs>
</svg>
