<svg width="19" height="13" viewBox="0 0 19 13" fill="none" xmlns="http://www.w3.org/2000/svg">
<path fill-rule="evenodd" clip-rule="evenodd" d="M17.692 6.73559C16.0367 9.70816 12.8975 11.5547 9.5011 11.5547C6.10252 11.5547 2.96336 9.70816 1.30801 6.73559C1.18053 6.50477 1.18053 6.26078 1.30801 6.03016C2.96336 3.05763 6.10252 1.21126 9.5011 1.21126C12.8975 1.21126 16.0366 3.05763 17.692 6.03016C17.8217 6.26078 17.8217 6.50477 17.692 6.73559ZM18.7494 5.4408C16.8808 2.08464 13.3372 0 9.5011 0C5.66284 0 2.11918 2.08464 0.250609 5.4408C-0.0835363 6.03961 -0.0835363 6.72613 0.250609 7.32451C2.11918 10.6807 5.66284 12.7657 9.5011 12.7657C13.3372 12.7657 16.8808 10.6807 18.7494 7.32451C19.0835 6.72617 19.0835 6.03961 18.7494 5.4408ZM9.5011 8.86751C10.8707 8.86751 11.9852 7.75297 11.9852 6.38277C11.9852 5.01258 10.8707 3.89804 9.5011 3.89804C8.12934 3.89804 7.01481 5.01258 7.01481 6.38277C7.01481 7.75297 8.12938 8.86751 9.5011 8.86751ZM9.5011 2.68678C7.46105 2.68678 5.80355 4.34497 5.80355 6.38281C5.80355 8.4211 7.46109 10.0786 9.5011 10.0786C11.5389 10.0786 13.1965 8.42106 13.1965 6.38281C13.1965 4.34497 11.5389 2.68678 9.5011 2.68678Z" fill="#737272"/>
</svg>
