<svg width="28" height="28" viewBox="0 0 28 28" fill="none" xmlns="http://www.w3.org/2000/svg">
<mask id="mask0_101_441" style="mask-type:luminance" maskUnits="userSpaceOnUse" x="0" y="0" width="28" height="28">
<path d="M27.5401 27.2666V0.4H1.02817V27.2666H27.5401Z" fill="white" stroke="white" stroke-width="0.8"/>
</mask>
<g mask="url(#mask0_101_441)">
<path d="M1.02826 21.3069H27.54" stroke="#EB3D00" stroke-width="0.8" stroke-miterlimit="10" stroke-linecap="round" stroke-linejoin="round"/>
</g>
<path d="M9.65894 21.1717V19.3553" stroke="#EB3D00" stroke-width="0.8" stroke-miterlimit="10" stroke-linecap="round" stroke-linejoin="round"/>
<path d="M18.9094 21.1717V19.3553" stroke="#EB3D00" stroke-width="0.8" stroke-miterlimit="10" stroke-linecap="round" stroke-linejoin="round"/>
<path d="M11.6976 17.6873V16.0341" stroke="#EB3D00" stroke-width="0.8" stroke-miterlimit="10" stroke-linecap="round" stroke-linejoin="round"/>
<path d="M16.8706 17.6873V16.0341" stroke="#EB3D00" stroke-width="0.8" stroke-miterlimit="10" stroke-linecap="round" stroke-linejoin="round"/>
<path d="M19.487 16.0341H9.08124V13.6213H19.487V16.0341Z" stroke="#EB3D00" stroke-width="0.8" stroke-miterlimit="10" stroke-linecap="round" stroke-linejoin="round"/>
<path d="M15.1376 19.3306H7.86426V17.6873H20.704V19.3306H17.2713" stroke="#EB3D00" stroke-width="0.8" stroke-miterlimit="10" stroke-linecap="round" stroke-linejoin="round"/>
<mask id="mask1_101_441" style="mask-type:luminance" maskUnits="userSpaceOnUse" x="0" y="0" width="28" height="28">
<path d="M27.5401 27.2666V0.4H1.02817V27.2666H27.5401Z" fill="white" stroke="white" stroke-width="0.8"/>
</mask>
<g mask="url(#mask1_101_441)">
<path d="M26.6332 21.3069H22.419V19.6974H26.6332V21.3069Z" stroke="#EB3D00" stroke-width="0.8" stroke-miterlimit="10" stroke-linecap="round" stroke-linejoin="round"/>
</g>
<path d="M25.5663 19.6974H23.4859V18.0879H25.5663V19.6974Z" stroke="#EB3D00" stroke-width="0.8" stroke-miterlimit="10" stroke-linecap="round" stroke-linejoin="round"/>
<path d="M24.5261 18.0014V8.60837" stroke="#EB3D00" stroke-width="0.8" stroke-miterlimit="10" stroke-linecap="round" stroke-linejoin="round"/>
<mask id="mask2_101_441" style="mask-type:luminance" maskUnits="userSpaceOnUse" x="0" y="0" width="28" height="28">
<path d="M27.5401 27.2666V0.4H1.02817V27.2666H27.5401Z" fill="white" stroke="white" stroke-width="0.8"/>
</mask>
<g mask="url(#mask2_101_441)">
<path d="M24.5261 8.60834C23.8854 8.60834 23.3659 8.08219 23.3659 7.43305V5.31212H25.6864V7.43305C25.6864 8.08219 25.1669 8.60834 24.5261 8.60834Z" stroke="#EB3D00" stroke-width="0.8" stroke-miterlimit="10" stroke-linecap="round" stroke-linejoin="round"/>
<path d="M22.6768 5.31213H26.3753L25.2149 4.13663C24.8356 3.75243 24.2206 3.752 23.8409 4.13576L22.6768 5.31213Z" stroke="#EB3D00" stroke-width="0.8" stroke-miterlimit="10" stroke-linecap="round" stroke-linejoin="round"/>
<path d="M27.54 9.84644C26.0083 9.94144 24.7936 11.1071 24.5599 12.5804C24.1397 12.0709 23.4946 11.7633 22.7903 11.8069C22.3939 11.8315 22.0297 11.9645 21.7233 12.1752C21.4955 10.7208 20.1694 9.69984 18.7153 9.8814C18.0858 9.96008 17.5341 10.2518 17.1204 10.676C16.7763 10.096 16.1176 9.74377 15.412 9.8318C15.2047 9.85774 15.0105 9.91955 14.8347 10.0102C14.78 9.13127 14.1299 8.37773 13.2354 8.2374C12.2023 8.07529 11.235 8.79225 11.075 9.83882C11.0646 9.90659 11.058 9.97402 11.0548 10.041C10.7671 9.86379 10.4412 9.7394 10.0877 9.6839C9.45076 9.58399 8.83192 9.72383 8.32019 10.0369" stroke="#EB3D00" stroke-width="0.8" stroke-miterlimit="10" stroke-linecap="round" stroke-linejoin="round"/>
<path d="M4.60736 21.3069V4.44757" stroke="#EB3D00" stroke-width="0.8" stroke-miterlimit="10" stroke-linecap="round" stroke-linejoin="round"/>
<path d="M3.75166 1.222C4.0164 1.15812 4.29267 1.1243 4.57667 1.1243C6.53641 1.1243 8.12509 2.73366 8.12509 4.71885V10.4904C8.12509 12.4756 6.53641 14.0849 4.57667 14.0849C2.61693 14.0849 1.0282 12.4756 1.0282 10.4904V4.71885C1.0282 3.75619 1.40176 2.88194 2.01009 2.23669" stroke="#EB3D00" stroke-width="0.8" stroke-miterlimit="10" stroke-linecap="round" stroke-linejoin="round"/>
<path d="M4.63062 8.18604L6.29499 6.49999" stroke="#EB3D00" stroke-width="0.8" stroke-miterlimit="10" stroke-linecap="round" stroke-linejoin="round"/>
<path d="M4.60736 10.9959L2.94293 9.30987" stroke="#EB3D00" stroke-width="0.8" stroke-miterlimit="10" stroke-linecap="round" stroke-linejoin="round"/>
<path d="M20.1725 2.20927C20.1725 3.20559 19.3752 4.01328 18.3916 4.01328C17.408 4.01328 16.6107 3.20559 16.6107 2.20927C16.6107 1.213 17.408 0.405267 18.3916 0.405267C19.3752 0.405267 20.1725 1.213 20.1725 2.20927Z" stroke="#EB3D00" stroke-width="0.8" stroke-miterlimit="10" stroke-linecap="round" stroke-linejoin="round"/>
<path d="M25.7397 24.1137H27.54" stroke="#EB3D00" stroke-width="0.8" stroke-miterlimit="10" stroke-linecap="round" stroke-linejoin="round"/>
<path d="M1.02826 24.1137H23.5393" stroke="#EB3D00" stroke-width="0.8" stroke-miterlimit="10" stroke-linecap="round" stroke-linejoin="round"/>
<mask id="path-24-inside-1_101_441" fill="white">
<path d="M1.87085 26.0928C2.38567 26.0928 2.38658 25.2823 1.87085 25.2823C1.35598 25.2823 1.35512 26.0928 1.87085 26.0928Z"/>
</mask>
<path d="M1.87085 26.0928C2.38567 26.0928 2.38658 25.2823 1.87085 25.2823C1.35598 25.2823 1.35512 26.0928 1.87085 26.0928Z" fill="black"/>
<path d="M1.87085 25.2928C1.76862 25.2928 1.64057 25.3424 1.55035 25.4488C1.4749 25.5378 1.45734 25.628 1.4573 25.6871C1.45727 25.7463 1.47474 25.8368 1.55049 25.9261C1.64105 26.033 1.76927 26.0823 1.87085 26.0823V24.4823C2.23029 24.4823 2.55179 24.6329 2.77114 24.8917C2.97568 25.1331 3.05745 25.4262 3.0573 25.688C3.05716 25.9498 2.97508 26.2425 2.77078 26.4835C2.55171 26.7419 2.23049 26.8928 1.87085 26.8928V25.2928ZM1.87085 26.0823C1.97304 26.0823 2.10109 26.0327 2.19132 25.9263C2.26678 25.8373 2.28434 25.7472 2.28437 25.688C2.28441 25.6288 2.26693 25.5383 2.19118 25.449C2.10063 25.3421 1.97242 25.2928 1.87085 25.2928V26.8928C1.51141 26.8928 1.18991 26.7422 0.970565 26.4834C0.766024 26.2421 0.684237 25.9489 0.684375 25.6871C0.684513 25.4253 0.766594 25.1326 0.97091 24.8916C1.18999 24.6332 1.51122 24.4823 1.87085 24.4823V26.0823Z" fill="#EB3D00" mask="url(#path-24-inside-1_101_441)"/>
<mask id="path-26-inside-2_101_441" fill="white">
<path d="M4.35352 27.6666C4.86833 27.6666 4.86919 26.8561 4.35352 26.8561C3.83864 26.8561 3.83779 27.6666 4.35352 27.6666Z"/>
</mask>
<path d="M4.35352 27.6666C4.86833 27.6666 4.86919 26.8561 4.35352 26.8561C3.83864 26.8561 3.83779 27.6666 4.35352 27.6666Z" fill="black"/>
<path d="M4.35352 26.8666C4.25128 26.8666 4.12322 26.9162 4.03299 27.0227C3.95753 27.1117 3.93998 27.2018 3.93995 27.2609C3.93992 27.3201 3.95739 27.4105 4.03313 27.4999C4.12367 27.6068 4.2519 27.6561 4.35352 27.6561V26.0561C4.71297 26.0561 5.03446 26.2067 5.2538 26.4655C5.45832 26.7069 5.54009 27 5.53995 27.2618C5.53981 27.5236 5.45775 27.8163 5.25345 28.0573C5.03439 28.3157 4.71316 28.4666 4.35352 28.4666V26.8666ZM4.35352 27.6561C4.45571 27.6561 4.58375 27.6065 4.67398 27.5001C4.74945 27.4111 4.76701 27.3209 4.76704 27.2618C4.76707 27.2026 4.74959 27.1121 4.67385 27.0228C4.5833 26.9159 4.45509 26.8666 4.35352 26.8666V28.4666C3.99408 28.4666 3.67258 28.316 3.45323 28.0572C3.24869 27.8159 3.1669 27.5227 3.16704 27.2609C3.16718 26.9991 3.24926 26.7064 3.45358 26.4654C3.67266 26.207 3.99389 26.0561 4.35352 26.0561V27.6561Z" fill="#EB3D00" mask="url(#path-26-inside-2_101_441)"/>
<mask id="path-28-inside-3_101_441" fill="white">
<path d="M6.83614 26.0928C7.35101 26.0928 7.35187 25.2823 6.83614 25.2823C6.32132 25.2823 6.32047 26.0928 6.83614 26.0928Z"/>
</mask>
<path d="M6.83614 26.0928C7.35101 26.0928 7.35187 25.2823 6.83614 25.2823C6.32132 25.2823 6.32047 26.0928 6.83614 26.0928Z" fill="black"/>
<path d="M6.83614 25.2928C6.73395 25.2928 6.60591 25.3424 6.51567 25.4488C6.44021 25.5378 6.42265 25.628 6.42262 25.6871C6.42258 25.7463 6.44007 25.8368 6.51581 25.9262C6.60636 26.033 6.73457 26.0823 6.83614 26.0823V24.4823C7.19558 24.4823 7.51708 24.6329 7.73643 24.8917C7.94097 25.1331 8.02275 25.4262 8.02262 25.688C8.02248 25.9498 7.9404 26.2426 7.73608 26.4835C7.517 26.7419 7.19577 26.8928 6.83614 26.8928V25.2928ZM6.83614 26.0823C6.93838 26.0823 7.06644 26.0327 7.15667 25.9263C7.23212 25.8372 7.24968 25.7471 7.24971 25.688C7.24974 25.6288 7.23227 25.5384 7.15653 25.449C7.06598 25.3421 6.93776 25.2928 6.83614 25.2928V26.8928C6.47669 26.8928 6.15519 26.7422 5.93586 26.4834C5.73134 26.242 5.64957 25.9489 5.64971 25.6871C5.64985 25.4254 5.73191 25.1326 5.93621 24.8916C6.15527 24.6332 6.4765 24.4823 6.83614 24.4823V26.0823Z" fill="#EB3D00" mask="url(#path-28-inside-3_101_441)"/>
<mask id="path-30-inside-4_101_441" fill="white">
<path d="M9.31881 27.6666C9.83368 27.6666 9.83453 26.8561 9.31881 26.8561C8.80399 26.8561 8.80313 27.6666 9.31881 27.6666Z"/>
</mask>
<path d="M9.31881 27.6666C9.83368 27.6666 9.83453 26.8561 9.31881 26.8561C8.80399 26.8561 8.80313 27.6666 9.31881 27.6666Z" fill="black"/>
<path d="M9.31881 26.8666C9.21661 26.8666 9.08857 26.9162 8.99834 27.0226C8.92287 27.1116 8.90531 27.2018 8.90528 27.2609C8.90525 27.3201 8.92273 27.4106 8.99847 27.5C9.08903 27.6068 9.21723 27.6561 9.31881 27.6561V26.0561C9.67825 26.0561 9.99974 26.2067 10.2191 26.4655C10.4236 26.7069 10.5054 27 10.5053 27.2618C10.5051 27.5236 10.4231 27.8163 10.2187 28.0573C9.99966 28.3157 9.67844 28.4666 9.31881 28.4666V26.8666ZM9.31881 27.6561C9.42104 27.6561 9.5491 27.6065 9.63933 27.5C9.71479 27.411 9.73234 27.3209 9.73237 27.2618C9.7324 27.2026 9.71493 27.1122 9.6392 27.0228C9.54865 26.9159 9.42043 26.8666 9.31881 26.8666V28.4666C8.95935 28.4666 8.63786 28.316 8.41853 28.0572C8.21401 27.8158 8.13224 27.5227 8.13237 27.2609C8.13251 26.9991 8.21458 26.7064 8.41887 26.4654C8.63794 26.207 8.95916 26.0561 9.31881 26.0561V27.6561Z" fill="#EB3D00" mask="url(#path-30-inside-4_101_441)"/>
<mask id="path-32-inside-5_101_441" fill="white">
<path d="M11.8014 26.0928C12.3163 26.0928 12.3172 25.2823 11.8014 25.2823C11.2866 25.2823 11.2857 26.0928 11.8014 26.0928Z"/>
</mask>
<path d="M11.8014 26.0928C12.3163 26.0928 12.3172 25.2823 11.8014 25.2823C11.2866 25.2823 11.2857 26.0928 11.8014 26.0928Z" fill="black"/>
<path d="M11.8014 25.2928C11.6992 25.2928 11.5712 25.3424 11.481 25.4488C11.4055 25.5378 11.3879 25.628 11.3879 25.6871C11.3879 25.7463 11.4054 25.8368 11.4811 25.9262C11.5717 26.033 11.6999 26.0823 11.8014 26.0823V24.4823C12.1609 24.4823 12.4824 24.6329 12.7017 24.8917C12.9063 25.1331 12.988 25.4262 12.9879 25.688C12.9878 25.9498 12.9057 26.2426 12.7014 26.4835C12.4823 26.7419 12.1611 26.8928 11.8014 26.8928V25.2928ZM11.8014 26.0823C11.9037 26.0823 12.0317 26.0327 12.1219 25.9263C12.1974 25.8373 12.2149 25.7472 12.215 25.688C12.215 25.6288 12.1975 25.5384 12.1218 25.449C12.0312 25.3421 11.903 25.2928 11.8014 25.2928V26.8928C11.442 26.8928 11.1205 26.7422 10.9011 26.4834C10.6966 26.242 10.6148 25.9489 10.615 25.6871C10.6151 25.4253 10.6972 25.1326 10.9015 24.8916C11.1206 24.6332 11.4418 24.4823 11.8014 24.4823V26.0823Z" fill="#EB3D00" mask="url(#path-32-inside-5_101_441)"/>
<mask id="path-34-inside-6_101_441" fill="white">
<path d="M14.2841 27.6666C14.7989 27.6666 14.7998 26.8561 14.2841 26.8561C13.7693 26.8561 13.7684 27.6666 14.2841 27.6666Z"/>
</mask>
<path d="M14.2841 27.6666C14.7989 27.6666 14.7998 26.8561 14.2841 26.8561C13.7693 26.8561 13.7684 27.6666 14.2841 27.6666Z" fill="black"/>
<path d="M14.2841 26.8666C14.1819 26.8666 14.0538 26.9162 13.9636 27.0226C13.8881 27.1116 13.8706 27.2017 13.8706 27.2609C13.8705 27.3201 13.888 27.4105 13.9637 27.4999C14.0543 27.6068 14.1825 27.6561 14.2841 27.6561V26.0561C14.6435 26.0561 14.965 26.2067 15.1844 26.4655C15.3889 26.7069 15.4707 27 15.4706 27.2618C15.4704 27.5236 15.3883 27.8163 15.184 28.0573C14.965 28.3157 14.6437 28.4666 14.2841 28.4666V26.8666ZM14.2841 27.6561C14.3863 27.6561 14.5144 27.6065 14.6046 27.5001C14.6801 27.4111 14.6976 27.321 14.6976 27.2618C14.6977 27.2026 14.6802 27.1122 14.6045 27.0228C14.5139 26.9159 14.3857 26.8666 14.2841 26.8666V28.4666C13.9247 28.4666 13.6032 28.316 13.3838 28.0572C13.1793 27.8158 13.0975 27.5227 13.0976 27.2609C13.0978 26.9991 13.1799 26.7064 13.3842 26.4654C13.6032 26.207 13.9245 26.0561 14.2841 26.0561V27.6561Z" fill="#EB3D00" mask="url(#path-34-inside-6_101_441)"/>
<mask id="path-36-inside-7_101_441" fill="white">
<path d="M16.7668 26.0928C17.2816 26.0928 17.2825 25.2823 16.7668 25.2823C16.2519 25.2823 16.2511 26.0928 16.7668 26.0928Z"/>
</mask>
<path d="M16.7668 26.0928C17.2816 26.0928 17.2825 25.2823 16.7668 25.2823C16.2519 25.2823 16.2511 26.0928 16.7668 26.0928Z" fill="black"/>
<path d="M16.7668 25.2928C16.6646 25.2928 16.5365 25.3424 16.4463 25.4488C16.3708 25.5378 16.3533 25.628 16.3532 25.6871C16.3532 25.7463 16.3707 25.8368 16.4464 25.9261C16.537 26.033 16.6652 26.0823 16.7668 26.0823V24.4823C17.1262 24.4823 17.4477 24.6329 17.6671 24.8917C17.8716 25.1331 17.9534 25.4262 17.9532 25.688C17.9531 25.9498 17.871 26.2425 17.6667 26.4835C17.4476 26.7419 17.1264 26.8928 16.7668 26.8928V25.2928ZM16.7668 26.0823C16.869 26.0823 16.997 26.0327 17.0873 25.9263C17.1627 25.8373 17.1803 25.7472 17.1803 25.688C17.1803 25.6288 17.1629 25.5383 17.0871 25.449C16.9966 25.3421 16.8684 25.2928 16.7668 25.2928V26.8928C16.4073 26.8928 16.0858 26.7422 15.8665 26.4834C15.662 26.2421 15.5802 25.9489 15.5803 25.6871C15.5804 25.4253 15.6625 25.1326 15.8668 24.8916C16.0859 24.6332 16.4072 24.4823 16.7668 24.4823V26.0823Z" fill="#EB3D00" mask="url(#path-36-inside-7_101_441)"/>
<mask id="path-38-inside-8_101_441" fill="white">
<path d="M19.2495 27.6666C19.7643 27.6666 19.7651 26.8561 19.2495 26.8561C18.7346 26.8561 18.7337 27.6666 19.2495 27.6666Z"/>
</mask>
<path d="M19.2495 27.6666C19.7643 27.6666 19.7651 26.8561 19.2495 26.8561C18.7346 26.8561 18.7337 27.6666 19.2495 27.6666Z" fill="black"/>
<path d="M19.2495 26.8666C19.1472 26.8666 19.0192 26.9162 18.9289 27.0227C18.8535 27.1117 18.8359 27.2018 18.8359 27.2609C18.8359 27.3201 18.8533 27.4105 18.9291 27.4999C19.0196 27.6068 19.1478 27.6561 19.2495 27.6561V26.0561C19.6089 26.0561 19.9304 26.2067 20.1497 26.4655C20.3543 26.7069 20.436 27 20.4359 27.2618C20.4357 27.5236 20.3537 27.8163 20.1494 28.0573C19.9303 28.3157 19.6091 28.4666 19.2495 28.4666V26.8666ZM19.2495 27.6561C19.3516 27.6561 19.4797 27.6065 19.5699 27.5001C19.6454 27.4111 19.6629 27.3209 19.663 27.2618C19.663 27.2026 19.6455 27.1121 19.5698 27.0228C19.4792 26.9159 19.351 26.8666 19.2495 26.8666V28.4666C18.89 28.4666 18.5685 28.316 18.3492 28.0572C18.1446 27.8159 18.0628 27.5227 18.063 27.2609C18.0631 26.9991 18.1452 26.7064 18.3495 26.4654C18.5686 26.207 18.8898 26.0561 19.2495 26.0561V27.6561Z" fill="#EB3D00" mask="url(#path-38-inside-8_101_441)"/>
<mask id="path-40-inside-9_101_441" fill="white">
<path d="M21.7321 26.0928C22.2469 26.0928 22.2478 25.2823 21.7321 25.2823C21.2172 25.2823 21.2164 26.0928 21.7321 26.0928Z"/>
</mask>
<path d="M21.7321 26.0928C22.2469 26.0928 22.2478 25.2823 21.7321 25.2823C21.2172 25.2823 21.2164 26.0928 21.7321 26.0928Z" fill="black"/>
<path d="M21.7321 25.2928C21.6299 25.2928 21.5018 25.3424 21.4116 25.4489C21.3361 25.5379 21.3186 25.628 21.3186 25.6871C21.3185 25.7463 21.336 25.8368 21.4117 25.9261C21.5023 26.033 21.6305 26.0823 21.7321 26.0823V24.4823C22.0916 24.4823 22.4131 24.6329 22.6324 24.8917C22.8369 25.1331 22.9187 25.4262 22.9186 25.688C22.9184 25.9498 22.8363 26.2425 22.6321 26.4835C22.413 26.7419 22.0918 26.8928 21.7321 26.8928V25.2928ZM21.7321 26.0823C21.8343 26.0823 21.9624 26.0327 22.0526 25.9263C22.128 25.8373 22.1456 25.7472 22.1456 25.688C22.1457 25.6288 22.1282 25.5383 22.0524 25.449C21.9619 25.3421 21.8337 25.2928 21.7321 25.2928V26.8928C21.3727 26.8928 21.0512 26.7422 20.8318 26.4834C20.6273 26.2421 20.5455 25.9489 20.5456 25.6871C20.5458 25.4253 20.6279 25.1326 20.8322 24.8916C21.0513 24.6332 21.3725 24.4823 21.7321 24.4823V26.0823Z" fill="#EB3D00" mask="url(#path-40-inside-9_101_441)"/>
<mask id="path-42-inside-10_101_441" fill="white">
<path d="M24.2147 27.6666C24.7296 27.6666 24.7305 26.8561 24.2147 26.8561C23.6999 26.8561 23.6991 27.6666 24.2147 27.6666Z"/>
</mask>
<path d="M24.2147 27.6666C24.7296 27.6666 24.7305 26.8561 24.2147 26.8561C23.6999 26.8561 23.6991 27.6666 24.2147 27.6666Z" fill="black"/>
<path d="M24.2147 26.8666C24.1125 26.8666 23.9845 26.9162 23.8943 27.0226C23.8188 27.1116 23.8012 27.2018 23.8012 27.2609C23.8012 27.3201 23.8187 27.4106 23.8944 27.5C23.985 27.6068 24.1132 27.6561 24.2147 27.6561V26.0561C24.5742 26.0561 24.8957 26.2067 25.115 26.4655C25.3196 26.7069 25.4014 27 25.4012 27.2618C25.4011 27.5236 25.319 27.8163 25.1147 28.0573C24.8956 28.3157 24.5744 28.4666 24.2147 28.4666V26.8666ZM24.2147 27.6561C24.317 27.6561 24.445 27.6065 24.5353 27.5C24.6107 27.411 24.6283 27.3209 24.6283 27.2618C24.6283 27.2026 24.6109 27.1122 24.5351 27.0228C24.4446 26.9159 24.3164 26.8666 24.2147 26.8666V28.4666C23.8553 28.4666 23.5338 28.316 23.3145 28.0572C23.1099 27.8158 23.0282 27.5227 23.0283 27.2609C23.0284 26.9991 23.1105 26.7064 23.3148 26.4654C23.5339 26.207 23.8551 26.0561 24.2147 26.0561V27.6561Z" fill="#EB3D00" mask="url(#path-42-inside-10_101_441)"/>
<mask id="path-44-inside-11_101_441" fill="white">
<path d="M26.6974 26.0928C27.2122 26.0928 27.2131 25.2823 26.6974 25.2823C26.1825 25.2823 26.1816 26.0928 26.6974 26.0928Z"/>
</mask>
<path d="M26.6974 26.0928C27.2122 26.0928 27.2131 25.2823 26.6974 25.2823C26.1825 25.2823 26.1816 26.0928 26.6974 26.0928Z" fill="black"/>
<path d="M26.6974 25.2928C26.5952 25.2928 26.4671 25.3424 26.3769 25.4488C26.3014 25.5378 26.2839 25.628 26.2838 25.6871C26.2838 25.7463 26.3013 25.8368 26.377 25.9262C26.4676 26.033 26.5958 26.0823 26.6974 26.0823V24.4823C27.0568 24.4823 27.3783 24.6329 27.5977 24.8917C27.8022 25.1331 27.884 25.4262 27.8838 25.688C27.8837 25.9498 27.8016 26.2426 27.5973 26.4835C27.3782 26.7419 27.057 26.8928 26.6974 26.8928V25.2928ZM26.6974 26.0823C26.7996 26.0823 26.9276 26.0327 27.0179 25.9263C27.0933 25.8373 27.1109 25.7472 27.1109 25.688C27.1109 25.6288 27.0935 25.5384 27.0177 25.449C26.9272 25.3421 26.7989 25.2928 26.6974 25.2928V26.8928C26.3379 26.8928 26.0164 26.7422 25.7971 26.4834C25.5925 26.242 25.5108 25.9489 25.5109 25.6871C25.5111 25.4253 25.5931 25.1326 25.7974 24.8916C26.0165 24.6332 26.3377 24.4823 26.6974 24.4823V26.0823Z" fill="#EB3D00" mask="url(#path-44-inside-11_101_441)"/>
</g>
</svg>
