<svg width="34" height="34" viewBox="0 0 34 34" fill="none" xmlns="http://www.w3.org/2000/svg">
<g clip-path="url(#clip0_2320_309)">
<path fill-rule="evenodd" clip-rule="evenodd" d="M8.0676 26.0758C7.86613 25.8704 7.75327 25.5941 7.75327 25.3064C7.75327 25.0187 7.86613 24.7425 8.0676 24.5371L10.0435 22.5648C10.1438 22.4633 10.2634 22.3829 10.3953 22.3284C10.5271 22.2738 10.6685 22.2462 10.8112 22.2471C11.0265 22.2465 11.2372 22.3098 11.4165 22.4291C11.5958 22.5485 11.7356 22.7183 11.8182 22.9172C11.9008 23.1161 11.9224 23.335 11.8804 23.5462C11.8384 23.7574 11.7346 23.9514 11.5822 24.1036L9.60666 26.0758C9.40228 26.2793 9.12564 26.3935 8.83726 26.3935C8.54888 26.3935 8.27224 26.2793 8.06786 26.0758H8.0676ZM10.4007 28.4087C10.6051 28.6122 10.8817 28.7264 11.1701 28.7264C11.4585 28.7264 11.7352 28.6122 11.9395 28.4087L13.9118 26.4332C14.0132 26.3328 14.0936 26.2132 14.1481 26.0814C14.2027 25.9496 14.2303 25.8081 14.2295 25.6655C14.2301 25.4501 14.1667 25.2394 14.0474 25.0601C13.9281 24.8808 13.7582 24.741 13.5594 24.6584C13.3605 24.5758 13.1415 24.5541 12.9303 24.5962C12.7191 24.6382 12.5251 24.742 12.373 24.8944L10.4007 26.87C10.1973 27.0744 10.083 27.351 10.083 27.6394C10.083 27.9277 10.1973 28.2044 10.4007 28.4087ZM12.7337 30.7384C12.5302 30.534 12.416 30.2574 12.416 29.969C12.416 29.6806 12.5302 29.404 12.7337 29.1996L14.706 27.2274C14.9105 27.0255 15.1865 26.9127 15.4739 26.9136C15.7612 26.9146 16.0366 27.0291 16.2398 27.2323C16.443 27.4355 16.5575 27.7108 16.5584 27.9982C16.5594 28.2856 16.4466 28.5616 16.2447 28.7661C16.2249 28.786 16.2083 28.8059 16.1918 28.8257C16.1355 28.8721 16.0792 28.9217 16.0229 28.9746L14.4808 30.52C14.4277 30.5732 14.378 30.6296 14.3319 30.6889C14.3098 30.7026 14.2898 30.7193 14.2723 30.7385C14.068 30.942 13.7913 31.0562 13.5029 31.0562C13.2146 31.0562 12.9379 30.942 12.7335 30.7385L12.7337 30.7384ZM15.2752 32.3433C15.4121 32.479 15.597 32.5551 15.7897 32.5551C15.9825 32.5551 16.1674 32.479 16.3043 32.3433L17.8497 30.8013C17.9866 30.6643 18.0636 30.4786 18.0636 30.2849C18.0636 30.0912 17.9866 29.9055 17.8497 29.7685C17.7127 29.6315 17.527 29.5546 17.3333 29.5546C17.1396 29.5546 16.9539 29.6315 16.8169 29.7685L15.2749 31.3139C15.2072 31.3814 15.1535 31.4616 15.1169 31.5499C15.0802 31.6382 15.0614 31.7329 15.0614 31.8285C15.0614 31.9241 15.0802 32.0187 15.1169 32.107C15.1535 32.1953 15.2072 32.2755 15.2749 32.343L15.2752 32.3433ZM18.3758 32.8795C18.2398 33.0147 18.0561 33.0912 17.8642 33.0924C17.6724 33.0936 17.4877 33.0195 17.35 32.886L18.3791 31.8532C18.5131 31.9905 18.5878 32.175 18.5872 32.3668C18.5866 32.5587 18.5107 32.7426 18.3758 32.8791V32.8795ZM20.917 31.2745C20.7126 31.4779 20.436 31.5922 20.1476 31.5922C19.8593 31.5922 19.5826 31.4779 19.3783 31.2745C19.3588 31.2551 19.3378 31.2374 19.3154 31.2216C19.2691 31.1653 19.2227 31.1091 19.1698 31.0561L19.0606 30.9469C19.1879 30.6128 19.2162 30.2491 19.1423 29.8994C19.0683 29.5496 18.8952 29.2286 18.6436 28.9746C18.3702 28.7002 18.0169 28.5195 17.6344 28.4584C17.6972 28.1698 17.7005 27.8715 17.6442 27.5815C17.851 27.4674 18.0893 27.4234 18.3232 27.4562C18.5571 27.489 18.774 27.5968 18.9415 27.7634L20.917 29.7357C21.1205 29.9401 21.2347 30.2167 21.2347 30.5051C21.2347 30.7935 21.1205 31.0701 20.917 31.2745ZM23.2467 28.9415C23.3481 28.8407 23.4286 28.7208 23.4835 28.5888C23.5385 28.4567 23.5667 28.3151 23.5667 28.1721C23.5667 28.0291 23.5385 27.8875 23.4835 27.7555C23.4286 27.6234 23.3481 27.5036 23.2467 27.4028L21.2743 25.4305C21.0698 25.2286 20.7937 25.1159 20.5063 25.1168C20.219 25.1177 19.9437 25.2323 19.7405 25.4355C19.5373 25.6387 19.4227 25.914 19.4218 26.2013C19.4209 26.4887 19.5337 26.7648 19.7355 26.9693L21.7078 28.9415C21.8089 29.0427 21.9292 29.1229 22.0615 29.1775C22.1938 29.232 22.3357 29.2598 22.4788 29.2592C22.6215 29.2601 22.7629 29.2324 22.8948 29.1779C23.0266 29.1233 23.1462 29.043 23.2466 28.9415H23.2467ZM25.5796 26.6119C25.3753 26.8153 25.0986 26.9296 24.8102 26.9296C24.5219 26.9296 24.2452 26.8153 24.0408 26.6119L22.0686 24.6363C21.9675 24.5353 21.8874 24.4154 21.8327 24.2834C21.7781 24.1514 21.75 24.01 21.75 23.8671C21.7501 23.7243 21.7783 23.5828 21.833 23.4509C21.8878 23.3189 21.968 23.1991 22.0692 23.0982C22.1703 22.9972 22.2903 22.9173 22.4224 22.8628C22.5544 22.8083 22.6959 22.7804 22.8388 22.7806C22.9817 22.7809 23.1231 22.8093 23.2549 22.8642C23.3868 22.9192 23.5066 22.9996 23.6073 23.1008L25.5798 25.0729C25.7832 25.2773 25.8975 25.5539 25.8975 25.8423C25.8975 26.1307 25.7832 26.4073 25.5798 26.6117L25.5796 26.6119ZM29.2362 12.8325L33.8626 20.844L30.8812 22.5681L26.2548 14.5567L29.2363 12.8326L29.2362 12.8325ZM18.5014 15.3441L14.6033 17.2668C14.4955 17.3159 14.4002 17.3887 14.3246 17.4798C14.2489 17.5709 14.1949 17.678 14.1665 17.7929L13.4714 20.2548C13.4654 20.274 13.4637 20.2943 13.4665 20.3142C13.4693 20.3341 13.4765 20.3532 13.4876 20.37C13.4987 20.3868 13.5134 20.4009 13.5306 20.4113C13.5479 20.4217 13.5672 20.4281 13.5872 20.4301L14.9142 20.599C14.9409 20.6033 14.9682 20.5992 14.9925 20.5874C15.0168 20.5756 15.0368 20.5565 15.0499 20.5329L15.9236 19.1C16.1096 18.7806 16.3834 18.5213 16.7125 18.3529C17.0416 18.1846 17.4121 18.1142 17.78 18.1503L18.4385 18.2065C18.793 18.2322 19.1327 18.3583 19.418 18.5703L23.8887 21.9258C24.0776 22.0266 24.2505 22.1549 24.4019 22.3063L25.8211 23.7296L29.1502 21.8169L26.0296 16.4097L25.2023 16.7241C24.6603 16.935 24.0611 16.9467 23.5113 16.7572L19.1398 15.3011C19.0363 15.2629 18.9259 15.2469 18.8159 15.2544C18.7058 15.2618 18.5985 15.2924 18.5011 15.3441H18.5014ZM12.545 16.1152L8.58069 16.1615L4.98346 22.396L7.28002 23.7395L9.24895 21.7706C9.45356 21.5649 9.697 21.4019 9.96514 21.2911C10.2333 21.1804 10.5208 21.124 10.8109 21.1253C11.1118 21.1248 11.4096 21.1859 11.6859 21.3049C11.9623 21.4238 12.2114 21.5981 12.4179 21.817C12.6244 22.0358 12.7838 22.2947 12.8865 22.5775C12.9892 22.8603 13.0328 23.1612 13.0148 23.4615C13.3151 23.4435 13.616 23.4872 13.8988 23.5898C14.1817 23.6925 14.4405 23.852 14.6594 24.0584C14.8782 24.2649 15.0525 24.514 15.1715 24.7904C15.2904 25.0668 15.3515 25.3646 15.351 25.6655C15.351 25.7085 15.351 25.7482 15.3477 25.7912C15.6589 25.7729 15.9705 25.8207 16.2619 25.9313C16.5533 26.0419 16.8181 26.213 17.0387 26.4332C17.0818 26.4762 17.1215 26.5226 17.1612 26.5689C17.5133 26.3879 17.9075 26.3045 18.3028 26.3273C18.2995 26.2842 18.2963 26.2445 18.2963 26.2015C18.2954 25.9004 18.3562 25.6022 18.4749 25.3254C18.5937 25.0487 18.7679 24.7992 18.9868 24.5924C19.2058 24.3855 19.4647 24.2258 19.7478 24.1229C20.0309 24.02 20.332 23.9763 20.6326 23.9943C20.6293 23.9546 20.6293 23.9116 20.6293 23.8685C20.6284 23.4438 20.7504 23.0278 20.9805 22.6709C21.2107 22.3139 21.5392 22.0311 21.9265 21.8566L18.7431 19.4707C18.6255 19.3839 18.4852 19.3333 18.3394 19.325L17.6841 19.2688C17.5248 19.2521 17.3641 19.2824 17.2219 19.3559C17.0796 19.4294 16.9619 19.5429 16.8833 19.6825L16.0097 21.1153C15.8847 21.3244 15.7012 21.4922 15.4819 21.5981C15.2625 21.7039 15.017 21.7432 14.7755 21.711L13.4484 21.5459C13.268 21.5228 13.0947 21.4611 12.9404 21.3649C12.7861 21.2688 12.6543 21.1405 12.5541 20.9887C12.4539 20.837 12.3876 20.6654 12.3597 20.4857C12.3319 20.306 12.3431 20.1225 12.3927 19.9475L13.0844 17.4888C13.1564 17.2222 13.285 16.9743 13.4614 16.7618C13.6379 16.5494 13.858 16.3775 14.1069 16.2578L15.8938 15.3776L15.5496 15.1989C15.4305 15.132 15.2965 15.0963 15.1599 15.0951C15.0233 15.094 14.8887 15.1274 14.7686 15.1924L13.3854 15.9004C13.1269 16.0395 12.8383 16.1133 12.5448 16.1155L12.545 16.1152ZM5.23165 12.8325L0.605469 20.844L3.58692 22.5681L8.21323 14.5567L5.23178 12.8326L5.23165 12.8325ZM17.234 13.3156C18.5345 13.3156 19.8058 12.93 20.8871 12.2075C21.9684 11.485 22.8112 10.4581 23.3088 9.2566C23.8065 8.05512 23.9367 6.73305 23.683 5.45756C23.4293 4.18208 22.803 3.01047 21.8835 2.0909C20.9639 1.17133 19.7923 0.545094 18.5168 0.291385C17.2413 0.0376752 15.9193 0.167888 14.7178 0.665557C13.5163 1.16323 12.4894 2.006 11.7669 3.0873C11.0444 4.1686 10.6587 5.43987 10.6587 6.74034C10.6603 8.48374 11.3536 10.1553 12.5863 11.3881C13.8191 12.6208 15.4906 13.3141 17.234 13.3156ZM14.7389 6.76678C14.6957 6.70724 14.6646 6.63977 14.6474 6.56822C14.6303 6.49667 14.6273 6.42244 14.6389 6.34977C14.6504 6.2771 14.6761 6.20741 14.7146 6.14467C14.753 6.08194 14.8035 6.0274 14.863 5.98416C14.9225 5.94092 14.99 5.90984 15.0616 5.89267C15.1331 5.87551 15.2073 5.8726 15.28 5.88413C15.3527 5.89565 15.4224 5.92138 15.4851 5.95983C15.5478 5.99829 15.6024 6.04873 15.6456 6.10826L16.503 7.28967L19.3655 4.94673C19.4808 4.85585 19.6272 4.81382 19.7731 4.82967C19.9191 4.84553 20.053 4.918 20.1461 5.03152C20.2393 5.14504 20.2841 5.29056 20.2711 5.43681C20.2581 5.58306 20.1883 5.71837 20.0766 5.81369L16.7574 8.53382C16.6562 8.61543 16.5301 8.65983 16.4001 8.65958C16.3117 8.66152 16.224 8.64172 16.145 8.60191C16.0659 8.5621 15.9979 8.50351 15.9468 8.43126L14.7389 6.76678Z" fill="#640D5F"/>
</g>
<defs>
<clipPath id="clip0_2320_309">
<rect width="33.2571" height="33.2571" fill="white" transform="translate(0.605469)"/>
</clipPath>
</defs>
</svg>
