<svg width="29" height="29" viewBox="0 0 29 29" fill="none" xmlns="http://www.w3.org/2000/svg">
<path d="M18.4989 21.1767C18.4989 21.1767 18.1669 22.2999 17.0284 22.021C15.8898 21.7421 13.1934 21.0928 13.1934 21.0928" stroke="#EB3D00" stroke-width="1.65" stroke-miterlimit="10" stroke-linecap="round" stroke-linejoin="round"/>
<path d="M18.4989 21.1767C18.4989 21.1767 18.1669 22.2999 17.0284 22.021C15.8898 21.7421 13.1934 21.0928 13.1934 21.0928" stroke="#EB3D00" stroke-width="1.65" stroke-miterlimit="10" stroke-linecap="round" stroke-linejoin="round"/>
<path d="M12.0801 8.63475C13.2343 8.63475 14.1699 7.6991 14.1699 6.54491C14.1699 5.39073 13.2343 4.45508 12.0801 4.45508C10.9259 4.45508 9.99023 5.39073 9.99023 6.54491C9.99023 7.6991 10.9259 8.63475 12.0801 8.63475Z" stroke="#EB3D00" stroke-width="1.65" stroke-miterlimit="10" stroke-linecap="round" stroke-linejoin="round"/>
<path d="M18.2971 6.93608C19.7891 6.93608 20.9986 5.7266 20.9986 4.23464C20.9986 2.74268 19.7891 1.5332 18.2971 1.5332C16.8052 1.5332 15.5957 2.74268 15.5957 4.23464C15.5957 5.7266 16.8052 6.93608 18.2971 6.93608Z" stroke="#EB3D00" stroke-width="1.65" stroke-miterlimit="10" stroke-linecap="round" stroke-linejoin="round"/>
<path d="M24.5117 8.63475C25.6659 8.63475 26.6015 7.6991 26.6015 6.54491C26.6015 5.39073 25.6659 4.45508 24.5117 4.45508C23.3575 4.45508 22.4219 5.39073 22.4219 6.54491C22.4219 7.6991 23.3575 8.63475 24.5117 8.63475Z" stroke="#EB3D00" stroke-width="1.65" stroke-miterlimit="10" stroke-linecap="round" stroke-linejoin="round"/>
<path d="M24.3492 8.63899C23.4536 8.68539 22.6673 9.11593 22.1328 9.76332C22.2504 10.1397 22.314 10.5394 22.314 10.9532V14.4388H26.9827C27.3345 14.4388 27.6196 14.1536 27.6196 13.8018V11.7422C27.6196 9.97912 26.1314 8.54671 24.3492 8.63899Z" stroke="#EB3D00" stroke-width="1.65" stroke-miterlimit="10" stroke-linecap="round" stroke-linejoin="round"/>
<path d="M20.7178 15.4403C21.2715 14.1036 20.6368 12.5713 19.3002 12.0176C17.9635 11.464 16.4311 12.0987 15.8775 13.4353C15.3238 14.7719 15.9585 16.3043 17.2952 16.858C18.6318 17.4116 20.1642 16.7769 20.7178 15.4403Z" stroke="#EB3D00" stroke-width="1.65" stroke-miterlimit="10" stroke-linecap="round" stroke-linejoin="round"/>
<path d="M17.3457 14.3596L18.1664 15.1803L19.3663 13.9805" stroke="#EB3D00" stroke-width="1.65" stroke-miterlimit="10" stroke-linecap="round" stroke-linejoin="round"/>
<path d="M18.2417 6.93591C16.0359 6.96553 14.2793 8.79912 14.2793 11.0051V14.438H15.6766C15.6766 12.9913 16.8494 11.8184 18.2961 11.8184C19.7428 11.8184 20.9156 12.9913 20.9156 14.438H22.3129V10.9524C22.3129 8.72499 20.4756 6.90592 18.2417 6.93591Z" stroke="#EB3D00" stroke-width="1.65" stroke-miterlimit="10" stroke-linecap="round" stroke-linejoin="round"/>
<path d="M12.6411 14.4387H14.2802V11.0059C14.2802 10.574 14.3478 10.1565 14.4726 9.7639C13.8693 9.03677 12.9431 8.58593 11.9192 8.63899C10.2604 8.72487 8.97461 10.1273 8.97461 11.7884V13.8018C8.97461 14.1536 9.25977 14.4388 9.61156 14.4388H10.8062" stroke="#EB3D00" stroke-width="1.65" stroke-miterlimit="10" stroke-linecap="round" stroke-linejoin="round"/>
<path d="M23.2921 23.5737C24.937 22.8461 26.3561 22.2185 26.4927 22.158C26.7517 22.0252 28.0538 21.244 27.4704 19.9175C26.7942 18.5054 25.2378 19.1729 25.1071 19.2217L18.4994 21.1766C18.4994 21.1766 18.9518 19.8476 17.5819 19.3009C13.7855 17.7853 13.3328 17.529 12.372 17.5138L12.3719 17.5137C9.40178 17.5236 8.86366 17.5478 7.38763 18.2085C6.61541 18.5541 5.88204 18.9728 5.19496 19.4557C4.74544 19.7717 4.24664 20.011 3.71684 20.1567L1.91388 20.6524C1.70636 20.7095 1.5625 20.8982 1.5625 21.1135V27.1115C1.5625 27.4461 1.89747 27.6773 2.21036 27.5585L8.47825 25.1788C9.8523 24.7309 11.2928 24.6856 12.4465 25.146L14.8964 26.1241C15.4319 26.3087 16.6621 26.596 17.9387 25.9417C17.9394 25.9415 17.9398 25.9413 17.9398 25.9413C18.0588 25.8886 19.1419 25.4095 20.5 24.8087L21.6138 24.3161" stroke="#EB3D00" stroke-width="1.65" stroke-miterlimit="10" stroke-linecap="round" stroke-linejoin="round"/>
</svg>
