<svg width="27" height="26" viewBox="0 0 27 26"  xmlns="http://www.w3.org/2000/svg">
<path d="M25.7505 24.1508L18.4516 16.757C19.8654 14.9879 20.7167 12.74 20.7167 10.2917C20.7167 4.61718 16.1587 0 10.557 0C4.95535 0 0.397461 4.61713 0.397461 10.2916C0.397461 15.9661 4.9554 20.5833 10.5571 20.5833C12.974 20.5833 15.1931 19.721 16.9394 18.2888L24.2383 25.6826C24.4469 25.8938 24.7206 26 24.9944 26C25.2682 26 25.542 25.8938 25.7505 25.6826C26.1687 25.259 26.1687 24.5743 25.7505 24.1508ZM10.5571 18.4166C6.1339 18.4166 2.53634 14.7723 2.53634 10.2916C2.53634 5.81095 6.1339 2.16663 10.5571 2.16663C14.9803 2.16663 18.5778 5.81095 18.5778 10.2916C18.5778 14.7723 14.9802 18.4166 10.5571 18.4166Z" />
</svg>
