<svg width="20" height="15" viewBox="0 0 20 15" fill="none" xmlns="http://www.w3.org/2000/svg">
<path d="M16.9287 14.06H2.80277C2.0597 14.0591 1.34731 13.7636 0.821875 13.2381C0.296444 12.7127 0.000872663 12.0003 0 11.2572V2.80277C0.000872663 2.0597 0.296444 1.34731 0.821875 0.821876C1.34731 0.296444 2.0597 0.000872664 2.80277 0H16.9287C17.6718 0.000872664 18.3842 0.296444 18.9096 0.821876C19.435 1.34731 19.7306 2.0597 19.7315 2.80277V11.2572C19.7306 12.0003 19.435 12.7127 18.9096 13.2381C18.3842 13.7636 17.6718 14.0591 16.9287 14.06ZM2.80277 0.989212C2.32178 0.989212 1.8605 1.18028 1.52039 1.52039C1.18028 1.8605 0.989212 2.32178 0.989212 2.80277V11.2572C0.989212 11.7382 1.18028 12.1995 1.52039 12.5396C1.8605 12.8797 2.32178 13.0708 2.80277 13.0708H16.9287C17.4097 13.0708 17.871 12.8797 18.2111 12.5396C18.5512 12.1995 18.7423 11.7382 18.7423 11.2572V2.80277C18.7423 2.32178 18.5512 1.8605 18.2111 1.52039C17.871 1.18028 17.4097 0.989212 16.9287 0.989212H2.80277Z" fill="#EB3D00"/>
<path d="M9.86573 9.03488C9.25558 9.03584 8.66173 8.83789 8.17418 8.47103L0.474814 2.64787C0.420415 2.60969 0.374268 2.56094 0.339129 2.50453C0.30399 2.44811 0.280581 2.3852 0.270299 2.31954C0.260016 2.25388 0.263072 2.18682 0.279284 2.12237C0.295496 2.05792 0.324531 1.99739 0.364655 1.94441C0.404779 1.89143 0.455168 1.84708 0.512815 1.81401C0.570462 1.78093 0.634182 1.75982 0.700172 1.75192C0.766161 1.74402 0.833065 1.7495 0.896888 1.76804C0.960712 1.78657 1.02014 1.81778 1.07164 1.8598L8.771 7.68955C9.08718 7.92557 9.47117 8.05309 9.86573 8.05309C10.2603 8.05309 10.6443 7.92557 10.9605 7.68955L18.6598 1.8598C18.7113 1.81778 18.7708 1.78657 18.8346 1.76804C18.8984 1.7495 18.9653 1.74402 19.0313 1.75192C19.0973 1.75982 19.161 1.78093 19.2186 1.81401C19.2763 1.84708 19.3267 1.89143 19.3668 1.94441C19.4069 1.99739 19.436 2.05792 19.4522 2.12237C19.4684 2.18682 19.4714 2.25388 19.4612 2.31954C19.4509 2.3852 19.4275 2.44811 19.3923 2.50453C19.3572 2.56094 19.3111 2.60969 19.2567 2.64787L11.5573 8.47103C11.0697 8.83789 10.4759 9.03584 9.86573 9.03488Z" fill="#EB3D00"/>
<path d="M0.689135 12.6817C0.58882 12.6818 0.490831 12.6515 0.408171 12.5946C0.325511 12.5378 0.262088 12.4572 0.226317 12.3635C0.190545 12.2697 0.184118 12.1674 0.207886 12.0699C0.231654 11.9724 0.284495 11.8845 0.359398 11.8178L6.42657 6.40679C6.52451 6.31934 6.65319 6.27438 6.78428 6.2818C6.91538 6.28922 7.03816 6.34841 7.12561 6.44636C7.21306 6.5443 7.25802 6.67298 7.2506 6.80408C7.24318 6.93517 7.18399 7.05795 7.08604 7.1454L1.01887 12.5564C0.928771 12.6384 0.810942 12.6831 0.689135 12.6817ZM19.0423 12.6817C18.9205 12.6831 18.8027 12.6384 18.7126 12.5564L12.6454 7.1454C12.5475 7.05795 12.4883 6.93517 12.4809 6.80408C12.4734 6.67298 12.5184 6.5443 12.6058 6.44636C12.6933 6.34841 12.8161 6.28922 12.9472 6.2818C13.0783 6.27438 13.2069 6.31934 13.3049 6.40679L19.3688 11.8178C19.4437 11.8845 19.4965 11.9724 19.5203 12.0699C19.544 12.1674 19.5376 12.2697 19.5018 12.3635C19.4661 12.4572 19.4026 12.5378 19.32 12.5946C19.2373 12.6515 19.1393 12.6818 19.039 12.6817H19.0423Z" fill="#EB3D00"/>
</svg>
