<svg width="18" height="18" viewBox="0 0 18 18" fill="none" xmlns="http://www.w3.org/2000/svg">
<path d="M9.70313 13.9219H8.29688V7.59371H9.70313V13.9219Z" fill="#EB3D00" stroke="#EB3D00" stroke-width="0.8" stroke-miterlimit="10" stroke-linecap="round" stroke-linejoin="round"/>
<mask id="mask0_2244_979" style="mask-type:luminance" maskUnits="userSpaceOnUse" x="0" y="0" width="18" height="18">
<path d="M17.6001 17.6V0.399878H0.4V17.6H17.6001Z" fill="white" stroke="white" stroke-width="0.8"/>
</mask>
<g mask="url(#mask0_2244_979)">
<path d="M9.00006 17.6484C4.22029 17.6484 0.351562 13.7804 0.351562 8.99994C0.351562 4.22017 4.21962 0.351443 9.00006 0.351443C13.7798 0.351443 17.6486 4.2195 17.6486 8.99994C17.6486 13.7797 13.7805 17.6484 9.00006 17.6484Z" stroke="#EB3D00" stroke-width="0.8" stroke-miterlimit="10" stroke-linecap="round" stroke-linejoin="round"/>
<path d="M9 5.08437C9.16743 5.08437 9.30313 4.94867 9.30313 4.78125C9.30313 4.61382 9.16743 4.47812 9 4.47812C8.83258 4.47812 8.69688 4.61382 8.69688 4.78125C8.69688 4.94867 8.83258 5.08437 9 5.08437Z" fill="#EB3D00" stroke="#EB3D00" stroke-width="0.8"/>
<path d="M9.70313 4.78125C9.70313 5.16958 9.38834 5.48438 9 5.48438C8.61167 5.48438 8.29688 5.16958 8.29688 4.78125C8.29688 4.39291 8.61167 4.07812 9 4.07812C9.38834 4.07812 9.70313 4.39291 9.70313 4.78125Z" stroke="#EB3D00" stroke-width="0.8" stroke-miterlimit="10" stroke-linecap="round" stroke-linejoin="round"/>
</g>
</svg>
