<svg width="16" height="20" viewBox="0 0 16 20" fill="none" xmlns="http://www.w3.org/2000/svg">
<path d="M15.7672 4.46309V17.2464C15.7672 18.607 14.6642 19.71 13.3036 19.71H2.46363C1.103 19.71 0 18.607 0 17.2464V2.46461C0 1.10399 1.103 0.000987792 2.46363 0.000987792H11.3051C11.4359 -0.00730918 11.5721 0.0363059 11.6811 0.145304L15.6229 4.08711C15.7319 4.1961 15.7755 4.33227 15.7672 4.46309ZM10.84 0.986438H2.46363C1.64725 0.986438 0.985452 1.64824 0.985452 2.46461V17.2464C0.985452 18.0627 1.64725 18.7245 2.46363 18.7245H13.3036C14.12 18.7245 14.7818 18.0627 14.7818 17.2464V4.92824H11.3327C11.0606 4.92824 10.84 4.70764 10.84 4.43551V0.986438ZM11.8254 1.68326V3.94279H14.085L11.8254 1.68326ZM4.43453 7.8836C4.16241 7.8836 3.94181 7.663 3.94181 7.39088C3.94181 7.11875 4.16241 6.89815 4.43453 6.89815H11.3327C11.6048 6.89815 11.8254 7.11875 11.8254 7.39088C11.8254 7.663 11.6048 7.8836 11.3327 7.8836H4.43453ZM4.43453 10.84C4.16241 10.84 3.94181 10.6194 3.94181 10.3472C3.94181 10.0751 4.16241 9.85451 4.43453 9.85451H11.3327C11.6048 9.85451 11.8254 10.0751 11.8254 10.3472C11.8254 10.6194 11.6048 10.84 11.3327 10.84H4.43453ZM4.43453 13.7963C4.16241 13.7963 3.94181 13.5757 3.94181 13.3036C3.94181 13.0315 4.16241 12.8109 4.43453 12.8109H9.36179C9.63391 12.8109 9.85452 13.0315 9.85452 13.3036C9.85452 13.5757 9.63391 13.7963 9.36179 13.7963H4.43453Z" fill="#EB3D00"/>
</svg>
