<svg width="18" height="18" viewBox="0 0 18 18" fill="none" xmlns="http://www.w3.org/2000/svg">
<path d="M9.00001 0C12.6665 0 15.6493 2.98279 15.6493 6.64928C15.6493 7.85632 15.108 9.1545 15.0853 9.20926C14.9104 9.62425 14.5655 10.2688 14.3167 10.6467L9.75764 17.5545C9.57107 17.8377 9.29492 18 9.00001 18C8.70509 18 8.42895 17.8377 8.24238 17.5549L3.68293 10.6467C3.43378 10.2688 3.08919 9.62425 2.91435 9.20926C2.89167 9.15489 2.35073 7.85671 2.35073 6.64928C2.35073 2.98279 5.33352 0 9.00001 0ZM3.6356 8.90574C3.79167 9.27771 4.11279 9.87731 4.33612 10.216L8.89558 17.1243C8.98554 17.2608 9.01409 17.2608 9.10405 17.1243L13.6635 10.216C13.8868 9.87731 14.208 9.27731 14.364 8.90534C14.3707 8.88931 14.867 7.69439 14.867 6.64928C14.867 3.41421 12.2351 0.782269 9.00001 0.782269C5.76494 0.782269 3.133 3.41421 3.133 6.64928C3.133 7.69596 3.63052 8.894 3.6356 8.90574Z" fill="black"/>
<path d="M8.99999 3.12946C10.9412 3.12946 12.5202 4.70886 12.5202 6.64966C12.5202 8.59047 10.9412 10.1699 8.99999 10.1699C7.05879 10.1699 5.47979 8.59047 5.47979 6.64966C5.47979 4.70886 7.05879 3.12946 8.99999 3.12946ZM8.99999 9.3876C10.5094 9.3876 11.7379 8.15944 11.7379 6.64966C11.7379 5.13989 10.5094 3.91172 8.99999 3.91172C7.49061 3.91172 6.26205 5.13989 6.26205 6.64966C6.26205 8.15944 7.49061 9.3876 8.99999 9.3876Z" fill="black"/>
</svg>
