<svg width="15" height="21" viewBox="0 0 15 21" fill="none" xmlns="http://www.w3.org/2000/svg">
<path d="M12.75 7.5V5.0325C12.748 3.69841 12.2172 2.41952 11.2738 1.47618C10.3305 0.532829 9.05159 0.00198378 7.7175 0H7.2825C5.94841 0.00198378 4.66952 0.532829 3.72618 1.47618C2.78283 2.41952 2.25198 3.69841 2.25 5.0325V7.5C1.65326 7.5 1.08097 7.73705 0.65901 8.15901C0.237053 8.58097 0 9.15326 0 9.75V16.725C0.00198284 17.8582 0.45302 18.9444 1.25431 19.7457C2.0556 20.547 3.14181 20.998 4.275 21H10.725C11.8582 20.998 12.9444 20.547 13.7457 19.7457C14.547 18.9444 14.998 17.8582 15 16.725V9.75C15 9.15326 14.7629 8.58097 14.341 8.15901C13.919 7.73705 13.3467 7.5 12.75 7.5ZM3.75 5.0325C3.75 4.09562 4.12217 3.19712 4.78465 2.53465C5.44712 1.87217 6.34562 1.5 7.2825 1.5H7.7175C8.65438 1.5 9.55288 1.87217 10.2154 2.53465C10.8778 3.19712 11.25 4.09562 11.25 5.0325V7.5H3.75V5.0325ZM13.5 16.725C13.5 17.461 13.2076 18.1668 12.6872 18.6872C12.1668 19.2076 11.461 19.5 10.725 19.5H4.275C3.53902 19.5 2.83319 19.2076 2.31278 18.6872C1.79237 18.1668 1.5 17.461 1.5 16.725V9.75C1.5 9.55109 1.57902 9.36032 1.71967 9.21967C1.86032 9.07902 2.05109 9 2.25 9H12.75C12.9489 9 13.1397 9.07902 13.2803 9.21967C13.421 9.36032 13.5 9.55109 13.5 9.75V16.725Z" fill="black"/>
<path d="M8.25 14.0401V16.5001C8.25 16.699 8.17098 16.8898 8.03033 17.0305C7.88968 17.1711 7.69891 17.2501 7.5 17.2501C7.30109 17.2501 7.11032 17.1711 6.96967 17.0305C6.82902 16.8898 6.75 16.699 6.75 16.5001V14.0401C6.46404 13.875 6.24054 13.6202 6.11418 13.3151C5.98782 13.01 5.96565 12.6718 6.05111 12.3529C6.13657 12.0339 6.32489 11.7521 6.58686 11.5511C6.84882 11.35 7.1698 11.2411 7.5 11.2411C7.8302 11.2411 8.15118 11.35 8.41314 11.5511C8.67511 11.7521 8.86343 12.0339 8.94889 12.3529C9.03435 12.6718 9.01218 13.01 8.88582 13.3151C8.75946 13.6202 8.53596 13.875 8.25 14.0401Z" fill="black"/>
</svg>
