<svg width="18" height="19" viewBox="0 0 18 19" fill="none" xmlns="http://www.w3.org/2000/svg">
<path d="M12.7607 2.4716L12.3618 3.1365C12.3065 3.2313 12.2896 3.34368 12.3147 3.45052C12.3397 3.55737 12.4048 3.65054 12.4965 3.71088C13.7234 4.5478 14.6499 5.75577 15.1401 7.15768C15.6304 8.55959 15.6586 10.0817 15.2207 11.5008C14.7828 12.92 13.9017 14.1615 12.7067 15.0433C11.5117 15.9252 10.0656 16.401 8.58042 16.401C7.09525 16.401 5.64915 15.9252 4.45414 15.0433C3.25912 14.1615 2.37806 12.92 1.94013 11.5008C1.5022 10.0817 1.53044 8.55959 2.0207 7.15768C2.51097 5.75577 3.43748 4.5478 4.66438 3.71088C4.75585 3.65048 4.82074 3.55736 4.84571 3.45062C4.87068 3.34388 4.85383 3.23164 4.79864 3.13693L4.40142 2.47374C4.37163 2.42359 4.33204 2.37996 4.28501 2.34545C4.23799 2.31095 4.18449 2.28627 4.12772 2.2729C4.07094 2.25952 4.01205 2.25773 3.95457 2.26762C3.89708 2.27751 3.84218 2.29889 3.79314 2.33047C2.2673 3.35614 1.1113 4.84485 0.495517 6.5772C-0.120264 8.30955 -0.163252 10.1939 0.372887 11.9525C0.909026 13.7111 1.99593 15.251 3.47342 16.3452C4.9509 17.4394 6.74081 18.03 8.57934 18.03C10.4179 18.03 12.2078 17.4394 13.6853 16.3452C15.1628 15.251 16.2497 13.7111 16.7858 11.9525C17.3219 10.1939 17.279 8.30955 16.6632 6.5772C16.0474 4.84485 14.8914 3.35614 13.3655 2.33047C13.317 2.29863 13.2625 2.27698 13.2053 2.26684C13.1481 2.2567 13.0894 2.25828 13.0329 2.27148C12.9763 2.28467 12.9231 2.30921 12.8763 2.34361C12.8295 2.37801 12.7902 2.42155 12.7607 2.4716Z" fill="#EB3D00"/>
<path d="M9.00771 0H8.14978C7.91287 0 7.72081 0.192055 7.72081 0.428967V8.15037C7.72081 8.38729 7.91287 8.57934 8.14978 8.57934H9.00771C9.24462 8.57934 9.43668 8.38729 9.43668 8.15037V0.428967C9.43668 0.192055 9.24462 0 9.00771 0Z" fill="#EB3D00"/>
</svg>
