<svg width="26" height="26" viewBox="0 0 26 26" fill="none" xmlns="http://www.w3.org/2000/svg">
<path d="M22.7369 2.39812V1.78246C22.7357 1.31011 22.5499 0.857455 22.2201 0.523449C21.8904 0.189443 21.4436 0.00124778 20.9773 0C20.5108 0.000515234 20.0635 0.188475 19.7336 0.522639C19.4037 0.856804 19.2182 1.30988 19.2177 1.78246V2.3692H17.4169V1.78246C17.4169 1.3102 17.2319 0.857249 16.9025 0.523053C16.5731 0.188856 16.1262 0.000736749 15.66 0C15.1935 0.000588673 14.7463 0.188572 14.4164 0.522721C14.0866 0.856869 13.901 1.3099 13.9004 1.78246V2.3692H12.0996V1.78246C12.0996 1.54857 12.0541 1.31696 11.9658 1.10087C11.8774 0.884785 11.7479 0.688441 11.5847 0.523054C11.4214 0.357666 11.2276 0.226473 11.0142 0.136966C10.8009 0.0474592 10.5723 0.00139014 10.3414 0.00139014C10.1105 0.00139014 9.88186 0.0474592 9.66854 0.136966C9.45522 0.226473 9.2614 0.357666 9.09813 0.523054C8.93486 0.688441 8.80536 0.884785 8.717 1.10087C8.62864 1.31696 8.58316 1.54857 8.58316 1.78246V2.3692H6.78237V1.78246C6.78114 1.31011 6.59536 0.857455 6.26564 0.523449C5.93591 0.189443 5.48906 0.00124778 5.02276 0C4.55627 0.000588673 4.10904 0.188572 3.77918 0.522721C3.44931 0.856869 3.26374 1.3099 3.26316 1.78246V2.39812C2.40961 2.50474 1.62389 2.92348 1.05369 3.57565C0.483479 4.22782 0.168051 5.0685 0.166687 5.93968V22.4295C0.167777 23.3761 0.539478 24.2837 1.20025 24.953C1.86103 25.6224 2.75692 25.9989 3.69139 26H22.3086C23.2431 25.9989 24.139 25.6224 24.7998 24.953C25.4606 24.2837 25.8323 23.3761 25.8334 22.4295V5.93968C25.832 5.0685 25.5166 4.22782 24.9464 3.57565C24.3761 2.92348 23.5904 2.50474 22.7369 2.39812ZM20.1785 1.78246C20.1787 1.56794 20.263 1.36229 20.4127 1.2106C20.5625 1.05891 20.7655 0.973556 20.9773 0.973262C21.1887 0.974575 21.3912 1.06025 21.5407 1.21172C21.6902 1.36319 21.7748 1.56825 21.7761 1.78246V3.9292C21.7761 4.14381 21.6919 4.34963 21.5421 4.50139C21.3923 4.65314 21.1891 4.7384 20.9773 4.7384C20.7654 4.7384 20.5622 4.65314 20.4124 4.50139C20.2626 4.34963 20.1785 4.14381 20.1785 3.9292V1.78246ZM14.8612 1.78246C14.8614 1.56791 14.9456 1.36222 15.0954 1.21051C15.2452 1.05881 15.4482 0.973483 15.66 0.973262C15.8714 0.973925 16.0739 1.05948 16.2232 1.21117C16.3724 1.36286 16.4562 1.56831 16.4561 1.78246V3.9292C16.4561 4.14344 16.3721 4.34891 16.2225 4.5004C16.073 4.6519 15.8701 4.73701 15.6586 4.73701C15.4471 4.73701 15.2443 4.6519 15.0948 4.5004C14.9452 4.34891 14.8612 4.14344 14.8612 3.9292V1.78246ZM9.54394 1.78246C9.54394 1.56822 9.62796 1.36275 9.77751 1.21125C9.92706 1.05976 10.1299 0.974652 10.3414 0.974652C10.5529 0.974652 10.7557 1.05976 10.9053 1.21125C11.0548 1.36275 11.1388 1.56822 11.1388 1.78246V3.9292C11.1388 4.14344 11.0548 4.34891 10.9053 4.5004C10.7557 4.6519 10.5529 4.73701 10.3414 4.73701C10.1299 4.73701 9.92706 4.6519 9.77751 4.5004C9.62796 4.34891 9.54394 4.14344 9.54394 3.9292V1.78246ZM4.22394 1.78246C4.22416 1.56791 4.30839 1.36222 4.45815 1.21051C4.60791 1.05881 4.81097 0.973483 5.02276 0.973262C5.23423 0.974575 5.43666 1.06025 5.58619 1.21172C5.73571 1.36319 5.82029 1.56825 5.82159 1.78246V3.9292C5.82159 4.14381 5.73743 4.34963 5.58762 4.50139C5.43781 4.65314 5.23463 4.7384 5.02276 4.7384C4.8109 4.7384 4.60772 4.65314 4.45791 4.50139C4.3081 4.34963 4.22394 4.14381 4.22394 3.9292V1.78246ZM3.26316 3.38167V3.9292C3.26316 4.40194 3.44854 4.85531 3.77853 5.18959C4.10853 5.52386 4.55609 5.71166 5.02276 5.71166C5.48944 5.71166 5.93701 5.52386 6.267 5.18959C6.59699 4.85531 6.78237 4.40194 6.78237 3.9292V3.34246H8.58316V3.9292C8.58316 4.40157 8.7684 4.85459 9.09813 5.1886C9.42787 5.52262 9.87508 5.71027 10.3414 5.71027C10.8077 5.71027 11.2549 5.52262 11.5847 5.1886C11.9144 4.85459 12.0996 4.40157 12.0996 3.9292V3.34246H13.9004V3.9292C13.9004 4.40157 14.0857 4.85459 14.4154 5.1886C14.7451 5.52262 15.1923 5.71027 15.6586 5.71027C16.125 5.71027 16.5722 5.52262 16.9019 5.1886C17.2316 4.85459 17.4169 4.40157 17.4169 3.9292V3.34246H19.2177V3.9292C19.2177 4.40194 19.4031 4.85531 19.733 5.18959C20.063 5.52386 20.5106 5.71166 20.9773 5.71166C21.444 5.71166 21.8915 5.52386 22.2215 5.18959C22.5515 4.85531 22.7369 4.40194 22.7369 3.9292V3.38167C23.3335 3.4845 23.8751 3.79765 24.2659 4.26577C24.6567 4.7339 24.8716 5.32688 24.8726 5.93996V7.40458H1.12747V5.93968C1.12854 5.32665 1.34346 4.73374 1.73425 4.26567C2.12504 3.7976 2.66656 3.48449 3.26316 3.38167ZM22.3086 25.0267H3.69139C3.01164 25.0259 2.35996 24.752 1.87931 24.2651C1.39865 23.7782 1.12827 23.1181 1.12747 22.4295V8.3784H24.8726V22.4295C24.8718 23.1181 24.6014 23.7782 24.1207 24.2651C23.6401 24.752 22.9884 25.0259 22.3086 25.0267Z" />
<path d="M6.87406 10.8129H4.93437C4.59669 10.8134 4.27297 10.9495 4.03419 11.1913C3.79542 11.4332 3.66108 11.7611 3.66064 12.1032V14.0681C3.66108 14.4102 3.79542 14.7381 4.03419 14.98C4.27297 15.2218 4.59669 15.3579 4.93437 15.3584H6.87406C7.21173 15.3579 7.53546 15.2218 7.77423 14.98C8.01301 14.7381 8.14735 14.4102 8.14778 14.0681V12.1032C8.14735 11.7611 8.01301 11.4332 7.77423 11.1913C7.53546 10.9495 7.21173 10.8134 6.87406 10.8129ZM7.187 14.0681C7.18692 14.1521 7.15393 14.2327 7.09526 14.2922C7.03659 14.3516 6.95703 14.385 6.87406 14.3851H4.93437C4.85139 14.385 4.77184 14.3516 4.71317 14.2922C4.6545 14.2327 4.6215 14.1521 4.62143 14.0681V12.1032C4.6215 12.0192 4.6545 11.9386 4.71317 11.8791C4.77184 11.8197 4.85139 11.7863 4.93437 11.7862H6.87406C6.95703 11.7863 7.03659 11.8197 7.09526 11.8791C7.15393 11.9386 7.18692 12.0192 7.187 12.1032V14.0681Z" />
<path d="M13.9698 10.8129H12.0301C11.6925 10.8134 11.3687 10.9495 11.13 11.1913C10.8912 11.4332 10.7568 11.7611 10.7564 12.1032V14.0681C10.7568 14.4102 10.8912 14.7381 11.13 14.98C11.3687 15.2218 11.6925 15.3579 12.0301 15.3584H13.9698C14.3075 15.3579 14.6312 15.2218 14.87 14.98C15.1088 14.7381 15.2431 14.4102 15.2435 14.0681V12.1032C15.2431 11.7611 15.1088 11.4332 14.87 11.1913C14.6312 10.9495 14.3075 10.8134 13.9698 10.8129ZM14.2828 14.0681C14.2827 14.1521 14.2497 14.2327 14.191 14.2922C14.1324 14.3516 14.0528 14.385 13.9698 14.3851H12.0301C11.9472 14.385 11.8676 14.3516 11.8089 14.2922C11.7503 14.2327 11.7173 14.1521 11.7172 14.0681V12.1032C11.7173 12.0192 11.7503 11.9386 11.8089 11.8791C11.8676 11.8197 11.9472 11.7863 12.0301 11.7862H13.9698C14.0528 11.7863 14.1324 11.8197 14.191 11.8791C14.2497 11.9386 14.2827 12.0192 14.2828 12.1032V14.0681Z"/>
<path d="M21.6883 11.4786L19.5333 13.6604L18.5023 12.616C18.4117 12.5273 18.2903 12.4783 18.1644 12.4795C18.0384 12.4806 17.9179 12.5318 17.8289 12.622C17.7398 12.7123 17.6893 12.8343 17.6882 12.9619C17.6872 13.0895 17.7356 13.2124 17.8232 13.3042L19.1938 14.6926C19.2384 14.7379 19.2913 14.7737 19.3496 14.7982C19.4079 14.8227 19.4704 14.8353 19.5335 14.8353C19.5966 14.8353 19.6591 14.8227 19.7174 14.7982C19.7756 14.7737 19.8286 14.7379 19.8732 14.6926L22.3677 12.1658C22.4578 12.0745 22.5084 11.9507 22.5084 11.8216C22.5084 11.6926 22.4578 11.5688 22.3677 11.4775C22.2776 11.3863 22.1554 11.335 22.028 11.335C21.9005 11.335 21.7783 11.3863 21.6883 11.4775V11.4786Z" />
<path d="M6.87406 17.5162H4.93437C4.59669 17.5167 4.27297 17.6527 4.03419 17.8946C3.79542 18.1365 3.66108 18.4644 3.66064 18.8065V20.7714C3.66108 21.1134 3.79542 21.4414 4.03419 21.6832C4.27297 21.9251 4.59669 22.0612 4.93437 22.0616H6.87406C7.21173 22.0612 7.53546 21.9251 7.77423 21.6832C8.01301 21.4414 8.14735 21.1134 8.14778 20.7714V18.8065C8.14735 18.4644 8.01301 18.1365 7.77423 17.8946C7.53546 17.6527 7.21173 17.5167 6.87406 17.5162ZM7.187 20.7714C7.18692 20.8554 7.15393 20.936 7.09526 20.9954C7.03659 21.0549 6.95703 21.0883 6.87406 21.0884H4.93437C4.85139 21.0883 4.77184 21.0549 4.71317 20.9954C4.6545 20.936 4.6215 20.8554 4.62143 20.7714V18.8065C4.6215 18.7224 4.6545 18.6418 4.71317 18.5824C4.77184 18.523 4.85139 18.4896 4.93437 18.4895H6.87406C6.95703 18.4896 7.03659 18.523 7.09526 18.5824C7.15393 18.6418 7.18692 18.7224 7.187 18.8065V20.7714Z" />
<path d="M13.9698 17.5162H12.0301C11.6925 17.5167 11.3687 17.6527 11.13 17.8946C10.8912 18.1365 10.7568 18.4644 10.7564 18.8065V20.7714C10.7568 21.1134 10.8912 21.4414 11.13 21.6832C11.3687 21.9251 11.6925 22.0612 12.0301 22.0616H13.9698C14.3075 22.0612 14.6312 21.9251 14.87 21.6832C15.1088 21.4414 15.2431 21.1134 15.2435 20.7714V18.8065C15.2431 18.4644 15.1088 18.1365 14.87 17.8946C14.6312 17.6527 14.3075 17.5167 13.9698 17.5162ZM14.2828 20.7714C14.2827 20.8554 14.2497 20.936 14.191 20.9954C14.1324 21.0549 14.0528 21.0883 13.9698 21.0884H12.0301C11.9472 21.0883 11.8676 21.0549 11.8089 20.9954C11.7503 20.936 11.7173 20.8554 11.7172 20.7714V18.8065C11.7173 18.7224 11.7503 18.6418 11.8089 18.5824C11.8676 18.523 11.9472 18.4896 12.0301 18.4895H13.9698C14.0528 18.4896 14.1324 18.523 14.191 18.5824C14.2497 18.6418 14.2827 18.7224 14.2828 18.8065V20.7714Z" />
<path d="M21.0656 17.5162H19.126C18.7883 17.5167 18.4646 17.6527 18.2258 17.8946C17.987 18.1365 17.8527 18.4644 17.8522 18.8065V20.7714C17.8527 21.1134 17.987 21.4414 18.2258 21.6832C18.4646 21.9251 18.7883 22.0612 19.126 22.0616H21.0656C21.4033 22.0612 21.727 21.9251 21.9658 21.6832C22.2046 21.4414 22.3389 21.1134 22.3394 20.7714V18.8065C22.3389 18.4644 22.2046 18.1365 21.9658 17.8946C21.727 17.6527 21.4033 17.5167 21.0656 17.5162ZM21.3786 20.7714C21.3785 20.8554 21.3455 20.936 21.2868 20.9954C21.2282 21.0549 21.1486 21.0883 21.0656 21.0884H19.126C19.043 21.0883 18.9634 21.0549 18.9048 20.9954C18.8461 20.936 18.8131 20.8554 18.813 20.7714V18.8065C18.8131 18.7224 18.8461 18.6418 18.9048 18.5824C18.9634 18.523 19.043 18.4896 19.126 18.4895H21.0656C21.1486 18.4896 21.2282 18.523 21.2868 18.5824C21.3455 18.6418 21.3785 18.7224 21.3786 18.8065V20.7714Z" />
</svg>
