<svg width="19" height="18" viewBox="0 0 19 18" fill="none" xmlns="http://www.w3.org/2000/svg">
<path d="M5.16236 17.5435C5.39256 17.5436 5.6193 17.4866 5.82276 17.3773L9.60266 15.3613C9.63196 15.3454 9.66466 15.3371 9.69787 15.3371C9.73109 15.3371 9.76379 15.3454 9.79308 15.3613L13.5724 17.3773C13.8066 17.5024 14.0706 17.5584 14.3346 17.5391C14.5985 17.5198 14.8519 17.4259 15.066 17.2681C15.2801 17.1103 15.4464 16.8947 15.5461 16.646C15.6458 16.3972 15.6748 16.1251 15.63 15.8604L14.9084 11.5902C14.9028 11.5567 14.9054 11.5224 14.916 11.4902C14.9266 11.458 14.9448 11.429 14.969 11.4056L18.0242 8.3797C18.2139 8.19216 18.348 7.95446 18.4114 7.69353C18.4748 7.43259 18.4649 7.15886 18.3829 6.90334C18.3008 6.64782 18.1499 6.42073 17.9471 6.2478C17.7444 6.07487 17.498 5.96302 17.2358 5.92491L13.0132 5.30275C12.9804 5.2979 12.9492 5.285 12.9224 5.26516C12.8955 5.24533 12.8738 5.21915 12.8592 5.18891L10.9714 1.30272C10.8545 1.0618 10.6734 0.858927 10.4487 0.717059C10.224 0.575191 9.96464 0.5 9.7 0.5C9.43536 0.5 9.176 0.575191 8.9513 0.717059C8.7266 0.858927 8.54554 1.0618 8.42861 1.30272L6.53957 5.18767C6.52481 5.21783 6.5031 5.24392 6.47629 5.26374C6.44947 5.28356 6.41834 5.29652 6.38553 5.30152L2.1593 5.9243C1.89727 5.96262 1.65103 6.0746 1.44846 6.24755C1.24588 6.42051 1.09504 6.64754 1.01301 6.90297C0.930983 7.15839 0.92103 7.43202 0.984283 7.69288C1.04754 7.95375 1.18147 8.19145 1.37093 8.37909L4.42918 11.4031C4.45331 11.4266 4.47145 11.4556 4.48201 11.4878C4.49258 11.52 4.49526 11.5543 4.48982 11.5877L3.76817 15.8579C3.73345 16.0642 3.74345 16.2758 3.79749 16.4778C3.85152 16.6798 3.94829 16.8674 4.08104 17.0276C4.2138 17.1878 4.37936 17.3167 4.56621 17.4054C4.75305 17.4941 4.9567 17.5403 5.16296 17.541L5.16236 17.5435ZM9.69787 14.1059C9.46788 14.1059 9.24136 14.1629 9.03807 14.2721L5.25878 16.2875C5.22533 16.3069 5.18696 16.3158 5.14853 16.313C5.1101 16.3103 5.07333 16.296 5.04289 16.2721C5.01112 16.25 4.98643 16.2189 4.97188 16.1827C4.95733 16.1465 4.95355 16.1067 4.96102 16.0684L5.68328 11.7976C5.72187 11.5677 5.70494 11.3318 5.63397 11.1101C5.56299 10.8883 5.44007 10.6873 5.27576 10.5243L2.21752 7.4997C2.19021 7.47256 2.17093 7.43823 2.16184 7.40056C2.15275 7.3629 2.15421 7.32341 2.16607 7.28654C2.17792 7.24968 2.1997 7.21691 2.22894 7.19194C2.25817 7.16697 2.29371 7.15079 2.33152 7.14523L6.55715 6.52184C6.78465 6.48841 7.00071 6.39928 7.18667 6.26215C7.37263 6.12502 7.52289 5.94401 7.62448 5.73476L9.51594 1.84918C9.53288 1.81441 9.55906 1.78514 9.59154 1.76467C9.62401 1.7442 9.66147 1.73336 9.69969 1.73336C9.73792 1.73336 9.77538 1.7442 9.80785 1.76467C9.84032 1.78514 9.8665 1.81441 9.88344 1.84918L11.7713 5.73353C11.8729 5.94286 12.0233 6.12392 12.2093 6.26105C12.3954 6.39819 12.6116 6.48728 12.8392 6.52061L17.0642 7.14523C17.1021 7.15067 17.1377 7.1668 17.1671 7.19178C17.1964 7.21676 17.2182 7.24959 17.23 7.28653C17.2418 7.32348 17.2432 7.36304 17.2339 7.40073C17.2246 7.43841 17.2051 7.4727 17.1776 7.4997L14.12 10.5243C13.9557 10.6873 13.8328 10.8883 13.7618 11.1101C13.6908 11.3318 13.6739 11.5677 13.7125 11.7976L14.4347 16.0684C14.4413 16.1068 14.4371 16.1462 14.4226 16.1823C14.4082 16.2184 14.384 16.2496 14.3529 16.2724C14.3218 16.2952 14.285 16.3088 14.2468 16.3114C14.2085 16.3141 14.1702 16.3058 14.1364 16.2875L10.3577 14.2714C10.1542 14.1627 9.92779 14.1059 9.69787 14.1059Z" />
</svg>
