<svg width="26" height="18" viewBox="0 0 26 18" fill="none" xmlns="http://www.w3.org/2000/svg">
<path d="M13 6.41625C13.0758 6.4121 13.1517 6.4121 13.2275 6.41625L13.3738 5.1975C13.2498 5.18253 13.1249 5.17575 13 5.17719C12.4991 5.17772 12.0032 5.27711 11.5408 5.46966C11.0784 5.66222 10.6585 5.94414 10.3052 6.29929C9.95197 6.65443 9.67228 7.0758 9.4822 7.53924C9.29211 8.00269 9.19536 8.4991 9.1975 9C9.19605 9.12625 9.20284 9.25246 9.21782 9.37782L10.4366 9.22344C10.4324 9.14902 10.4324 9.07443 10.4366 9C10.4365 8.31826 10.706 7.66413 11.1861 7.18016C11.6663 6.69619 12.3183 6.42161 13 6.41625Z" fill="#737272"/>
<path d="M6.26843 12.7334C4.83408 11.6487 3.53556 10.3952 2.40093 9C3.53031 7.61062 7.90968 2.67468 13 2.67468C14.0938 2.68629 15.1767 2.89406 16.1972 3.28812L16.6237 2.14656C15.4671 1.70072 14.2396 1.46678 13 1.45593C6.49999 1.45593 1.34874 8.36218 1.13343 8.63843L0.86937 9L1.13343 9.36156C2.40115 11.0002 3.88218 12.4621 5.53718 13.7084L6.26843 12.7334Z" fill="#737272"/>
<path d="M24.8666 8.6384C23.5988 6.99973 22.1178 5.53784 20.4628 4.29152C20.0972 4.01934 19.7194 3.76746 19.3375 3.52371L21.5556 1.30559L20.6944 0.444336L4.44437 16.6943L5.30562 17.5556L7.74312 15.1181C8.26895 15.3991 8.81165 15.6474 9.36812 15.8615C10.5284 16.3038 11.7584 16.5349 13 16.544C19.5 16.544 24.6512 9.63777 24.8666 9.36152L25.1306 8.99996L24.8666 8.6384ZM15.5716 8.77652C15.5757 8.85095 15.5757 8.92554 15.5716 8.99996C15.5716 9.68311 15.301 10.3385 14.8191 10.8227C14.3372 11.3069 13.6831 11.5805 13 11.5837H12.7562C12.3677 11.5435 11.993 11.4172 11.6594 11.214L15.2019 7.67559C15.4059 8.01029 15.5322 8.38651 15.5716 8.77652ZM13 15.3253C11.9079 15.3134 10.8266 15.1071 9.80687 14.7159C9.42499 14.5696 9.03905 14.399 8.65312 14.2081L10.7778 12.0834C11.3204 12.4774 11.9587 12.7187 12.6262 12.7822C12.7507 12.7903 12.8755 12.7903 13 12.7822C14.0046 12.7811 14.9681 12.3829 15.6804 11.6744C16.3927 10.9659 16.7961 10.0046 16.8025 8.99996C16.8114 8.88232 16.8114 8.76417 16.8025 8.64652C16.7412 7.97225 16.4999 7.32683 16.1037 6.77777L18.4722 4.40934C18.9069 4.67746 19.3375 4.95777 19.7519 5.26652C21.1791 6.35251 22.4707 7.60597 23.5991 8.99996C22.4697 10.3893 18.0903 15.3253 13 15.3253Z" fill="#737272"/>
</svg>
