<svg width="32" height="33" viewBox="0 0 32 33" fill="none" xmlns="http://www.w3.org/2000/svg">
<path fill-rule="evenodd" clip-rule="evenodd" d="M17.6959 6.21305C17.6959 2.95534 15.055 0.314453 11.7973 0.314453L11.4736 0.323143C8.36639 0.491176 5.89859 3.06396 5.89859 6.21305C5.89859 9.47084 8.53956 12.1117 11.7973 12.1117L12.1209 12.103C15.2281 11.935 17.6959 9.36222 17.6959 6.21305ZM13.4826 25.5944C13.4826 27.4362 13.975 29.163 14.8354 30.6504H0V24.5832C0 19.6826 3.76576 15.6867 8.48323 15.49L8.84789 15.4824H14.7466C16.2818 15.4824 17.7258 15.8846 18.9843 16.5921C15.7177 18.2684 13.4826 21.6704 13.4826 25.5944ZM18.6415 32.4117L23.5945 29.3864L28.5476 32.4117L27.201 26.7661L31.6087 22.9904L25.8234 22.5266L23.5945 17.1677L21.3656 22.5266L15.5803 22.9904L19.9881 26.7661L18.6415 32.4117Z" fill="#640D5F"/>
</svg>
