<svg width="18" height="18" viewBox="0 0 18 18" fill="none" xmlns="http://www.w3.org/2000/svg">
<path d="M8.86908 10.1387C3.53008 10.1387 0.589722 12.6972 0.589722 17.3431C0.589722 17.7059 0.880034 18 1.23823 18H16.4999C16.8581 18 17.1484 17.7059 17.1484 17.3431C17.1484 12.6975 14.2081 10.1387 8.86908 10.1387ZM1.91034 16.6861C2.16542 13.2125 4.50329 11.4526 8.86908 11.4526C13.2349 11.4526 15.5728 13.2125 15.8281 16.6861H1.91034Z" fill="white"/>
<path d="M8.86911 0C6.41664 0 4.56732 1.91102 4.56732 4.44505C4.56732 7.0533 6.49709 9.17498 8.86911 9.17498C11.2411 9.17498 13.1709 7.0533 13.1709 4.44526C13.1709 1.91102 11.3216 0 8.86911 0ZM8.86911 7.86133C7.21216 7.86133 5.86434 6.3289 5.86434 4.44526C5.86434 2.63081 7.12807 1.31386 8.86911 1.31386C10.5823 1.31386 11.8739 2.65992 11.8739 4.44526C11.8739 6.3289 10.5261 7.86133 8.86911 7.86133Z" fill="white"/>
</svg>
