<svg width="20" height="20" viewBox="0 0 20 20" fill="none" xmlns="http://www.w3.org/2000/svg">
<g clip-path="url(#clip0_2502_73)">
<path d="M14.6562 13.0813C14.4821 12.9065 14.2751 12.7678 14.0472 12.6731C13.8192 12.5785 13.5749 12.5298 13.3281 12.5298C13.0813 12.5298 12.837 12.5785 12.6091 12.6731C12.3812 12.7678 12.1742 12.9065 12 13.0813L11.0937 13.9875C10.0734 13.3399 9.128 12.5811 8.27499 11.725C7.4207 10.8704 6.66206 9.92523 6.01249 8.90627L6.91874 8.00002C7.09354 7.82582 7.23224 7.61884 7.32687 7.39093C7.42151 7.16302 7.47022 6.91867 7.47022 6.67189C7.47022 6.42512 7.42151 6.18077 7.32687 5.95286C7.23224 5.72495 7.09354 5.51796 6.91874 5.34377L5.14999 3.58127C4.97826 3.40589 4.77302 3.26683 4.54648 3.17234C4.31993 3.07786 4.0767 3.02988 3.83124 3.03127C3.58405 3.03066 3.33917 3.07894 3.1107 3.17334C2.88223 3.26773 2.67468 3.40636 2.49999 3.58127L1.64999 4.42502C1.24485 4.86062 0.942477 5.38148 0.765098 5.94931C0.587719 6.51714 0.539845 7.1175 0.624995 7.70627C0.824995 10.05 2.36249 12.8688 4.73125 15.2438C7.09999 17.6188 9.95 19.15 12.2937 19.375C12.4686 19.3844 12.6439 19.3844 12.8187 19.375C13.3233 19.3962 13.8269 19.3164 14.3002 19.1404C14.7735 18.9644 15.2069 18.6957 15.575 18.35L16.4187 17.5C16.5937 17.3253 16.7323 17.1178 16.8267 16.8893C16.9211 16.6608 16.9694 16.416 16.9687 16.1688C16.9701 15.9233 16.9222 15.6801 16.8277 15.4535C16.7332 15.227 16.5941 15.0218 16.4187 14.85L14.6562 13.0813ZM15.5375 16.6188L14.6875 17.4625C14.3732 17.7244 14.0063 17.9158 13.6117 18.0236C13.217 18.1315 12.8038 18.1532 12.4 18.0875C10.3687 17.9125 7.78124 16.475 5.64374 14.3375C3.50624 12.2 2.06874 9.63127 1.87499 7.60002C1.80759 7.19621 1.82857 6.7826 1.93647 6.38768C2.04437 5.99277 2.23663 5.62595 2.49999 5.31252L3.38124 4.46252C3.43964 4.40459 3.5089 4.35876 3.58505 4.32766C3.6612 4.29656 3.74274 4.28079 3.82499 4.28127C3.90725 4.28079 3.98879 4.29656 4.06494 4.32766C4.14108 4.35876 4.21034 4.40459 4.26874 4.46252L6.03749 6.25002C6.1539 6.36712 6.21924 6.52553 6.21924 6.69064C6.21924 6.85576 6.1539 7.01417 6.03749 7.13127L4.78749 8.38127C4.68968 8.4786 4.62683 8.60557 4.60874 8.74237C4.59065 8.87917 4.61834 9.01811 4.68749 9.13752C5.43586 10.4115 6.34545 11.5837 7.39374 12.625C8.43504 13.6733 9.60721 14.5829 10.8812 15.3313C11.0007 15.4004 11.1396 15.4281 11.2764 15.41C11.4132 15.3919 11.5402 15.3291 11.6375 15.2313L12.8875 13.9813C13.0046 13.8649 13.163 13.7995 13.3281 13.7995C13.4932 13.7995 13.6516 13.8649 13.7687 13.9813L15.5375 15.75C15.5954 15.8084 15.6412 15.8777 15.6724 15.9538C15.7035 16.03 15.7192 16.1115 15.7187 16.1938C15.7148 16.3534 15.65 16.5055 15.5375 16.6188ZM16.625 3.36877C15.7564 2.49688 14.7238 1.80554 13.5868 1.33463C12.4497 0.863722 11.2307 0.622549 9.99999 0.625019C9.83423 0.625019 9.67526 0.690867 9.55805 0.808077C9.44084 0.925287 9.37499 1.08426 9.37499 1.25002C9.37499 1.41578 9.44084 1.57475 9.55805 1.69196C9.67526 1.80917 9.83423 1.87502 9.99999 1.87502C11.0728 1.87498 12.135 2.0874 13.1253 2.50001C14.1155 2.91262 15.0143 3.51726 15.7697 4.27903C16.5251 5.0408 17.1221 5.94463 17.5264 6.93835C17.9306 7.93207 18.1341 8.99601 18.125 10.0688C18.125 10.2345 18.1908 10.3935 18.3081 10.5107C18.4253 10.6279 18.5842 10.6938 18.75 10.6938C18.9158 10.6938 19.0747 10.6279 19.1919 10.5107C19.3091 10.3935 19.375 10.2345 19.375 10.0688C19.387 8.82498 19.1498 7.59138 18.6775 6.44068C18.2052 5.28999 17.5073 4.24549 16.625 3.36877Z" fill="#EB3D00"/>
<path d="M13.0688 6.9437C13.4235 7.29625 13.704 7.7162 13.894 8.17881C14.084 8.64142 14.1795 9.13737 14.175 9.63745C14.175 9.80321 14.2408 9.96218 14.3581 10.0794C14.4753 10.1966 14.6342 10.2625 14.8 10.2625C14.9658 10.2625 15.1247 10.1966 15.2419 10.0794C15.3592 9.96218 15.425 9.80321 15.425 9.63745C15.4333 8.9756 15.3101 8.3187 15.0625 7.70484C14.8149 7.09097 14.4479 6.53238 13.9828 6.06144C13.5177 5.59051 12.9637 5.21662 12.353 4.96144C11.7422 4.70627 11.0869 4.5749 10.425 4.57495C10.2592 4.57495 10.1003 4.6408 9.98306 4.75801C9.86585 4.87522 9.8 5.03419 9.8 5.19995C9.8 5.36571 9.86585 5.52468 9.98306 5.64189C10.1003 5.7591 10.2592 5.82495 10.425 5.82495C10.9176 5.82866 11.4045 5.92937 11.8582 6.12133C12.3118 6.31329 12.7232 6.59273 13.0688 6.9437Z" fill="#EB3D00"/>
</g>
<defs>
<clipPath id="clip0_2502_73">
<rect width="20" height="20" fill="white"/>
</clipPath>
</defs>
</svg>
