<svg width="10" height="10" viewBox="0 0 10 10" fill="none" xmlns="http://www.w3.org/2000/svg">
<path d="M8.87211 4.15617H5.77375V1.05781C5.77375 0.630234 5.4275 0.283203 4.99914 0.283203C4.57078 0.283203 4.22453 0.630234 4.22453 1.05781V4.15617H1.12617C0.697813 4.15617 0.351562 4.5032 0.351562 4.93078C0.351562 5.35836 0.697813 5.70539 1.12617 5.70539H4.22453V8.80375C4.22453 9.23133 4.57078 9.57836 4.99914 9.57836C5.4275 9.57836 5.77375 9.23133 5.77375 8.80375V5.70539H8.87211C9.30047 5.70539 9.64672 5.35836 9.64672 4.93078C9.64672 4.5032 9.30047 4.15617 8.87211 4.15617Z" />
</svg>
