<svg width="19" height="21" viewBox="0 0 19 21" fill="none" xmlns="http://www.w3.org/2000/svg">
<path d="M17.9439 3.17598C17.8992 3.1245 17.8445 3.08268 17.7831 3.0531C17.7218 3.02353 17.655 3.00681 17.5869 3.00398C17.5369 3.00398 12.5959 2.80398 9.35388 0.114982C9.26418 0.0406674 9.15136 0 9.03488 0C8.9184 0 8.80557 0.0406674 8.71588 0.114982C5.47388 2.81098 0.534878 3.00398 0.482878 3.00398C0.41505 3.00631 0.348405 3.02241 0.287003 3.05133C0.225601 3.08024 0.170727 3.12135 0.125726 3.17215C0.0807237 3.22295 0.0465354 3.28238 0.0252434 3.34683C0.00395137 3.41127 -0.00399859 3.47937 0.00187787 3.54698C0.00187787 3.54698 0.464878 8.89098 0.661878 11.103C0.861878 13.282 1.22088 17.335 8.81988 20.952C8.88715 20.9836 8.96056 20.9999 9.03488 20.9999C9.1092 20.9999 9.1826 20.9836 9.24988 20.952C16.8499 17.335 17.2129 13.282 17.4079 11.103C17.6079 8.89098 18.0679 3.54698 18.0679 3.54698C18.0732 3.47998 18.065 3.4126 18.0437 3.34885C18.0224 3.28511 17.9884 3.22631 17.9439 3.17598ZM16.4119 11.019C16.2359 12.978 15.9119 16.606 9.03488 19.949C2.15788 16.606 1.83488 12.978 1.65788 11.019C1.49788 9.21898 1.15788 5.35898 1.04188 3.97298C3.91021 3.75601 6.66905 2.77922 9.03488 1.14298C11.4007 2.77922 14.1595 3.75601 17.0279 3.97298C16.9079 5.35898 16.5719 9.22198 16.4119 11.019ZM8.32288 11.464L10.8679 8.42498C10.953 8.32314 11.0751 8.25929 11.2073 8.24747C11.3395 8.23566 11.471 8.27685 11.5729 8.36198C11.6747 8.44712 11.7386 8.56922 11.7504 8.70143C11.7622 8.83365 11.721 8.96514 11.6359 9.06698L8.69088 12.582C8.64397 12.6383 8.58527 12.6836 8.51891 12.7147C8.45255 12.7458 8.38017 12.762 8.30688 12.762H8.29788C8.22304 12.7604 8.14951 12.7421 8.08271 12.7084C8.0159 12.6746 7.95752 12.6263 7.91188 12.567L6.42288 10.637C6.38027 10.5853 6.34849 10.5256 6.32942 10.4613C6.31034 10.3971 6.30437 10.3297 6.31185 10.2632C6.31933 10.1966 6.34011 10.1322 6.37296 10.0738C6.40581 10.0154 6.45005 9.96424 6.50307 9.92328C6.55608 9.88233 6.61679 9.85245 6.68158 9.83542C6.74637 9.81838 6.81392 9.81454 6.88022 9.82412C6.94652 9.8337 7.01022 9.8565 7.06754 9.89118C7.12486 9.92586 7.17462 9.9717 7.21388 10.026L8.32288 11.464Z" fill="#EB3D00"/>
</svg>
