<svg width="26" height="25" viewBox="0 0 26 25" fill="none" xmlns="http://www.w3.org/2000/svg">
<g clip-path="url(#clip0_2185_304)">
<path fill-rule="evenodd" clip-rule="evenodd" d="M13.4055 6.75348H5.5238C5.37325 6.75348 5.23524 6.81401 5.1353 6.91179C5.03536 7.00958 4.9735 7.14376 4.9735 7.29192C4.9735 7.43922 5.03536 7.57426 5.1353 7.67204C5.23524 7.76982 5.37238 7.83035 5.5238 7.83035H13.4055C13.5561 7.83035 13.6941 7.76982 13.794 7.67204C13.894 7.57426 13.9558 7.44007 13.9558 7.29192C13.9558 7.14461 13.894 7.00958 13.794 6.91179C13.6941 6.81401 13.5569 6.75348 13.4055 6.75348ZM9.40366 11.9656C12.497 11.9656 15.0045 14.419 15.0045 17.4456C15.0045 20.4722 12.497 22.9256 9.40366 22.9256C6.31033 22.9256 3.80279 20.4722 3.80279 17.4456C3.80279 14.419 6.31033 11.9656 9.40366 11.9656ZM7.23703 6.04107H11.6919L14.5498 1.57316L12.8098 0.737141L9.57628 1.7666V1.76618C9.50619 1.78861 9.42875 1.79031 9.35304 1.7666L6.0806 0.737141L4.37689 1.57104L7.23617 6.04107H7.23703ZM7.27078 8.54234L7.24612 8.57324C4.35007 12.2335 0.727201 16.8132 0.727201 19.5553C0.727201 21.8373 1.65909 23.0124 3.16509 23.6139C4.74939 24.2463 6.98827 24.2873 9.46379 24.2873C11.9298 24.2873 14.1531 24.0279 15.7422 23.2841C17.2607 22.5738 18.2 21.4021 18.2 19.5553C18.2 16.4085 15.3701 13.0031 12.7181 9.81224C12.3542 9.37412 11.9934 8.93982 11.6689 8.54234H7.27034H7.27078ZM20.486 4.10321C20.486 3.90638 20.3233 3.74722 20.1221 3.74722H17.5082C17.307 3.74722 17.1443 3.90638 17.1443 4.10321V7.91967H15.7772C15.576 7.91967 15.4134 8.07883 15.4134 8.27566C15.4134 8.35355 15.4389 8.42551 15.4826 8.48435L18.5115 13.0136C18.6213 13.1779 18.8467 13.2244 19.0146 13.1165C19.06 13.0877 19.0964 13.0505 19.1232 13.0081L22.1573 8.4708C22.2671 8.30656 22.22 8.0856 22.0521 7.97851C21.9907 7.93914 21.9215 7.92051 21.8531 7.92051V7.92009H20.486V4.10363V4.10321ZM19.7579 8.27566V4.4592H17.872V8.27566C17.872 8.4725 17.7093 8.63166 17.5082 8.63166H16.45L18.8156 12.1687L21.1812 8.63166H20.123C19.9218 8.63166 19.7583 8.4725 19.7583 8.27566H19.7579ZM9.46466 23.5296C12.9184 23.5296 15.7184 20.7905 15.7184 17.4109C15.7184 14.0317 12.9179 11.2921 9.46466 11.2921C6.01095 11.2921 3.21095 14.0321 3.21095 17.4109C3.21052 20.7901 6.01052 23.5296 9.46466 23.5296ZM24.2685 12.4253V16.2417H25.6356V16.2421C25.7044 16.2421 25.7736 16.2612 25.8346 16.3001C26.0025 16.4076 26.0501 16.6282 25.9398 16.7928L22.9057 21.3302C22.8785 21.3725 22.8421 21.4098 22.7971 21.4385C22.6293 21.5461 22.4034 21.4999 22.2935 21.3357L19.2647 16.8064C19.2214 16.748 19.1954 16.6756 19.1954 16.5977C19.1954 16.4009 19.3581 16.2417 19.5593 16.2417H20.9264V12.4253C20.9264 12.2284 21.0891 12.0693 21.2903 12.0693H23.9042C24.1054 12.0693 24.2681 12.2288 24.2681 12.4253H24.2685ZM23.5404 16.5981V12.7817H21.6545V16.5981C21.6545 16.795 21.4919 16.9541 21.2907 16.9541H20.2325L22.5981 20.4912L24.9637 16.9541H23.9055C23.7043 16.9541 23.5408 16.7945 23.5408 16.5981H23.5404ZM12.6012 8.54192C12.8305 8.82045 13.0559 9.09136 13.2826 9.36354C16.0143 12.6505 18.9294 16.1583 18.9294 19.5544C18.9294 21.7205 17.8318 23.0924 16.0563 23.9233C14.3521 24.7204 12.0245 24.9989 9.46466 24.9989C6.91385 24.9989 4.60186 24.9549 2.89296 24.2725C1.10532 23.5593 -0.000488281 22.1908 -0.000488281 19.5549C-0.000488281 16.6794 3.44846 12.2166 6.35273 8.54234H5.52337C5.17121 8.54234 4.85192 8.4018 4.6209 8.17534C4.38944 7.94888 4.24581 7.63606 4.24581 7.29192C4.24581 6.94778 4.38944 6.63496 4.6209 6.40807C4.85236 6.18161 5.17207 6.04107 5.52337 6.04107H6.37912L3.54883 1.61506C3.44284 1.44828 3.49519 1.22901 3.66521 1.12573C3.68252 1.11515 3.70026 1.10626 3.71843 1.09864L5.88895 0.036582C5.9772 -0.00659444 6.07455 -0.0112507 6.16194 0.0162637V0.0158404L9.4625 1.05377L12.7241 0.0158404C12.8258 -0.0167536 12.9322 -0.00236146 13.0179 0.0458946L15.2299 1.10837C15.4099 1.1943 15.4843 1.40722 15.3965 1.58247C15.3913 1.59305 15.3852 1.60363 15.3788 1.61379L15.3792 1.61422L12.5489 6.03895H13.4046C13.7568 6.03895 14.0761 6.17949 14.3076 6.40595C14.539 6.63242 14.6826 6.94524 14.6826 7.28938C14.6826 7.63394 14.539 7.94634 14.3076 8.17322C14.0761 8.39969 13.7564 8.54022 13.4046 8.54022H12.6012V8.54107V8.54192Z" fill="#EB3D00"/>
<path d="M11.0741 15.124H7.6554V15.7886H8.86114C9.30373 15.7886 9.68142 16.0663 9.82159 16.4532H7.6554V17.1178H9.82159C9.68142 17.5047 9.30373 17.7823 8.86114 17.7823H7.6554V18.4469L9.64594 20.3945L10.1262 19.9246L8.61584 18.4469H8.86071C9.68055 18.4469 10.3667 17.875 10.5246 17.1178H11.0736V16.4532H10.5246C10.4736 16.2077 10.3667 15.982 10.2183 15.7886H11.0736V15.124H11.0741Z" fill="#EB3D00"/>
</g>
<defs>
<clipPath id="clip0_2185_304">
<rect width="26" height="25" fill="white"/>
</clipPath>
</defs>
</svg>
