<svg width="24" height="23" viewBox="0 0 24 23" fill="none" xmlns="http://www.w3.org/2000/svg">
<g clip-path="url(#clip0_2185_310)">
<path fill-rule="evenodd" clip-rule="evenodd" d="M18.3143 7.85941C18.5205 8.11549 18.7229 8.3649 18.9262 8.61527C21.3806 11.6392 23.9998 14.8664 23.9998 17.9912C23.9998 19.9837 23.0135 21.2464 21.4186 22.0109C19.8874 22.7444 17.7964 23.0004 15.496 23.0004C13.2041 23.0004 11.1269 22.96 9.59139 22.3322C7.98507 21.6758 6.99163 20.4168 6.99163 17.9921C6.99163 15.3466 10.0907 11.2413 12.7 7.86036H11.9546C11.6381 7.86036 11.3512 7.73137 11.1436 7.52289C10.9355 7.31441 10.8067 7.02691 10.8067 6.71038C10.8067 6.39385 10.9355 6.10588 11.1436 5.8974C11.3517 5.68892 11.6386 5.55993 11.9546 5.55993H12.7237L10.1805 1.48789C10.085 1.33415 10.1325 1.13281 10.285 1.03761C10.3002 1.02762 10.3164 1.02 10.3326 1.01286L12.2829 0.0361417C12.3622 -0.00384092 12.4496 -0.00764879 12.528 0.0175783V0.0171024L15.4936 0.971925L18.424 0.0171024C18.5157 -0.0128846 18.6107 0.000442933 18.6882 0.0447094L20.6755 1.0219C20.8371 1.10092 20.9041 1.29655 20.8252 1.45838C20.8205 1.46838 20.8148 1.4779 20.8095 1.48742L20.81 1.48789L18.2668 5.55898H19.036C19.3524 5.55898 19.6393 5.68797 19.847 5.89645C20.0551 6.10493 20.1838 6.3929 20.1838 6.70896C20.1838 7.02596 20.0551 7.31345 19.847 7.52194C19.6389 7.73042 19.3519 7.85941 19.036 7.85941H18.3143ZM7.30235 8.64764V12.159H5.60765V8.64764C5.60765 8.46629 5.46132 8.32016 5.28078 8.32016H4.3301L6.45524 5.06586L8.58085 8.32016H7.63017C7.44915 8.32016 7.30282 8.46724 7.30282 8.64764H7.30235ZM7.95656 12.4869V8.97607H9.18471V8.97559C9.24647 8.97559 9.30871 8.95845 9.36382 8.92228C9.5149 8.82327 9.55719 8.62051 9.45836 8.46914L6.73222 4.29477C6.70799 4.25574 6.67521 4.22194 6.63435 4.19481C6.48327 4.09628 6.28088 4.13817 6.18205 4.28953L3.46066 8.45629C3.42171 8.51008 3.39843 8.57672 3.39843 8.64811C3.39843 8.82946 3.54476 8.97559 3.7253 8.97559H4.95344V12.4864C4.95344 12.6678 5.09977 12.8139 5.28031 12.8139H7.62922C7.81023 12.8139 7.95609 12.6668 7.95609 12.4864L7.95656 12.4869ZM15.496 21.6477C18.5993 21.6477 21.1145 19.1274 21.1145 16.0187C21.1145 12.9096 18.5984 10.3897 15.496 10.3897C12.3926 10.3897 9.87741 12.9105 9.87741 16.0187C9.87693 19.1278 12.3931 21.6477 15.496 21.6477ZM3.90393 16.3043V19.8156H2.20924V16.3043C2.20924 16.123 2.06291 15.9768 1.88237 15.9768H0.93169L3.0573 12.7225L5.18291 15.9768H4.23223C4.05122 15.9768 3.90489 16.1234 3.90489 16.3043H3.90393ZM4.55815 20.1431C4.55815 20.3245 4.41182 20.4706 4.23128 20.4706H1.88237C1.70136 20.4706 1.5555 20.324 1.5555 20.1431V16.6323H0.327359C0.146345 16.6323 0.000488281 16.4857 0.000488281 16.3048C0.000488281 16.2334 0.0232932 16.1667 0.0627268 16.113L2.78412 11.9462C2.88246 11.7948 3.08533 11.7525 3.23642 11.8515C3.27727 11.8781 3.31006 11.9124 3.33429 11.951L6.06043 16.1253C6.15925 16.2767 6.11696 16.4795 5.96588 16.5785C5.91077 16.6146 5.84853 16.6318 5.78677 16.6318V16.6323H4.55863V20.1436L4.55815 20.1431ZM13.5248 7.85941L13.5029 7.88797C10.9008 11.2556 7.64585 15.4685 7.64585 17.9917C7.64585 20.0912 8.48298 21.1722 9.83607 21.7258C11.2595 22.3074 13.2711 22.3455 15.4955 22.3455C17.7109 22.3455 19.7087 22.1065 21.1369 21.4226C22.5009 20.769 23.3451 19.6909 23.3451 17.9921C23.3451 15.0972 20.8024 11.9643 18.4198 9.02842C18.0929 8.62527 17.7684 8.22592 17.4772 7.85988H13.5248V7.85941ZM13.4944 5.5585H17.4971L20.065 1.44791L18.5019 0.67872L15.5967 1.62545V1.62497C15.5335 1.64544 15.4641 1.64687 15.3962 1.62545L12.4563 0.67872L10.9255 1.446L13.4948 5.5585H13.4944ZM15.4409 11.009C18.2202 11.009 20.4732 13.2661 20.4732 16.0506C20.4732 18.8351 18.2202 21.0922 15.4409 21.0922C12.6615 21.0922 10.4086 18.8351 10.4086 16.0506C10.4086 13.2661 12.6615 11.009 15.4409 11.009ZM19.0364 6.21393H11.9546C11.8192 6.21393 11.6952 6.26962 11.6054 6.35958C11.5156 6.44954 11.46 6.57282 11.46 6.70943C11.46 6.84509 11.5156 6.96932 11.6054 7.05928C11.6952 7.14924 11.8187 7.20493 11.9546 7.20493H19.0364C19.1718 7.20493 19.2958 7.14924 19.3856 7.05928C19.4754 6.96932 19.531 6.84556 19.531 6.70943C19.531 6.57378 19.4754 6.44954 19.3856 6.35958C19.2958 6.26962 19.1723 6.21393 19.0364 6.21393ZM16.9412 13.9144H13.8697V14.526H14.9529C15.3506 14.526 15.6898 14.7816 15.8157 15.1372H13.8697V15.7488H15.8157C15.6898 16.1049 15.3506 16.36 14.9529 16.36H13.8697V16.9716L15.658 18.7632L16.0894 18.331L14.7325 16.9716H14.9525C15.6893 16.9716 16.3055 16.4457 16.4476 15.7488H16.9412V15.1372H16.4476C16.4015 14.9116 16.306 14.7036 16.1725 14.526H16.9412V13.9144Z" fill="#EB3D00"/>
</g>
<defs>
<clipPath id="clip0_2185_310">
<rect width="24" height="23" fill="white"/>
</clipPath>
</defs>
</svg>
