<svg width="27" height="27" viewBox="0 0 27 27" fill="none" xmlns="http://www.w3.org/2000/svg">
<path d="M13.3269 0C5.97846 0 0 6.0561 0 13.5C0 16.7603 1.147 19.7541 3.05364 22.0896C3.05853 22.0963 3.05897 22.1049 3.0643 22.1112C4.44097 23.7929 6.16992 25.0821 8.09655 25.9151C8.11876 25.9245 8.14053 25.9348 8.16274 25.9443C8.31867 26.0109 8.47637 26.0725 8.63451 26.1329C8.69671 26.1567 8.7589 26.181 8.82198 26.2039C8.95836 26.2534 9.09562 26.3002 9.23378 26.3452C9.32218 26.374 9.41058 26.4024 9.49988 26.4294C9.62204 26.4663 9.74465 26.5018 9.86814 26.5356C9.97653 26.5653 10.0858 26.5927 10.1951 26.6193C10.3057 26.6463 10.4168 26.6733 10.5283 26.6971C10.6527 26.7241 10.7784 26.748 10.9045 26.7714C11.0058 26.7903 11.1067 26.8101 11.2088 26.8267C11.3488 26.8497 11.4896 26.8677 11.6308 26.8862C11.7219 26.8979 11.8125 26.9114 11.9041 26.9212C12.064 26.9383 12.2252 26.9505 12.3869 26.9618C12.462 26.9671 12.5366 26.9752 12.6122 26.9793C12.848 26.9928 13.0866 27 13.3269 27C13.5673 27 13.8058 26.9928 14.0426 26.9802C14.1181 26.9762 14.1927 26.9681 14.2678 26.9626C14.4295 26.9509 14.5908 26.9392 14.7507 26.9221C14.8422 26.9122 14.9328 26.8988 15.0239 26.887C15.1651 26.8686 15.306 26.8506 15.4459 26.8277C15.5476 26.811 15.6489 26.7912 15.7502 26.7723C15.8759 26.7489 16.0016 26.725 16.1265 26.698C16.238 26.6737 16.3486 26.6472 16.4596 26.6202C16.5689 26.5932 16.6782 26.5658 16.7866 26.5365C16.9101 26.5032 17.0327 26.4672 17.1549 26.4303C17.2442 26.4033 17.3326 26.375 17.421 26.3461C17.5591 26.3011 17.6964 26.2544 17.8328 26.2048C17.8954 26.1819 17.9576 26.1576 18.0202 26.1337C18.1788 26.0735 18.3361 26.0113 18.492 25.9452C18.5142 25.9357 18.536 25.9254 18.5582 25.9159C20.4844 25.083 22.2138 23.7937 23.5904 22.1121C23.5958 22.1058 23.5962 22.0968 23.6011 22.0905C25.5068 19.7541 26.6538 16.7603 26.6538 13.5C26.6538 6.0561 20.6754 0 13.3269 0ZM18.7274 24.849C18.7208 24.8521 18.7146 24.8557 18.7079 24.8589C18.5493 24.9363 18.388 25.0092 18.2255 25.0803C18.1886 25.0961 18.1522 25.1122 18.1153 25.128C17.9731 25.1883 17.8292 25.2454 17.6844 25.3003C17.624 25.3233 17.5636 25.3458 17.5027 25.3674C17.3743 25.4137 17.2455 25.4583 17.1153 25.5006C17.0345 25.5267 16.9532 25.5514 16.8719 25.5757C16.7564 25.6108 16.6404 25.6446 16.5232 25.6761C16.4245 25.7026 16.325 25.7269 16.2255 25.7508C16.1211 25.776 16.0172 25.8016 15.9119 25.8242C15.7968 25.8489 15.6809 25.87 15.5654 25.8912C15.4717 25.9087 15.3784 25.9272 15.2838 25.9425C15.1536 25.9632 15.0221 25.9798 14.8911 25.9965C14.808 26.0073 14.7254 26.0199 14.6414 26.0289C14.4917 26.0451 14.3407 26.0554 14.1901 26.0662C14.123 26.0707 14.0563 26.0784 13.9884 26.082C13.7685 26.0937 13.5482 26.1 13.3269 26.1C13.1057 26.1 12.8854 26.0937 12.6659 26.082C12.5984 26.0784 12.5317 26.0712 12.4642 26.0662C12.3132 26.0559 12.1626 26.0451 12.0129 26.0289C11.9289 26.0199 11.8463 26.0073 11.7632 25.9965C11.6322 25.9798 11.5007 25.9632 11.3705 25.9425C11.2759 25.9272 11.1826 25.9087 11.0889 25.8912C10.9729 25.87 10.857 25.8484 10.7424 25.8242C10.6371 25.8016 10.5327 25.776 10.4288 25.7508C10.3293 25.7265 10.2297 25.7026 10.1311 25.6761C10.0143 25.6446 9.89791 25.6104 9.78241 25.5757C9.70111 25.5514 9.61982 25.5267 9.53897 25.5006C9.40881 25.4583 9.27954 25.4137 9.1516 25.3674C9.09074 25.3454 9.03032 25.3228 8.96991 25.3003C8.82509 25.2454 8.68116 25.1883 8.539 25.128C8.50213 25.1127 8.46615 25.0965 8.42928 25.0807C8.26669 25.0101 8.10543 24.9367 7.9464 24.8594C7.93974 24.8562 7.93352 24.8531 7.92685 24.8494C6.37693 24.0898 5.00781 23.0117 3.89679 21.7022C4.75549 18.4991 7.18632 15.917 10.3137 14.8896C10.3755 14.9278 10.4399 14.962 10.5034 14.998C10.5407 15.0192 10.5776 15.0417 10.6153 15.0619C10.7477 15.133 10.8819 15.1996 11.0191 15.2595C11.1244 15.3063 11.2333 15.3459 11.3417 15.3864C11.363 15.3941 11.3843 15.4026 11.4056 15.4102C12.008 15.6262 12.6526 15.75 13.3269 15.75C14.0013 15.75 14.6458 15.6262 15.2478 15.4102C15.2691 15.4026 15.2904 15.3941 15.3117 15.3864C15.4201 15.3459 15.529 15.3063 15.6343 15.2595C15.7715 15.1996 15.9057 15.133 16.0381 15.0619C16.0758 15.0413 16.1127 15.0192 16.15 14.998C16.2135 14.962 16.2784 14.9279 16.3406 14.8892C19.468 15.917 21.8984 18.4991 22.7575 21.7017C21.6465 23.0107 20.2774 24.0889 18.7274 24.849ZM8.44038 9.9C8.44038 7.17075 10.6327 4.95 13.3269 4.95C16.0212 4.95 18.2135 7.17075 18.2135 9.9C18.2135 11.6361 17.3246 13.1638 15.9852 14.0476C15.8102 14.1628 15.628 14.2659 15.441 14.3559C15.4188 14.3667 15.397 14.3779 15.3748 14.3883C14.0883 14.981 12.5655 14.981 11.279 14.3883C11.2568 14.3779 11.2346 14.3667 11.2128 14.3559C11.0254 14.2659 10.8437 14.1628 10.6686 14.0476C9.32929 13.1638 8.44038 11.6361 8.44038 9.9ZM23.4238 20.8454C22.4168 17.833 20.1192 15.3986 17.1837 14.2421C18.3578 13.1706 19.1019 11.6235 19.1019 9.9C19.1019 6.6744 16.5112 4.05 13.3269 4.05C10.1427 4.05 7.55192 6.6744 7.55192 9.9C7.55192 11.6235 8.29601 13.1706 9.47056 14.2421C6.53508 15.399 4.23752 17.833 3.23045 20.8454C1.75871 18.7758 0.888462 16.2396 0.888462 13.5C0.888462 6.55245 6.46844 0.9 13.3269 0.9C20.1854 0.9 25.7654 6.55245 25.7654 13.5C25.7654 16.2396 24.8951 18.7758 23.4238 20.8454Z" />
</svg>
