<svg width="15" height="15" viewBox="0 0 15 15" fill="none" xmlns="http://www.w3.org/2000/svg">
<g clip-path="url(#clip0_2183_176)">
<path d="M14.1034 0.819178C14.0972 0.769823 14.0864 0.722285 14.0685 0.677684C14.068 0.676565 14.068 0.675027 14.0677 0.673629C14.0677 0.673349 14.0674 0.67307 14.0672 0.67279C14.0475 0.625812 14.0206 0.583168 13.9903 0.5436C13.9828 0.534232 13.9755 0.525004 13.9676 0.516195C13.9352 0.479284 13.9 0.445169 13.8592 0.417345C13.8581 0.416506 13.8567 0.416227 13.8556 0.415388C13.8161 0.389102 13.7725 0.369248 13.7268 0.353589C13.7155 0.349534 13.7044 0.346039 13.6928 0.342963C13.6449 0.32982 13.5956 0.320312 13.5437 0.320312H9.57385C9.2608 0.320312 9.00673 0.576876 9.00673 0.893001C9.00673 1.20913 9.2608 1.46569 9.57385 1.46569H12.1743L8.7895 4.88378C7.8869 4.15478 6.77565 3.75644 5.60404 3.75644C2.78978 3.75644 0.5 6.06873 0.5 8.91064C0.5 11.7526 2.78978 14.0648 5.60404 14.0648C8.4183 14.0648 10.7081 11.7526 10.7081 8.91064C10.7081 7.72807 10.3139 6.60618 9.59143 5.69388L12.9765 2.27551V4.90182C12.9765 5.21795 13.2306 5.47451 13.5437 5.47451C13.8567 5.47451 14.1108 5.21795 14.1108 4.90182V0.893001C14.1108 0.880977 14.108 0.869512 14.1073 0.857767C14.1065 0.844625 14.1051 0.832041 14.1034 0.819178ZM5.60404 12.9195C3.41491 12.9195 1.63423 11.1213 1.63423 8.91064C1.63423 6.7 3.41491 4.90182 5.60404 4.90182C6.66392 4.90182 7.66177 5.31847 8.41207 6.07348C9.16125 6.83269 9.57385 7.84035 9.57385 8.91064C9.57385 11.1213 7.79317 12.9195 5.60404 12.9195Z" fill="#EB3D00"/>
</g>
<defs>
<clipPath id="clip0_2183_176">
<rect width="13.6108" height="13.7445" fill="white" transform="translate(0.5 0.320312)"/>
</clipPath>
</defs>
</svg>
