<svg width="26" height="25" viewBox="0 0 26 25" fill="none" xmlns="http://www.w3.org/2000/svg">
<mask id="mask0_93_386" style="mask-type:luminance" maskUnits="userSpaceOnUse" x="0" y="0" width="26" height="25">
<path d="M24.6795 24.5V0.5H1V24.5H24.6795Z" fill="white" stroke="white"/>
</mask>
<g mask="url(#mask0_93_386)">
<path d="M7.33478 5.49763C7.04238 5.25212 6.78749 4.97678 6.58793 4.655C5.53178 2.95178 7.02744 1.47317 8.92328 0.359546H12.5078C12.0409 0.830493 10.4255 1.68494 10.6567 2.71223C10.7655 3.19504 11.2419 3.49709 11.5571 3.69392C11.8055 3.849 12.0666 3.97727 12.3327 4.09045C14.8126 5.14436 17.4765 5.59895 19.826 7.05305C21.4308 8.04622 22.6275 9.57209 23.0016 11.5945C23.2606 12.9946 23.1195 14.4401 22.8412 15.8428L22.836 15.869" stroke="#EB3D00" stroke-miterlimit="10" stroke-linecap="round" stroke-linejoin="round"/>
<path d="M22.4523 17.5232C22.3527 17.9124 22.2505 18.2952 22.1521 18.6693C21.6119 20.7226 20.9597 22.6599 20.3261 24.6402H3.45306C3.69239 24.2603 8.05126 18.9005 9.90733 16.7698C10.8818 15.6511 13.2405 12.7238 12.8452 10.4529C12.4376 8.11188 10.4848 7.3319 8.78827 6.4274L8.75891 6.41173" stroke="#EB3D00" stroke-miterlimit="10" stroke-linecap="round" stroke-linejoin="round"/>
<path d="M12.5077 0.359742H14.37C14.37 0.359742 12.6086 1.71702 12.3167 2.05408C11.9585 2.4677 12.5128 2.72415 12.8548 2.85476C13.5276 3.11174 14.2111 3.30886 14.8904 3.54348C15.6273 3.79802 16.361 4.06213 17.0904 4.33772C17.5454 4.50964 17.9995 4.68411 18.4488 4.87078C19.3335 5.23836 20.2029 5.65374 21.0062 6.18206C21.5799 6.55935 22.1227 6.99695 22.6059 7.50681C23.6748 8.63459 24.3265 10.1123 24.6204 11.7013C25.0588 14.072 24.6608 16.5341 24.0813 18.7372C23.5412 20.7904 23.02 22.66 22.386 24.6405L20.3261 24.6404" stroke="#EB3D00" stroke-miterlimit="10" stroke-linecap="round" stroke-linejoin="round"/>
<path d="M8.92339 0.359376H6.94445C5.45182 1.23613 4.36351 3.11958 5.18719 4.99766C5.86217 6.53648 7.50244 7.22144 8.75236 8.04761C9.44551 8.50571 10.2001 8.90894 10.7752 9.54961C11.304 10.1388 11.4473 10.8906 11.2342 11.6756C10.6994 13.646 8.97173 15.3262 7.71428 16.7697C5.85821 18.9004 1.11194 24.2603 0.87262 24.6401H3.74281" stroke="#EB3D00" stroke-miterlimit="10" stroke-linecap="round" stroke-linejoin="round"/>
<path d="M9.32798 1.88745C8.70738 2.37304 8.48401 3.61538 8.995 4.24721C9.47302 4.83833 10.277 5.10131 10.9319 5.42758C11.8653 5.89267 12.7742 6.38642 13.7055 6.86425C14.3688 7.20463 14.9801 7.62539 15.6499 7.97368C17.1357 8.74609 18.2484 10.3979 18.2225 12.1159C18.1916 14.1696 16.971 15.8936 16.0219 17.6392C15.0503 19.426 12.9499 23.0048 11.9194 24.6402" stroke="#EB3D00" stroke-miterlimit="10" stroke-linecap="round" stroke-linejoin="round" stroke-dasharray="26.67 53.33"/>
</g>
</svg>
