<svg width="22" height="22" viewBox="0 0 22 22" fill="none" xmlns="http://www.w3.org/2000/svg">
<path fill-rule="evenodd" clip-rule="evenodd" d="M8.30392 0C3.72143 0 0 3.76976 0 8.41176C0 13.0538 3.72143 16.8235 8.30392 16.8235C12.8864 16.8235 16.6078 13.0538 16.6078 8.41176C16.6078 3.76976 12.8864 0 8.30392 0ZM8.30392 1.29412C12.1825 1.29412 15.3303 4.48282 15.3303 8.41176C15.3303 12.3407 12.1825 15.5294 8.30392 15.5294C4.42535 15.5294 1.27753 12.3407 1.27753 8.41176C1.27753 4.48282 4.42535 1.29412 8.30392 1.29412Z" fill="black"/>
<path fill-rule="evenodd" clip-rule="evenodd" d="M21.5311 20.8945L14.174 13.4431C13.9248 13.1908 13.5199 13.1908 13.2708 13.4431C13.0216 13.6955 13.0216 14.1057 13.2708 14.358L20.6266 21.8108C20.877 22.0631 21.2807 22.0631 21.5311 21.8108C21.7802 21.5571 21.7802 21.1482 21.5311 20.8945Z" fill="black"/>
</svg>
