<svg width="16" height="16" viewBox="0 0 16 16" fill="none" xmlns="http://www.w3.org/2000/svg">
<path d="M15.0449 6.39496C14.9495 6.0838 14.6876 5.8628 14.3777 5.83337L10.1687 5.43065L8.50429 1.32566C8.38157 1.02482 8.10208 0.830078 7.79154 0.830078C7.48101 0.830078 7.20152 1.02482 7.0788 1.32636L5.41443 5.43065L1.20473 5.83337C0.895423 5.8635 0.63418 6.0838 0.538161 6.39496C0.442142 6.70612 0.530818 7.04741 0.764801 7.26255L3.94633 10.2027L3.00817 14.5575C2.93953 14.8776 3.05746 15.2086 3.30958 15.4007C3.4451 15.5038 3.60365 15.5564 3.76353 15.5564C3.90138 15.5564 4.03813 15.5172 4.16085 15.4398L7.79154 13.1532L11.4209 15.4398C11.6865 15.6082 12.0213 15.5928 12.2728 15.4007C12.5251 15.208 12.6429 14.8769 12.5742 14.5575L11.6361 10.2027L14.8176 7.26314C15.0516 7.04741 15.1409 6.70671 15.0449 6.39496Z" fill="#FFC107"/>
</svg>
