<svg width="31" height="30" viewBox="0 0 31 30" fill="none" xmlns="http://www.w3.org/2000/svg">
<path d="M13.5991 8.43751C13.5991 10.1573 12.4438 10.8685 11.6779 11.3341C11.3332 11.5474 10.9822 11.7608 10.9822 11.9224V12.3815C10.9822 12.666 10.7524 12.8987 10.4716 12.8987C10.1907 12.8987 9.96097 12.666 9.96097 12.3815V11.9224C9.96097 11.1724 10.5928 10.791 11.1545 10.4483C11.8885 9.9957 12.5842 9.57544 12.5842 8.43751C12.5842 7.26078 11.6396 6.29742 10.4716 6.29742C9.30994 6.29742 8.35893 7.25432 8.35893 8.43751C8.35893 8.72199 8.12915 8.95475 7.84832 8.95475C7.56748 8.95475 7.33771 8.72199 7.33771 8.43751C7.33771 6.68535 8.74188 5.26294 10.4716 5.26294C12.1885 5.26294 13.5991 6.68535 13.5991 8.43751Z"/>
<path d="M11.0077 14.1918C11.0077 14.4957 10.7652 14.7414 10.4652 14.7414C10.1652 14.7414 9.92267 14.4957 9.92267 14.1918C9.92267 13.8879 10.1652 13.6422 10.4652 13.6422C10.7652 13.6422 11.0077 13.8944 11.0077 14.1918Z"/>
<path d="M25.5729 23.903C25.5729 24.1875 25.3431 24.4203 25.0622 24.4203H15.8713C15.5904 24.4203 15.3607 24.1875 15.3607 23.903C15.3607 23.6185 15.5904 23.3858 15.8713 23.3858H25.0622C25.3431 23.3858 25.5729 23.6121 25.5729 23.903Z"/>
<path d="M25.5729 19.7845C25.5729 20.069 25.3431 20.3017 25.0622 20.3017H15.8713C15.5904 20.3017 15.3607 20.069 15.3607 19.7845C15.3607 19.5 15.5904 19.2672 15.8713 19.2672H25.0622C25.3431 19.2672 25.5729 19.5 25.5729 19.7845Z"/>
<path d="M29.4854 24.3556C30.1811 22.9461 30.5513 21.3685 30.5513 19.7845C30.5513 17.0819 29.5173 14.528 27.6408 12.6078C25.8792 10.8039 23.5687 9.74353 21.0859 9.58836C20.7667 4.24785 16.3755 0 11.0205 0C5.46119 0 0.935913 4.58405 0.935913 10.2155C0.935913 11.7996 1.30611 13.3772 2.00181 14.7866L0.948678 19.8103C0.910383 19.9849 0.967826 20.1595 1.0891 20.2823C1.18484 20.3793 1.31887 20.431 1.45291 20.431C1.48482 20.431 1.52311 20.4246 1.56141 20.4181L6.52071 19.3513C7.72703 19.9655 9.061 20.3211 10.4141 20.4116C10.5609 22.9267 11.614 25.2672 13.3948 27.0517C15.2968 28.9526 17.8116 30 20.4795 30C22.0433 30 23.6006 29.625 24.992 28.9203L29.9513 29.9871C29.9832 29.9935 30.0215 30 30.0598 30C30.1939 30 30.3215 29.9483 30.4236 29.8513C30.5449 29.7284 30.596 29.5474 30.5641 29.3793L29.4854 24.3556ZM6.82069 18.3491C6.7441 18.3103 6.66751 18.2909 6.58454 18.2909C6.55262 18.2909 6.51433 18.2974 6.47603 18.3039L2.11032 19.2414L3.0358 14.819C3.06133 14.7026 3.04218 14.5797 2.99112 14.4698C2.31456 13.1703 1.95713 11.6961 1.95713 10.2155C1.95713 5.15302 6.02287 1.03448 11.0205 1.03448C16.0181 1.03448 20.0838 5.15302 20.0838 10.2155C20.0838 15.278 16.0181 19.3966 11.0205 19.3966C9.55884 19.3966 8.1036 19.0345 6.82069 18.3491ZM25.0303 27.8728C24.9091 27.8405 24.7814 27.8599 24.6729 27.9181C23.3836 28.6034 21.9284 28.9655 20.4667 28.9655C15.7053 28.9655 11.7545 25.1767 11.4226 20.4246C14.6203 20.2953 17.435 18.653 19.1966 16.1897H25.0622C25.3431 16.1897 25.5729 15.9569 25.5729 15.6724C25.5729 15.3879 25.3431 15.1552 25.0622 15.1552H19.8476C20.588 13.8039 21.0348 12.2651 21.0986 10.6293C25.7962 10.9591 29.5301 14.9612 29.5301 19.7845C29.5301 21.2651 29.1727 22.7392 28.4961 24.0388C28.4386 24.1552 28.4259 24.2845 28.4514 24.4009L29.3769 28.8103L25.0303 27.8728Z"/>
</svg>
