<svg width="29" height="29" viewBox="0 0 29 29" fill="none" xmlns="http://www.w3.org/2000/svg">
<g clip-path="url(#clip0_2339_81)">
<path d="M10.0086 26.2695C9.38703 26.2695 8.77843 26.0166 8.33764 25.577L1.24719 18.4866C0.80758 18.0458 0.554688 17.4372 0.554688 16.8156C0.554688 16.194 0.80758 15.5854 1.24719 15.1446L11.8829 4.50891C12.3237 4.0693 12.9323 3.81641 13.5539 3.81641H20.6443C20.7967 3.81641 20.9409 3.83413 21.0827 3.86958C22.1581 4.03385 23.0078 5.03124 23.0078 6.17989V13.2703C23.0078 13.8919 22.7549 14.5005 22.3153 14.9413L11.6796 25.577C11.2388 26.0166 10.6302 26.2695 10.0086 26.2695ZM13.5539 4.99815C13.2431 4.99815 12.9393 5.12459 12.7184 5.3444L2.08268 15.9801C1.86288 16.2011 1.73643 16.5048 1.73643 16.8156C1.73643 17.1264 1.86288 17.4301 2.08268 17.6511L9.17313 24.7415C9.61392 25.1823 10.4021 25.1823 10.8429 24.7415L21.4786 14.1058C21.6996 13.8848 21.826 13.5811 21.826 13.2703V6.17989C21.826 5.60911 21.4065 5.11278 20.8487 5.02651C20.7471 5.00288 20.701 4.99815 20.6443 4.99815H13.5539Z" fill="#EB3D00"/>
<path d="M26.4711 28.6331H16.0009C15.3568 28.6331 14.7293 28.3838 14.2779 27.9465C13.8182 27.5022 13.5547 26.89 13.5547 26.2696V22.2753C13.5547 22.1182 13.6173 21.9681 13.7272 21.857L21.4794 14.1048C21.7004 13.885 21.8269 13.5812 21.8269 13.2705V6.18C21.8269 5.60922 21.4074 5.11289 20.8496 5.02662C20.5648 4.98171 20.3544 4.73945 20.3497 4.45229C20.345 4.16513 20.5482 3.9146 20.8319 3.86142C21.6 3.71961 22.3988 3.95832 22.959 4.50311L28.1917 9.52315C28.6538 9.96984 28.9173 10.582 28.9173 11.2024V26.2696C28.9173 26.89 28.6538 27.5022 28.1941 27.9465C27.7427 28.3838 27.1152 28.6331 26.4711 28.6331ZM14.7364 22.5199V26.2696C14.7364 26.5721 14.8688 26.8747 15.1004 27.098C15.332 27.3225 15.6606 27.4514 16.0009 27.4514H26.4711C26.8115 27.4514 27.1388 27.3225 27.3716 27.098C27.6032 26.8747 27.7356 26.5721 27.7356 26.2696V11.2024C27.7356 10.8999 27.6032 10.5973 27.3716 10.374L23.0086 6.18827V13.2705C23.0086 13.892 22.7557 14.5006 22.3161 14.9414L14.7364 22.5199Z" fill="#EB3D00"/>
<path d="M18.8722 9.72589C17.8949 9.72589 17.0996 8.93058 17.0996 7.95328C17.0996 6.97598 17.8949 6.18066 18.8722 6.18066C19.8495 6.18066 20.6448 6.97598 20.6448 7.95328C20.6448 8.93058 19.8495 9.72589 18.8722 9.72589ZM18.8722 7.36241C18.5461 7.36241 18.2814 7.62712 18.2814 7.95328C18.2814 8.27944 18.5461 8.54415 18.8722 8.54415C19.1984 8.54415 19.4631 8.27944 19.4631 7.95328C19.4631 7.62712 19.1984 7.36241 18.8722 7.36241Z" fill="#EB3D00"/>
<path d="M25.9626 8.54368C25.6364 8.54368 25.3717 8.27897 25.3717 7.95281V4.40758C25.3717 2.77914 24.0458 1.45323 22.4173 1.45323C20.7889 1.45323 19.463 2.77914 19.463 4.40758V6.77107C19.463 7.09723 19.1983 7.36194 18.8721 7.36194C18.546 7.36194 18.2812 7.09723 18.2812 6.77107V4.40758C18.2812 2.12682 20.1366 0.271484 22.4173 0.271484C24.6981 0.271484 26.5534 2.12682 26.5534 4.40758V7.95281C26.5534 8.27897 26.2887 8.54368 25.9626 8.54368Z" fill="#EB3D00"/>
</g>
<g clip-path="url(#clip1_2339_81)">
<path d="M16.853 16.0649L17.7621 15.0446L12.1504 10.0449L11.2414 11.0652L13.0269 12.656C13.6911 13.2478 13.8709 14.1748 13.5539 14.9558L10.3323 12.0855L9.42329 13.1058L12.6449 15.9761C12.2751 16.1803 11.8511 16.2651 11.4312 16.2187C11.0113 16.1723 10.6161 15.997 10.2998 15.717L8.51425 14.1261L7.41705 15.3577L7.72783 20.7463L9.17054 22.0317L8.83673 16.2437L9.39075 16.7373C9.97913 17.2601 10.7298 17.564 11.5161 17.5978C12.3025 17.6316 13.0765 17.3932 13.7076 16.9229L15.035 18.1055L15.944 17.0852L14.6166 15.9026C14.8692 15.4616 15.0188 14.9692 15.0542 14.4623L16.853 16.0649Z" fill="#EB3D00"/>
</g>
<defs>
<clipPath id="clip0_2339_81">
<rect width="28.3618" height="28.3618" fill="white" transform="translate(0.554688 0.271484)"/>
</clipPath>
<clipPath id="clip1_2339_81">
<rect width="16.3982" height="16.3982" fill="white" transform="translate(10.9082 5.27637) rotate(41.6992)"/>
</clipPath>
</defs>
</svg>
