<svg width="28" height="28" viewBox="0 0 28 28" fill="none" xmlns="http://www.w3.org/2000/svg">
<path d="M27.6655 15.131L26.9094 11.3016C26.8243 10.8564 26.4321 10.5309 25.9832 10.5309H22.4722C22.5431 10.1815 22.4155 9.80333 22.1178 9.57356L14.5572 3.82942V2.87207H16.9199C17.1798 2.87207 17.3924 2.65666 17.3924 2.39339V0.478678C17.3924 0.215405 17.1798 0 16.9199 0H14.0846C13.8247 0 13.6121 0.215405 13.6121 0.478678V3.82942L6.05144 9.57356C5.74902 9.80333 5.62616 10.1815 5.69704 10.5309H2.18606C1.73714 10.5309 1.34494 10.8564 1.25988 11.2968L0.503813 15.131C0.451833 15.4134 0.522714 15.7054 0.70228 15.9256C0.858218 16.1171 1.08504 16.2368 1.32603 16.2607V26.8012C1.32603 27.3277 1.75132 27.7585 2.27112 27.7585H25.8982C26.418 27.7585 26.8432 27.3277 26.8432 26.8012V16.2607C27.0842 16.232 27.3111 16.1171 27.467 15.9256C27.6466 15.7054 27.7222 15.4134 27.6655 15.1262V15.131ZM21.7398 11.6845L21.8816 11.4931H25.9832L26.7393 15.3225H20.2277V11.7324L20.4167 11.876C20.5868 12.0052 20.7853 12.0675 20.9837 12.0675C21.272 12.0675 21.5555 11.9334 21.7398 11.6845ZM16.4473 1.9195H14.5572V0.962143H16.4473V1.9195ZM14.0846 4.6719L21.5508 10.3442L20.9837 11.1101L14.3682 6.084C14.198 5.95476 13.9712 5.95476 13.8011 6.084L7.18554 11.1101L6.61849 10.3442L14.0846 4.6719ZM2.18606 11.4931H6.28771L6.42948 11.6845C6.74135 12.1058 7.33675 12.1919 7.75259 11.876L7.94161 11.7324V15.3225H1.42999L2.18606 11.4931ZM2.27112 16.2798H7.94161V26.8108H2.27112V16.2798ZM11.7219 26.8108V21.0666H13.6121V26.8108H11.7219ZM14.5572 26.8108V21.0666H16.4473V26.8108H14.5572ZM17.3924 26.8108V20.5879C17.3924 20.3247 17.1798 20.1093 16.9199 20.1093H11.2494C10.9895 20.1093 10.7769 20.3247 10.7769 20.5879V26.8108H8.88669V11.0144L14.0846 7.06529L19.2826 11.0144V26.8108H17.3924ZM25.8982 26.8108H20.2277V16.2798H25.8982V26.8108ZM14.0846 10.057C12.5205 10.057 11.2494 11.3447 11.2494 12.9291V17.2372C11.2494 17.5005 11.462 17.7159 11.7219 17.7159H16.4473C16.7072 17.7159 16.9199 17.5005 16.9199 17.2372V12.9291C16.9199 11.3447 15.6487 10.057 14.0846 10.057ZM15.9748 12.9291V13.8865H14.5572V11.0814C15.3699 11.2968 15.9748 12.0388 15.9748 12.9291ZM13.6121 11.0814V13.8865H12.1945V12.9291C12.1945 12.0388 12.7993 11.2968 13.6121 11.0814ZM12.1945 14.8438H13.6121V16.7585H12.1945V14.8438ZM14.5572 16.7585V14.8438H15.9748V16.7585H14.5572ZM5.10636 18.6732C4.06205 18.6732 3.2162 19.5301 3.2162 20.5879V23.9387C3.2162 24.202 3.42884 24.4174 3.68874 24.4174H6.52398C6.78388 24.4174 6.99652 24.202 6.99652 23.9387V20.5879C6.99652 19.5301 6.15068 18.6732 5.10636 18.6732ZM6.05144 23.46H4.16128V20.5879C4.16128 20.0614 4.58657 19.6306 5.10636 19.6306C5.62616 19.6306 6.05144 20.0614 6.05144 20.5879V23.46ZM21.6453 24.4174H24.4805C24.7404 24.4174 24.9531 24.202 24.9531 23.9387V20.5879C24.9531 19.5301 24.1072 18.6732 23.0629 18.6732C22.0186 18.6732 21.1727 19.5301 21.1727 20.5879V23.9387C21.1727 24.202 21.3854 24.4174 21.6453 24.4174ZM22.1178 20.5879C22.1178 20.0614 22.5431 19.6306 23.0629 19.6306C23.5827 19.6306 24.008 20.0614 24.008 20.5879V23.46H22.1178V20.5879Z" fill="#EB3D00"/>
</svg>
