<svg width="22" height="26" viewBox="0 0 22 26" fill="none" xmlns="http://www.w3.org/2000/svg">
<path d="M14.4805 0.81875L20.7067 7.045M5.89859 12.33H16.0698M5.89859 19.8712H16.0698M5.89859 16.1006H16.0698M2.47734 0.81875C2.15215 0.826744 1.84298 0.961565 1.61584 1.19442C1.38871 1.42728 1.26162 1.73971 1.26172 2.065V23.9413C1.26178 24.2664 1.38883 24.5786 1.6158 24.8114C1.84277 25.0442 2.15169 25.1792 2.47672 25.1875H19.4917C19.8222 25.1875 20.1392 25.0562 20.373 24.8225C20.6067 24.5888 20.738 24.2718 20.738 23.9413V7.045H15.7523C15.4271 7.03685 15.1179 6.90189 14.8908 6.66893C14.6637 6.43598 14.5366 6.12347 14.5367 5.79813V0.8125L2.47734 0.81875Z"  stroke-linecap="round" stroke-linejoin="round"/>
</svg>
