<svg width="18" height="17" viewBox="0 0 18 17" fill="none" xmlns="http://www.w3.org/2000/svg">
<g clip-path="url(#clip0_2183_182)">
<path d="M16.6308 0.749256C16.6131 0.5038 16.3922 0.30085 16.1488 0.304794H13.1532C12.8858 0.304794 12.669 0.523716 12.669 0.793751C12.669 1.06379 12.8858 1.28271 13.1532 1.28271H14.9797L11.4135 4.88371C10.7754 4.32874 9.94543 3.99277 9.03914 3.99277C8.13285 3.99277 7.3029 4.32874 6.66476 4.88371L5.50317 3.7108L6.31055 2.89548C6.49965 2.70456 6.49965 2.39495 6.31055 2.204C6.12149 2.01308 5.8149 2.01308 5.6258 2.204L4.81838 3.01935L3.09851 1.28267H4.92504C5.19244 1.28267 5.40923 1.06375 5.40923 0.793718C5.40923 0.523684 5.19244 0.304762 4.92504 0.304762H1.92946C1.66961 0.299937 1.44046 0.531246 1.44526 0.793718V3.81873C1.44526 4.08876 1.66206 4.30769 1.92946 4.30769C2.19687 4.30769 2.41366 4.08876 2.41366 3.81873V1.97412L4.1336 3.71087L3.32618 4.52622C3.13709 4.71714 3.13709 5.02675 3.32618 5.2177C3.42073 5.31318 3.54465 5.36093 3.66854 5.36093C3.79243 5.36093 3.91639 5.31318 4.0109 5.2177L4.81835 4.40232L6.01962 5.61529C5.62603 6.20272 5.39594 6.9106 5.39594 7.67171C5.39594 9.53453 6.77413 11.0782 8.55488 11.3181V13.7722H7.21042C6.94301 13.7722 6.72622 13.9911 6.72622 14.2611C6.72622 14.5312 6.94301 14.7501 7.21042 14.7501H8.55488V16.5055C8.55488 16.7756 8.77167 16.9945 9.03908 16.9945C9.30648 16.9945 9.52327 16.7756 9.52327 16.5055V14.7501H10.8677C11.1351 14.7501 11.3519 14.5312 11.3519 14.2611C11.3519 13.9911 11.1351 13.7722 10.8677 13.7722H9.52327V11.3181C11.3041 11.0782 12.6822 9.53453 12.6822 7.67171C12.6822 6.9106 12.4522 6.20272 12.0585 5.61529L15.6646 1.97412V3.81873C15.6646 4.08876 15.8814 4.30769 16.1488 4.30769C16.4162 4.30769 16.633 4.08876 16.633 3.81873V0.793718C16.633 0.778756 16.6321 0.763957 16.6308 0.749256ZM9.03914 10.3728C7.56431 10.3728 6.3644 9.16107 6.3644 7.67174C6.3644 6.18241 7.56431 4.97071 9.03914 4.97071C10.514 4.97071 11.7139 6.18241 11.7139 7.67174C11.7139 9.16107 10.514 10.3728 9.03914 10.3728Z" fill="#EB3D00"/>
</g>
<defs>
<clipPath id="clip0_2183_182">
<rect width="16.5274" height="16.6898" fill="white" transform="translate(0.775391 0.304688)"/>
</clipPath>
</defs>
</svg>
