<svg width="25" height="25" viewBox="0 0 25 25" fill="none" xmlns="http://www.w3.org/2000/svg">
<g clip-path="url(#clip0_2339_89)">
<path d="M3.30368 22.2618L2.44727 20.7324L3.30368 19.2031H5.01651L5.87293 20.7324L5.01651 22.2618H3.30368Z" stroke="#EB3D00" stroke-linecap="round" stroke-linejoin="round"/>
<path d="M24.2241 3.72577L22.1289 5.82093L19.835 5.05627L19.0703 2.7623L21.1655 0.667145C20.3708 0.426824 19.5259 0.406613 18.7207 0.608665C17.9155 0.810717 17.1802 1.22746 16.5932 1.81448C16.0061 2.4015 15.5894 3.1368 15.3873 3.942C15.1853 4.74721 15.2055 5.59215 15.4458 6.38678L4.50359 17.329C4.38897 17.3232 4.27412 17.3232 4.15949 17.329C3.47732 17.3291 2.81055 17.5319 2.24389 17.9117C1.67723 18.2915 1.23625 18.8312 0.976972 19.4622C0.717696 20.0931 0.651823 20.7869 0.787721 21.4555C0.92362 22.124 1.25516 22.737 1.74021 23.2166C2.22527 23.6963 2.84196 24.021 3.51194 24.1494C4.18192 24.2778 4.87495 24.2042 5.503 23.9379C6.13104 23.6716 6.66576 23.2246 7.03922 22.6537C7.41268 22.0829 7.60803 21.4139 7.60045 20.7317C7.6063 20.6171 7.6063 20.5023 7.60045 20.3876L18.535 9.45305C19.3286 9.68693 20.1706 9.7019 20.9719 9.49637C21.7732 9.29085 22.5041 8.87248 23.0871 8.28555C23.6701 7.69863 24.0836 6.96498 24.2837 6.16229C24.4839 5.35959 24.4633 4.51771 24.2241 3.72577Z" stroke="#EB3D00" stroke-linecap="round" stroke-linejoin="round"/>
<path d="M6.07227 18.8203L7.60158 17.291" stroke="#EB3D00" stroke-linecap="round" stroke-linejoin="round"/>
<path d="M9.13086 15.7617L10.6602 14.2324" stroke="#EB3D00" stroke-linecap="round" stroke-linejoin="round"/>
<path d="M12.1895 12.7031L13.7188 11.1738" stroke="#EB3D00" stroke-linecap="round" stroke-linejoin="round"/>
<path d="M15.248 9.64455L16.7774 8.11523" stroke="#EB3D00" stroke-linecap="round" stroke-linejoin="round"/>
<path d="M24.4235 20.9313C24.4239 20.5054 24.3403 20.0836 24.1776 19.69C24.0149 19.2964 23.7763 18.9387 23.4753 18.6374L16.3946 11.5566L11.8066 16.1446L18.8874 23.2253C19.1887 23.5263 19.5464 23.7649 19.94 23.9276C20.3336 24.0903 20.7554 24.1739 21.1813 24.1735C22.0412 24.1735 22.8659 23.8319 23.4739 23.2239C24.0819 22.6159 24.4235 21.7912 24.4235 20.9313Z" stroke="#EB3D00" stroke-linecap="round" stroke-linejoin="round"/>
<path d="M6.07135 4.29203L5.68902 4.67436L4.54203 3.52738L3.77738 1.99806L1.48341 0.46875L0.71875 1.23341L2.24806 3.52738L3.77738 4.29203L4.92436 5.43902L4.54203 5.82135L10.277 11.5563L11.8063 10.027L6.07135 4.29203Z" stroke="#EB3D00" stroke-linecap="round" stroke-linejoin="round"/>
<path d="M14.4824 15.7617L19.835 21.1143" stroke="#EB3D00" stroke-linecap="round" stroke-linejoin="round"/>
<path d="M16.0117 14.2324L21.3643 19.585" stroke="#EB3D00" stroke-linecap="round" stroke-linejoin="round"/>
</g>
<defs>
<clipPath id="clip0_2339_89">
<rect width="24.469" height="24.469" fill="white" transform="translate(0.335938 0.0859375)"/>
</clipPath>
</defs>
</svg>
