<svg width="21" height="20" viewBox="0 0 21 20" fill="none" xmlns="http://www.w3.org/2000/svg">
<path d="M20.2452 12.2729C20.0423 12.2729 19.8478 12.3535 19.7043 12.497C19.5609 12.6404 19.4803 12.8349 19.4803 13.0378V15.6497C19.4803 16.2653 19.2358 16.8558 18.8004 17.2911C18.3651 17.7264 17.7747 17.971 17.1591 17.971H3.85094C3.2353 17.971 2.64488 17.7264 2.20955 17.2911C1.77423 16.8558 1.52967 16.2653 1.52967 15.6497V13.0378C1.52967 12.8349 1.44909 12.6404 1.30565 12.497C1.16222 12.3535 0.967681 12.2729 0.764834 12.2729C0.561988 12.2729 0.367449 12.3535 0.224015 12.497C0.0805805 12.6404 0 12.8349 0 13.0378V15.6497C0.00101242 16.6707 0.40706 17.6496 1.12903 18.3716C1.851 19.0936 2.82992 19.4996 3.85094 19.5006H17.1591C18.1801 19.4996 19.159 19.0936 19.881 18.3716C20.6029 17.6496 21.009 16.6707 21.01 15.6497V13.0378C21.01 12.8349 20.9294 12.6404 20.786 12.497C20.6425 12.3535 20.448 12.2729 20.2452 12.2729Z" />
<path d="M6.68092 5.6575L9.74025 2.59816V13.956C9.74025 14.1588 9.82083 14.3533 9.96427 14.4968C10.1077 14.6402 10.3022 14.7208 10.5051 14.7208C10.7079 14.7208 10.9025 14.6402 11.0459 14.4968C11.1893 14.3533 11.2699 14.1588 11.2699 13.956V2.60963L14.3293 5.66897C14.4003 5.74003 14.4847 5.7964 14.5775 5.83486C14.6704 5.87331 14.7699 5.89311 14.8704 5.89311C14.9709 5.89311 15.0704 5.87331 15.1632 5.83486C15.2561 5.7964 15.3404 5.74003 15.4115 5.66897C15.4826 5.59791 15.5389 5.51355 15.5774 5.4207C15.6158 5.32786 15.6356 5.22834 15.6356 5.12785C15.6356 5.02735 15.6158 4.92784 15.5774 4.835C15.5389 4.74215 15.4826 4.65779 15.4115 4.58673L11.0481 0.223347C10.9418 0.12022 10.8097 0.0475742 10.6657 0.0130174C10.5419 -0.00976924 10.4145 -0.00256359 10.294 0.0340307C10.1736 0.0706251 10.0637 0.135543 9.97353 0.223347L5.61015 4.57526C5.48872 4.72136 5.42602 4.90744 5.43425 5.09724C5.44248 5.28704 5.52106 5.46698 5.65467 5.60203C5.78829 5.73708 5.96739 5.81757 6.15709 5.82782C6.34679 5.83807 6.53352 5.77736 6.68092 5.6575Z" />
</svg>
