<svg width="26" height="26" viewBox="0 0 26 26" fill="none" xmlns="http://www.w3.org/2000/svg">
<g clip-path="url(#clip0_2339_65)">
<path d="M23.8993 10.6461C23.4949 10.294 24.587 11.245 23.8993 10.6461V10.6461Z" fill="#EB3D00"/>
<path d="M23.9019 10.6452C23.4557 10.2566 22.8731 9.8509 22.8994 9.19875C22.9277 8.50305 23.1849 7.83212 23.2748 7.14368C23.3576 6.50905 23.3068 5.82811 22.8436 5.34188C22.4322 4.90969 21.8261 4.75403 21.2545 4.6727C20.6146 4.58161 19.9132 4.6224 19.3008 4.39618C18.731 4.18521 18.5185 3.39392 18.3025 2.88941C18.0746 2.35688 17.8301 1.79857 17.4111 1.38515C16.9309 0.910926 16.2788 0.783048 15.6369 0.969735C14.9044 1.18295 14.29 1.66493 13.6198 2.01078C13.3731 2.13841 13.083 2.2838 12.7968 2.26003C12.4627 2.23225 12.1416 2.04406 11.8563 1.88265C11.2102 1.51728 10.5718 1.04306 9.82553 0.910676C9.17963 0.796061 8.58178 1.04106 8.16286 1.5348C7.77747 1.98901 7.55249 2.55608 7.32101 3.09787C7.07827 3.66694 6.86505 4.29783 6.20639 4.45749C5.08351 4.73001 3.51194 4.43496 2.73315 5.50479C2.33726 6.04858 2.36579 6.75204 2.47465 7.38367C2.58776 8.03833 2.8733 8.73653 2.80873 9.40746C2.75242 9.99254 2.04396 10.439 1.64181 10.7928C1.18285 11.1965 0.700364 11.6394 0.469131 12.2198C-0.0641541 13.5581 1.19536 14.5221 2.06949 15.3036C2.29672 15.5071 2.54121 15.721 2.70112 15.9841C2.85628 16.2396 2.82299 16.5554 2.78145 16.8379C2.6801 17.5286 2.44612 18.1968 2.40783 18.8972C2.37304 19.5331 2.54647 20.1655 3.0745 20.5629C3.55048 20.9213 4.16985 21.0219 4.74743 21.0854C5.0705 21.1207 5.39508 21.1417 5.71765 21.1813C6.0162 21.2178 6.37556 21.2531 6.62681 21.436C6.85429 21.6017 6.98968 21.898 7.1073 22.1442C7.2562 22.4561 7.38257 22.7776 7.52346 23.0924C7.75695 23.615 8.03573 24.1623 8.50495 24.5124C9.07477 24.9375 9.77573 24.8965 10.4064 24.6345C11.1028 24.3452 11.6957 23.853 12.3941 23.5699C13.0508 23.3044 13.6201 23.695 14.1774 24.0259C14.7985 24.395 15.4737 24.8417 16.2239 24.8417C16.8568 24.8417 17.3681 24.4713 17.7172 23.9678C18.0713 23.4571 18.278 22.8642 18.532 22.3022C18.6556 22.0284 18.7873 21.7278 19.0002 21.5104C19.2082 21.2981 19.5418 21.2463 19.8223 21.2048C20.9399 21.0376 22.5658 21.1793 23.1366 19.9495C23.4164 19.3474 23.3073 18.645 23.1762 18.0199C23.1056 17.6815 23.0198 17.3469 22.9585 17.0071C22.9069 16.7205 22.8371 16.3662 22.957 16.0872C23.1792 15.5704 23.7768 15.1928 24.1829 14.8291C24.6029 14.4533 25.0305 14.0354 25.2428 13.5021C25.7225 12.2989 24.726 11.3627 23.9019 10.6452ZM24.1046 12.9638C23.9872 13.4408 23.4362 13.8239 23.0856 14.1279C23.2045 14.0248 23.3046 13.9373 23.0803 14.1325C22.5783 14.5699 22.0145 15.0346 21.7743 15.6775C21.5068 16.3925 21.7082 17.1903 21.8701 17.9052C21.9625 18.3119 22.3086 19.2709 21.8641 19.5789C21.6436 19.7318 21.3438 19.7729 21.0848 19.8096C20.7275 19.8599 20.3669 19.882 20.008 19.92C19.3606 19.9893 18.6684 20.1082 18.1749 20.5687C17.6839 21.0266 17.4319 21.686 17.1744 22.2901C17.0107 22.6733 16.7197 23.6382 16.1676 23.5874C15.8618 23.5592 15.567 23.384 15.3053 23.2366C14.9559 23.0396 14.6186 22.8227 14.2645 22.635C13.6053 22.2856 12.9179 22.0894 12.1841 22.3177C11.4557 22.5444 10.8443 23.0211 10.1716 23.3652C9.95641 23.4751 9.62808 23.6575 9.37632 23.5739C9.12482 23.4923 8.96766 23.1868 8.85355 22.9708C8.53273 22.3637 8.33528 21.6965 7.97216 21.111C7.61155 20.5289 7.10179 20.1838 6.43662 20.0336C5.76495 19.8822 5.07 19.9017 4.39557 19.7711C4.17961 19.7291 3.88506 19.672 3.74592 19.4808C3.58776 19.2633 3.65258 18.906 3.69012 18.6625C3.80398 17.921 4.06799 17.1985 4.06674 16.4415C4.06549 15.7065 3.70989 15.143 3.19812 14.6432C2.71288 14.169 2.06523 13.7703 1.70612 13.1837C1.36103 12.6194 2.05347 12.0999 2.4321 11.7653C2.94262 11.3139 3.52445 10.8742 3.84502 10.2571C4.19487 9.58288 4.06024 8.80085 3.90558 8.09214C3.83051 7.74904 3.74367 7.40745 3.69037 7.05985C3.65283 6.81586 3.58776 6.45875 3.74617 6.24128C3.88531 6.05009 4.17986 5.99303 4.39607 5.95099C4.74593 5.88317 5.10328 5.85939 5.45739 5.82636C6.10829 5.76605 6.81926 5.69473 7.3643 5.29833C7.9041 4.90544 8.18763 4.25553 8.44264 3.66069C8.57352 3.35513 8.69814 3.04557 8.8538 2.75152C8.96791 2.53556 9.12507 2.22975 9.37657 2.14817C9.63058 2.06684 9.9544 2.24602 10.1716 2.35713C10.5275 2.53931 10.8636 2.75728 11.2107 2.95498C11.8446 3.31609 12.537 3.6229 13.2805 3.4695C14.023 3.31609 14.6566 2.85112 15.3053 2.48526C15.567 2.33761 15.8621 2.16268 16.1679 2.1344C16.4429 2.10888 16.6176 2.34336 16.748 2.55358C17.4449 3.67445 17.5963 5.19723 19.046 5.62816C19.5458 5.77656 20.0721 5.80859 20.5883 5.85664C20.9875 5.89368 21.6389 5.88842 21.9389 6.20599C22.2147 6.49779 22.0168 7.14393 21.9454 7.47802C21.8191 8.07187 21.6464 8.66796 21.6476 9.27983C21.6496 10.48 22.6099 11.1515 23.4152 11.8847C23.6799 12.1254 24.2075 12.5449 24.1046 12.9638Z" fill="#EB3D00"/>
<path d="M16.6604 9.58485C15.0576 11.3319 13.4547 13.0786 11.8519 14.8256C11.7928 14.8902 11.7903 14.9332 11.7145 14.8882C11.489 14.7553 11.2635 14.6222 11.038 14.4895C10.4012 14.1144 9.76451 13.739 9.12762 13.3636C8.90039 13.2298 8.68318 13.0884 8.4029 13.1765C7.88763 13.3379 7.82131 14.0466 8.27927 14.3163C8.76201 14.6009 9.24449 14.8852 9.72722 15.1697C10.3073 15.5113 10.8876 15.8534 11.4677 16.1952C11.8376 16.4132 12.1637 16.3364 12.4447 16.0303C13.3126 15.0844 14.1804 14.1384 15.0481 13.1922C15.743 12.435 16.438 11.6774 17.1327 10.9199C17.2791 10.7605 17.4252 10.6011 17.5716 10.4417C18.1232 9.8406 17.2122 8.98274 16.6604 9.58485Z" fill="#EB3D00"/>
</g>
<defs>
<clipPath id="clip0_2339_65">
<rect width="25.0251" height="25.0251" fill="white" transform="translate(0.341797 0.349609)"/>
</clipPath>
</defs>
</svg>
